<?xml version="1.0" encoding="utf-8"?>
<!-- Generator: Adobe Illustrator 16.0.0, SVG Export Plug-In . SVG Version: 6.00 Build 0)  -->
<!DOCTYPE svg PUBLIC "-//W3C//DTD SVG 1.1//EN" "http://www.w3.org/Graphics/SVG/1.1/DTD/svg11.dtd">
<svg version="1.1" id="Layer_1" xmlns="http://www.w3.org/2000/svg" xmlns:xlink="http://www.w3.org/1999/xlink" x="0px" y="0px"
	 width="75px" height="75px" viewBox="0 0 75 75" enable-background="new 0 0 75 75" xml:space="preserve">
<g>
	<g>
		<g>
			<circle fill="#27A8CC" cx="37.5" cy="37.5" r="35"/>
			<path fill="#27A8CC" d="M37.5,73C17.925,73,2,57.076,2,37.5C2,17.926,17.925,2,37.5,2C57.074,2,73,17.926,73,37.5
				C73,57.076,57.074,73,37.5,73z M37.5,3C18.477,3,3,18.477,3,37.5S18.477,72,37.5,72C56.523,72,72,56.523,72,37.5S56.523,3,37.5,3
				z"/>
		</g>
		<g>
			<path fill="#27A8CC" d="M37.5,3.93c18.511,0,33.57,15.06,33.57,33.57c0,18.512-15.059,33.57-33.57,33.57
				c-18.512,0-33.571-15.059-33.571-33.57C3.929,18.989,18.988,3.93,37.5,3.93 M37.5,2.5c-19.33,0-35,15.67-35,35s15.67,35,35,35
				c19.328,0,35-15.67,35-35S56.828,2.5,37.5,2.5L37.5,2.5z"/>
			<path fill="#27A8CC" d="M37.5,73C17.925,73,2,57.076,2,37.5C2,17.926,17.925,2,37.5,2C57.074,2,73,17.926,73,37.5
				C73,57.076,57.074,73,37.5,73z M37.5,3C18.477,3,3,18.477,3,37.5S18.477,72,37.5,72C56.523,72,72,56.523,72,37.5S56.523,3,37.5,3
				z M37.5,71.57c-18.787,0-34.071-15.283-34.071-34.07c0-18.786,15.284-34.07,34.071-34.07c18.785,0,34.07,15.284,34.07,34.07
				C71.57,56.287,56.285,71.57,37.5,71.57z"/>
		</g>
	</g>
</g>
<g>
	<g>
		<path fill="#FFFFFF" d="M29.275,27.59c0-0.167,0-0.288,0-0.407c-0.001-3.388-0.001-6.776-0.003-10.164
			c0-0.713,0.332-1.057,1.038-1.058c4.79,0,9.581,0,14.37,0c0.717,0.001,1.037,0.324,1.038,1.051
			c0.005,3.399,0.007,6.798-0.004,10.197c-0.001,0.316,0.086,0.403,0.394,0.386c0.471-0.025,0.942-0.01,1.414-0.002
			c0.549,0.008,0.896,0.347,0.934,0.895c0.006,0.089,0.003,0.179,0.003,0.269c0,8.571,0.001,17.14-0.001,25.711
			c-0.001,2.187-1.432,3.98-3.561,4.462c-0.324,0.071-0.666,0.104-1,0.104c-4.263,0.009-8.524,0.009-12.789,0.004
			c-2.575-0.002-4.565-1.991-4.565-4.56c-0.002-8.594-0.001-17.188,0-25.778c0-0.789,0.31-1.103,1.092-1.107
			C28.162,27.587,28.688,27.59,29.275,27.59z M46.641,29.398c-6.109,0-12.191,0-18.294,0c0,0.159,0,0.293,0,0.427
			c0,3.555,0,7.109,0,10.664c0,4.688-0.002,9.376,0.001,14.063c0.002,1.451,1.177,2.671,2.604,2.673
			c4.362,0.012,8.725,0.012,13.087,0.002c1.419-0.004,2.61-1.215,2.612-2.634c0.006-8.309,0.002-16.619,0.002-24.928
			C46.652,29.587,46.646,29.509,46.641,29.398z M43.909,27.57c0-3.277,0-6.53,0-9.78c-4.293,0-8.558,0-12.829,0
			c0,3.271,0,6.517,0,9.78C35.367,27.57,39.633,27.57,43.909,27.57z"/>
		<path fill="#FFFFFF" d="M37.467,53.266c-1.041,0-2.083,0.008-3.124-0.005c-0.44-0.004-0.758-0.304-0.832-0.733
			c-0.072-0.42,0.14-0.818,0.536-0.973c0.121-0.047,0.26-0.064,0.391-0.064c2.039-0.004,4.078-0.006,6.115-0.002
			c0.566,0.002,0.941,0.357,0.947,0.869c0.006,0.537-0.363,0.903-0.941,0.908C39.527,53.271,38.497,53.268,37.467,53.266
			L37.467,53.266z"/>
		<path fill="#FFFFFF" d="M35.282,22.666c0,0.661,0.001,1.321-0.001,1.982C35.28,25.21,34.91,25.62,34.4,25.627
			c-0.526,0.007-0.909-0.401-0.911-0.99c-0.005-0.963-0.001-1.925-0.001-2.888c0-0.359-0.006-0.716,0.001-1.075
			c0.013-0.578,0.374-0.951,0.905-0.951c0.532,0.001,0.884,0.379,0.887,0.96C35.284,21.345,35.281,22.005,35.282,22.666z"/>
		<path fill="#FFFFFF" d="M41.5,22.692c0,0.649,0.004,1.298-0.001,1.947c-0.007,0.598-0.382,1.003-0.903,0.99
			c-0.515-0.013-0.879-0.415-0.88-0.983c-0.003-1.31-0.003-2.619,0-3.928c0.001-0.609,0.347-0.991,0.89-0.994
			c0.543-0.002,0.89,0.37,0.896,0.988c0.008,0.66,0.002,1.32,0.002,1.98C41.502,22.692,41.5,22.692,41.5,22.692z"/>
	</g>
</g>
</svg>
