<?xml version="1.0" encoding="utf-8"?>
<!-- Generator: Adobe Illustrator 16.0.0, SVG Export Plug-In . SVG Version: 6.00 Build 0)  -->
<!DOCTYPE svg PUBLIC "-//W3C//DTD SVG 1.1//EN" "http://www.w3.org/Graphics/SVG/1.1/DTD/svg11.dtd">
<svg version="1.1" id="Layer_1" xmlns="http://www.w3.org/2000/svg" xmlns:xlink="http://www.w3.org/1999/xlink" x="0px" y="0px"
	 width="75px" height="75px" viewBox="0 0 75 75" enable-background="new 0 0 75 75" xml:space="preserve">
<g>
	<circle fill="#FFFFFF" cx="37.5" cy="37.5" r="35"/>
	<g>
		<path fill="#BCBCBB" d="M37.5,3.929c18.512,0,33.57,15.06,33.57,33.571c0,18.512-15.059,33.57-33.57,33.57
			c-18.511,0-33.571-15.06-33.571-33.57S18.989,3.929,37.5,3.929 M37.5,2.5c-19.331,0-35,15.67-35,35s15.669,35,35,35
			c19.329,0,35-15.67,35-35S56.829,2.5,37.5,2.5L37.5,2.5z"/>
		<path fill="#BCBCBB" d="M37.5,73C17.925,73,2,57.075,2,37.5C2,17.925,17.925,2,37.5,2C57.075,2,73,17.925,73,37.5
			C73,57.075,57.075,73,37.5,73z M37.5,3C18.477,3,3,18.477,3,37.5S18.477,72,37.5,72S72,56.523,72,37.5S56.523,3,37.5,3z
			 M37.5,71.57c-18.787,0-34.071-15.284-34.071-34.07c0-18.787,15.284-34.071,34.071-34.071c18.786,0,34.07,15.284,34.07,34.071
			C71.57,56.286,56.286,71.57,37.5,71.57z M37.5,4.429C19.265,4.429,4.429,19.265,4.429,37.5S19.265,70.57,37.5,70.57
			S70.57,55.735,70.57,37.5S55.735,4.429,37.5,4.429z"/>
	</g>
</g>
<g>
	<path fill="#BCBCBC" d="M29.275,27.59c0-0.167,0-0.287,0-0.407c0-3.388,0-6.776-0.002-10.164c0-0.713,0.332-1.057,1.037-1.057
		c4.79-0.001,9.581-0.001,14.37,0c0.717,0,1.037,0.323,1.038,1.05c0.003,3.399,0.007,6.798-0.004,10.197
		c-0.001,0.316,0.086,0.403,0.394,0.386c0.471-0.026,0.942-0.01,1.414-0.002c0.549,0.009,0.896,0.347,0.934,0.895
		c0.006,0.089,0.003,0.18,0.003,0.27c0,8.57,0.001,17.141-0.001,25.71c-0.001,2.187-1.432,3.98-3.561,4.462
		c-0.324,0.071-0.666,0.104-1,0.104c-4.263,0.009-8.524,0.009-12.788,0.005c-2.575-0.003-4.566-1.992-4.566-4.561
		c-0.002-8.594-0.001-17.187,0-25.778c0-0.789,0.31-1.103,1.092-1.107C28.161,27.587,28.687,27.59,29.275,27.59z M46.641,29.398
		c-6.109,0-12.191,0-18.294,0c0,0.159,0,0.293,0,0.427c0,3.555,0,7.109,0,10.664c0,4.688-0.002,9.376,0.002,14.063
		c0.002,1.452,1.176,2.671,2.604,2.673c4.363,0.012,8.726,0.012,13.087,0.002c1.418-0.004,2.611-1.215,2.613-2.634
		c0.005-8.309,0.002-16.619,0-24.928C46.652,29.587,46.646,29.509,46.641,29.398z M43.91,27.569c0-3.275,0-6.529,0-9.779
		c-4.294,0-8.559,0-12.831,0c0,3.271,0,6.517,0,9.779C35.367,27.569,39.633,27.569,43.91,27.569z"/>
	<path fill="#BCBCBC" d="M37.467,53.266c-1.042,0-2.083,0.008-3.125-0.004c-0.441-0.006-0.758-0.305-0.832-0.732
		c-0.073-0.422,0.14-0.82,0.535-0.975c0.122-0.047,0.261-0.063,0.392-0.064c2.039-0.004,4.077-0.006,6.116-0.001
		c0.565,0.002,0.94,0.356,0.946,0.866c0.007,0.537-0.364,0.906-0.942,0.91C39.527,53.271,38.498,53.268,37.467,53.266L37.467,53.266
		z"/>
	<path fill="#BCBCBC" d="M35.283,22.666c0,0.661,0.001,1.321-0.001,1.982c-0.001,0.562-0.372,0.972-0.881,0.98
		c-0.526,0.007-0.91-0.402-0.912-0.991c-0.004-0.962-0.001-1.925,0-2.888c0-0.358-0.006-0.716,0.001-1.075
		c0.013-0.577,0.374-0.951,0.905-0.951c0.532,0.001,0.884,0.379,0.887,0.96C35.285,21.345,35.282,22.005,35.283,22.666z"/>
	<path fill="#BCBCBC" d="M41.5,22.692c0,0.649,0.005,1.298-0.002,1.947c-0.006,0.598-0.381,1.003-0.902,0.99
		c-0.515-0.013-0.879-0.414-0.88-0.983c-0.003-1.31-0.003-2.619,0-3.928c0.001-0.609,0.347-0.991,0.89-0.994
		c0.543-0.002,0.889,0.37,0.897,0.988c0.007,0.66,0.002,1.32,0.002,1.98C41.503,22.692,41.5,22.692,41.5,22.692z"/>
</g>
</svg>
