<?xml version="1.0" encoding="utf-8"?>
<!-- Generator: Adobe Illustrator 16.0.0, SVG Export Plug-In . SVG Version: 6.00 Build 0)  -->
<!DOCTYPE svg PUBLIC "-//W3C//DTD SVG 1.1//EN" "http://www.w3.org/Graphics/SVG/1.1/DTD/svg11.dtd">
<svg version="1.1" id="Layer_1" xmlns="http://www.w3.org/2000/svg" xmlns:xlink="http://www.w3.org/1999/xlink" x="0px" y="0px"
	 width="75px" height="75px" viewBox="0 0 75 75" enable-background="new 0 0 75 75" xml:space="preserve">
<g>
	<g>
		<g>
			<circle fill="#27A8CC" cx="37.5" cy="37.666" r="35"/>
			<path fill="#27A8CC" d="M37.5,73.166c-19.575,0-35.5-15.924-35.5-35.5c0-19.574,15.925-35.5,35.5-35.5
				c19.574,0,35.5,15.926,35.5,35.5C73,57.242,57.074,73.166,37.5,73.166z M37.5,3.166C18.477,3.166,3,18.643,3,37.666
				s15.477,34.5,34.5,34.5S72,56.689,72,37.666S56.523,3.166,37.5,3.166z"/>
		</g>
		<g>
			<path fill="#27A8CC" d="M37.5,4.096c18.512,0,33.57,15.06,33.57,33.57c0,18.512-15.059,33.57-33.57,33.57
				S3.929,56.178,3.929,37.666C3.929,19.155,18.987,4.096,37.5,4.096 M37.5,2.666c-19.33,0-35,15.67-35,35s15.67,35,35,35
				c19.328,0,35-15.67,35-35S56.828,2.666,37.5,2.666L37.5,2.666z"/>
			<path fill="#27A8CC" d="M37.5,73.166c-19.575,0-35.5-15.924-35.5-35.5c0-19.574,15.925-35.5,35.5-35.5
				c19.574,0,35.5,15.926,35.5,35.5C73,57.242,57.074,73.166,37.5,73.166z M37.5,3.166C18.477,3.166,3,18.643,3,37.666
				s15.477,34.5,34.5,34.5S72,56.689,72,37.666S56.523,3.166,37.5,3.166z M37.5,71.736c-18.787,0-34.071-15.283-34.071-34.07
				c0-18.786,15.284-34.07,34.071-34.07c18.785,0,34.07,15.284,34.07,34.07C71.57,56.453,56.285,71.736,37.5,71.736z"/>
		</g>
	</g>
	<g>
		<g>
			<path fill="#FFFFFF" d="M44.782,52.115c-0.982-0.114-1.473-0.761-1.45-1.688c0.043-1.615-0.005-3.231,0.02-4.848
				c0.027-1.961,0.943-3.412,2.634-4.381c0.183-0.104,0.246-0.209,0.241-0.41c-0.012-0.534-0.013-1.069-0.002-1.604
				c0.018-0.909,0.404-1.6,1.237-2c0.182-0.088,0.225-0.199,0.225-0.383c-0.005-4.646,0.013-9.293-0.011-13.938
				c-0.015-2.801-2.217-4.868-5.018-4.775c-2.272,0.075-4.371,2.056-4.432,4.322c-0.072,2.778-0.035,5.56-0.045,8.339
				c-0.006,1.889-0.018,3.778-0.016,5.667c0.006,5.3,0.02,10.598,0.021,15.897c0,2.782-1.559,5.021-4.109,5.941
				c-3.631,1.308-7.668-1.231-8.052-5.073c-0.058-0.589-0.058-1.186-0.058-1.778c-0.004-4.265-0.004-8.528,0.005-12.794
				c0.001-0.267-0.063-0.409-0.32-0.541c-0.708-0.365-1.084-0.982-1.116-1.778c-0.024-0.581-0.011-1.165-0.002-1.746
				c0.002-0.196-0.045-0.315-0.233-0.422c-1.781-1.005-2.658-2.548-2.671-4.584c-0.012-1.568,0.003-3.137-0.005-4.706
				c-0.003-0.542,0.158-0.991,0.591-1.345c0.096-0.076,0.138-0.264,0.139-0.401c0.009-1.828,0.008-3.656,0.007-5.484
				c0-0.656,0.214-0.873,0.876-0.873c2.293-0.001,4.585-0.001,6.878-0.001c0.603,0,0.832,0.23,0.832,0.843
				c0.001,1.842,0.004,3.684-0.004,5.525c-0.001,0.206,0.047,0.341,0.222,0.475c0.325,0.248,0.498,0.599,0.499,1.017
				c0.002,1.794,0.052,3.59-0.017,5.382c-0.068,1.82-0.981,3.188-2.551,4.103c-0.242,0.141-0.323,0.285-0.317,0.554
				c0.013,0.605,0.021,1.213-0.026,1.815c-0.062,0.768-0.479,1.332-1.166,1.671c-0.203,0.099-0.267,0.21-0.267,0.431
				c0.006,4.659-0.006,9.314,0.009,13.972c0.008,2.459,1.959,4.536,4.376,4.705c2.508,0.178,4.698-1.578,5.071-4.067
				c0.038-0.256,0.037-0.521,0.037-0.782c0.003-9.814,0.005-19.628,0.003-29.442c0-3.056,2.207-5.702,5.114-6.122
				c3.131-0.452,6.014,1.352,6.848,4.323c0.162,0.576,0.25,1.191,0.252,1.788c0.021,4.61,0.016,9.221,0.008,13.831
				c-0.002,0.245,0.074,0.363,0.295,0.479c0.73,0.384,1.119,1.01,1.145,1.837c0.018,0.569,0.012,1.142,0.002,1.711
				c-0.005,0.198,0.049,0.312,0.234,0.415c1.772,1.013,2.66,2.545,2.658,4.59c-0.002,1.508-0.002,3.018,0,4.525
				c0,1.164-0.295,1.545-1.453,1.824c0,0.144,0,0.296,0,0.449c0,1.734,0,3.47-0.001,5.204c0,0.571-0.231,0.802-0.794,0.802
				c-1.842,0-3.684,0.002-5.525,0c-0.578-0.001-0.819-0.244-0.819-0.822c-0.002-1.735,0-3.471,0-5.207
				C44.782,52.418,44.782,52.277,44.782,52.115z M23.741,18.095c0,1.728,0,3.418,0,5.11c1.968,0,3.897,0,5.825,0
				c0-1.715,0-3.405,0-5.11C27.616,18.095,25.695,18.095,23.741,18.095z M50.537,57.212c0-1.718,0-3.409,0-5.092
				c-1.477,0-2.928,0-4.377,0c0,1.712,0,3.394,0,5.092C47.625,57.212,49.068,57.212,50.537,57.212z"/>
			<path fill="#FFFFFF" d="M32.094,59.104c-3.353,0.001-6.236-2.578-6.564-5.87c-0.061-0.614-0.061-1.231-0.061-1.828
				c-0.004-4.265-0.004-8.529,0.005-12.795l-0.05-0.096c-0.854-0.44-1.347-1.224-1.387-2.202c-0.021-0.525-0.014-1.053-0.005-1.578
				l0.003-0.195c-1.906-1.066-2.891-2.754-2.904-4.996c-0.006-0.848-0.005-1.696-0.004-2.545c0.002-0.721,0.002-1.441-0.001-2.162
				c-0.004-0.737,0.249-1.305,0.774-1.734c-0.036-1.844-0.037-3.67-0.038-5.498c0-0.937,0.437-1.373,1.376-1.373l6.878-0.001
				c0.884,0,1.332,0.452,1.332,1.343l0.001,0.849c0,1.56,0.002,3.119-0.005,4.679c0.472,0.416,0.72,0.918,0.721,1.488
				c0.001,0.516,0.005,1.032,0.01,1.549c0.011,1.262,0.022,2.566-0.026,3.854c-0.072,1.93-1.041,3.49-2.799,4.516l-0.069,0.111
				c0.013,0.631,0.021,1.249-0.028,1.865c-0.073,0.918-0.586,1.656-1.443,2.079l0.014,5.572c0,2.794-0.001,5.587,0.008,8.38
				c0.007,2.17,1.762,4.058,3.91,4.208c2.29,0.165,4.211-1.423,4.543-3.643c0.033-0.225,0.031-0.459,0.031-0.688
				c0.003-9.834,0.005-19.647,0.003-29.462c0-3.315,2.383-6.161,5.543-6.616c0.341-0.05,0.687-0.075,1.026-0.075
				c3.014,0,5.575,1.912,6.374,4.757c0.175,0.622,0.269,1.287,0.271,1.922c0.021,4.611,0.016,9.223,0.008,13.834
				c0.92,0.505,1.408,1.287,1.439,2.3c0.018,0.577,0.012,1.158,0.002,1.735c1.916,1.076,2.895,2.768,2.893,4.996
				c-0.002,1.508-0.002,3.018,0,4.524c0,1.259-0.376,1.856-1.453,2.204l-0.001,5.274c0,0.852-0.447,1.302-1.294,1.302h-5.526
				c-0.851-0.001-1.318-0.471-1.318-1.322v-5.241c-0.929-0.276-1.474-1.05-1.448-2.106c0.024-0.896,0.02-1.79,0.016-2.686
				c-0.004-0.719-0.007-1.438,0.004-2.158c0.029-2.109,1-3.727,2.885-4.807c-0.021-0.507-0.022-1.049-0.012-1.59
				c0.021-1.105,0.526-1.938,1.46-2.411l0.002-4.894c0.002-3.002,0.005-6.003-0.011-9.004c-0.013-2.439-1.877-4.28-4.337-4.28
				l-0.164,0.003c-2.051,0.067-3.896,1.859-3.948,3.836c-0.051,1.938-0.048,3.912-0.045,5.822c0.002,0.835,0.003,1.67,0,2.505
				l-0.006,1.699c-0.006,1.321-0.011,2.644-0.01,3.966l0.01,6.363c0.005,3.178,0.011,6.355,0.012,9.534
				c0,2.967-1.701,5.424-4.439,6.412C33.554,58.978,32.829,59.104,32.094,59.104z M22.904,17.275c0,0-0.042,0.066-0.042,0.328
				c0.001,1.828,0.002,3.658-0.007,5.486c-0.001,0.127-0.027,0.552-0.327,0.791c-0.282,0.23-0.405,0.516-0.402,0.95
				c0.003,0.724,0.003,1.446,0.001,2.169c-0.001,0.846-0.002,1.691,0.004,2.536c0.012,1.884,0.803,3.241,2.416,4.152
				c0.332,0.188,0.492,0.47,0.488,0.862l-0.003,0.199c-0.009,0.507-0.017,1.016,0.005,1.521c0.025,0.623,0.31,1.078,0.846,1.354
				c0.525,0.269,0.592,0.669,0.591,0.987c-0.009,4.265-0.009,8.527-0.005,12.792c0,0.573,0,1.165,0.055,1.729
				c0.279,2.786,2.725,4.97,5.57,4.969c0.619,0,1.23-0.106,1.814-0.317c2.367-0.854,3.779-2.898,3.779-5.471
				c-0.001-3.178-0.006-6.354-0.012-9.532l-0.01-6.365c-0.002-1.322,0.004-2.646,0.01-3.971l0.006-1.697
				c0.003-0.834,0.002-1.667,0-2.5c-0.002-1.917-0.006-3.899,0.045-5.852c0.066-2.477,2.363-4.724,4.915-4.809l0.197-0.003
				c3.027,0,5.321,2.269,5.337,5.276c0.016,3.002,0.013,6.004,0.011,9.008v4.932c0,0.146,0,0.588-0.507,0.833
				c-0.638,0.306-0.94,0.802-0.955,1.56c-0.011,0.527-0.01,1.056,0.002,1.583c0.009,0.382-0.152,0.662-0.495,0.855
				c-1.576,0.904-2.355,2.197-2.38,3.953c-0.011,0.714-0.008,1.427-0.004,2.14c0.004,0.904,0.008,1.81-0.016,2.715
				c-0.018,0.701,0.322,1.098,1.008,1.177l0.442,0.052l-0.002,6.093c0,0.305,0.018,0.322,0.32,0.323l1.841,0.001l3.684-0.001
				c0.202,0,0.253-0.039,0.253-0.039c0.001,0,0.041-0.053,0.041-0.263l0.001-6.047l0.383-0.093c0.931-0.224,1.07-0.399,1.07-1.338
				c-0.002-1.508-0.002-3.018,0-4.526c0.002-1.869-0.785-3.229-2.406-4.154c-0.335-0.188-0.496-0.47-0.486-0.862
				c0.01-0.558,0.016-1.121-0.002-1.683c-0.02-0.649-0.307-1.11-0.877-1.409c-0.388-0.205-0.565-0.499-0.563-0.927
				c0.008-4.606,0.013-9.216-0.008-13.825c-0.002-0.547-0.082-1.119-0.233-1.654c-0.753-2.685-3.424-4.375-6.295-3.965
				c-2.671,0.387-4.686,2.806-4.686,5.628c0.002,9.814,0,19.628-0.003,29.442c0,0.298-0.002,0.582-0.043,0.855
				c-0.41,2.737-2.805,4.687-5.601,4.493c-2.706-0.189-4.832-2.475-4.841-5.202c-0.009-2.795-0.008-5.59-0.008-8.384l-0.001-5.589
				c0-0.42,0.175-0.699,0.548-0.881c0.541-0.268,0.841-0.692,0.887-1.262c0.045-0.569,0.037-1.16,0.024-1.766
				c-0.01-0.449,0.171-0.766,0.566-0.996c1.468-0.854,2.242-2.096,2.302-3.688c0.049-1.265,0.037-2.558,0.026-3.808
				c-0.005-0.518-0.009-1.037-0.01-1.555c-0.001-0.263-0.1-0.465-0.302-0.62c-0.378-0.288-0.42-0.638-0.419-0.874
				c0.007-1.559,0.005-3.116,0.005-4.674l-0.001-0.85c0-0.242-0.045-0.299-0.046-0.299c0-0.001-0.055-0.044-0.286-0.044
				l-6.878,0.001C22.973,17.23,22.906,17.273,22.904,17.275L22.904,17.275z M51.037,57.712H45.66V51.62h5.377V57.712z M46.66,56.712
				h3.377V52.62H46.66V56.712z M30.066,23.705h-6.825v-6.11h6.825V23.705z M24.241,22.705h4.825v-4.11h-4.825V22.705z"/>
		</g>
	</g>
</g>
</svg>
