<?xml version="1.0" encoding="utf-8"?>
<!-- Generator: Adobe Illustrator 16.0.0, SVG Export Plug-In . SVG Version: 6.00 Build 0)  -->
<!DOCTYPE svg PUBLIC "-//W3C//DTD SVG 1.1//EN" "http://www.w3.org/Graphics/SVG/1.1/DTD/svg11.dtd">
<svg version="1.1" id="Layer_1" xmlns="http://www.w3.org/2000/svg" xmlns:xlink="http://www.w3.org/1999/xlink" x="0px" y="0px"
	 width="75px" height="75px" viewBox="0 0 75 75" enable-background="new 0 0 75 75" xml:space="preserve">
<g>
	<g>
		<g>
			<circle fill="#FFFFFF" cx="37.5" cy="37.5" r="35"/>
			<path fill="#BCBCBC" d="M37.5,73C17.925,73,2,57.076,2,37.5C2,17.926,17.925,2,37.5,2C57.074,2,73,17.926,73,37.5
				C73,57.076,57.074,73,37.5,73z M37.5,3C18.477,3,3,18.477,3,37.5C3,56.523,18.477,72,37.5,72C56.523,72,72,56.523,72,37.5
				C72,18.477,56.523,3,37.5,3z"/>
		</g>
		<g>
			<path fill="#BCBCBB" d="M37.5,3.93c18.512,0,33.57,15.06,33.57,33.57c0,18.512-15.059,33.57-33.57,33.57
				c-18.511,0-33.571-15.059-33.571-33.57C3.929,18.989,18.987,3.93,37.5,3.93 M37.5,2.5c-19.33,0-35,15.67-35,35s15.67,35,35,35
				c19.328,0,35-15.67,35-35S56.828,2.5,37.5,2.5L37.5,2.5z"/>
			<path fill="#BCBCBC" d="M37.5,73C17.925,73,2,57.076,2,37.5C2,17.926,17.925,2,37.5,2C57.074,2,73,17.926,73,37.5
				C73,57.076,57.074,73,37.5,73z M37.5,3C18.477,3,3,18.477,3,37.5C3,56.523,18.477,72,37.5,72C56.523,72,72,56.523,72,37.5
				C72,18.477,56.523,3,37.5,3z M37.5,71.57c-18.787,0-34.071-15.283-34.071-34.07c0-18.786,15.284-34.07,34.071-34.07
				c18.785,0,34.07,15.284,34.07,34.07C71.57,56.287,56.285,71.57,37.5,71.57z M37.5,4.43C19.265,4.43,4.429,19.265,4.429,37.5
				c0,18.236,14.836,33.07,33.071,33.07c18.234,0,33.07-14.834,33.07-33.07C70.57,19.265,55.734,4.43,37.5,4.43z"/>
		</g>
	</g>
</g>
<g>
	<path fill-rule="evenodd" clip-rule="evenodd" fill="#BCBCBC" d="M37.562,17.088c9.435,0.028,17.093,7.708,17.026,17.075
		c-0.068,9.431-7.723,17.059-17.105,17.047c-9.383-0.011-17.057-7.69-17.07-17.081C20.398,24.69,28.075,17.062,37.562,17.088z
		 M47.742,34.065c-0.029-5.665-4.594-10.182-10.277-10.17c-5.665,0.012-10.231,4.593-10.209,10.239
		c0.022,5.701,4.664,10.305,10.323,10.241C43.248,44.31,47.773,39.721,47.742,34.065z"/>
	<path fill-rule="evenodd" clip-rule="evenodd" fill="#BCBCBC" d="M42.59,54.635c1.914,0,3.695-0.004,5.477,0.003
		c1.137,0.002,1.365,0.236,1.379,1.399c0.008,0.601,0,1.203,0,1.875c-7.969,0-15.862,0-23.872,0c0-0.801-0.042-1.609,0.013-2.413
		c0.046-0.673,0.529-0.874,1.157-0.869c1.547,0.015,3.092,0.005,4.639,0.005c0.297,0,0.593,0,0.989,0c0-0.825,0-1.568,0-2.421
		c3.452,0.896,6.803,0.905,10.219,0.009C42.59,53.04,42.59,53.762,42.59,54.635z"/>
	<path fill-rule="evenodd" clip-rule="evenodd" fill="#BCBCBC" d="M31.081,32.012c1.751,0.907,2.928,0.82,3.829-0.247
		c0.874-1.034,0.79-2.193-0.267-3.704c2.441-1.47,5.939-0.765,8.025,1.616c2.102,2.399,2.193,6.137,0.211,8.641
		c-2.076,2.624-5.675,3.384-8.59,1.813C31.36,38.553,30.018,35.209,31.081,32.012z"/>
</g>
</svg>
