<?xml version="1.0" encoding="utf-8"?>
<!-- Generator: Adobe Illustrator 16.0.0, SVG Export Plug-In . SVG Version: 6.00 Build 0)  -->
<!DOCTYPE svg PUBLIC "-//W3C//DTD SVG 1.1//EN" "http://www.w3.org/Graphics/SVG/1.1/DTD/svg11.dtd">
<svg version="1.1" id="Layer_1" xmlns="http://www.w3.org/2000/svg" xmlns:xlink="http://www.w3.org/1999/xlink" x="0px" y="0px"
	 width="75px" height="75px" viewBox="0 0 75 75" enable-background="new 0 0 75 75" xml:space="preserve">
<g>
	<g>
		<g>
			<circle fill="#FFFFFF" cx="37.5" cy="37.5" r="35"/>
			<path fill="#BCBCBC" d="M37.5,73C17.925,73,2,57.076,2,37.5C2,17.926,17.925,2,37.5,2C57.074,2,73,17.926,73,37.5
				C73,57.076,57.074,73,37.5,73z M37.5,3C18.477,3,3,18.477,3,37.5S18.477,72,37.5,72S72,56.523,72,37.5S56.523,3,37.5,3z"/>
		</g>
		<g>
			<path fill="#BCBCBB" d="M37.5,3.93c18.512,0,33.57,15.06,33.57,33.57c0,18.512-15.059,33.57-33.57,33.57S3.929,56.012,3.929,37.5
				C3.929,18.989,18.987,3.93,37.5,3.93 M37.5,2.5c-19.33,0-35,15.67-35,35s15.67,35,35,35c19.328,0,35-15.67,35-35
				S56.828,2.5,37.5,2.5L37.5,2.5z"/>
			<path fill="#BCBCBC" d="M37.5,73C17.925,73,2,57.076,2,37.5C2,17.926,17.925,2,37.5,2C57.074,2,73,17.926,73,37.5
				C73,57.076,57.074,73,37.5,73z M37.5,3C18.477,3,3,18.477,3,37.5S18.477,72,37.5,72S72,56.523,72,37.5S56.523,3,37.5,3z
				 M37.5,71.57c-18.787,0-34.071-15.283-34.071-34.07c0-18.786,15.284-34.07,34.071-34.07c18.785,0,34.07,15.284,34.07,34.07
				C71.57,56.287,56.285,71.57,37.5,71.57z M37.5,4.43C19.265,4.43,4.429,19.265,4.429,37.5c0,18.236,14.836,33.07,33.071,33.07
				c18.234,0,33.07-14.834,33.07-33.07C70.57,19.265,55.734,4.43,37.5,4.43z"/>
		</g>
	</g>
	<g>
		<g>
			<path fill="#BCBCBC" d="M44.782,51.949c-0.982-0.114-1.473-0.761-1.45-1.688c0.043-1.615-0.005-3.231,0.02-4.848
				c0.027-1.961,0.943-3.412,2.634-4.381c0.183-0.104,0.246-0.209,0.241-0.41c-0.012-0.534-0.013-1.069-0.002-1.604
				c0.018-0.909,0.404-1.6,1.237-2c0.182-0.088,0.225-0.199,0.225-0.383c-0.005-4.646,0.013-9.293-0.011-13.938
				c-0.015-2.801-2.217-4.868-5.018-4.775c-2.272,0.075-4.371,2.056-4.432,4.322c-0.072,2.778-0.035,5.56-0.045,8.339
				c-0.006,1.889-0.018,3.778-0.016,5.667c0.006,5.3,0.02,10.598,0.021,15.897c0,2.782-1.559,5.021-4.109,5.941
				c-3.631,1.308-7.668-1.231-8.052-5.073c-0.058-0.589-0.058-1.186-0.058-1.778c-0.004-4.265-0.004-8.528,0.005-12.794
				c0.001-0.267-0.063-0.409-0.32-0.541c-0.708-0.365-1.084-0.982-1.116-1.778c-0.024-0.581-0.011-1.165-0.002-1.746
				c0.002-0.196-0.045-0.315-0.233-0.422c-1.781-1.005-2.658-2.548-2.671-4.584c-0.012-1.568,0.003-3.137-0.005-4.706
				c-0.003-0.542,0.158-0.991,0.591-1.345c0.096-0.076,0.138-0.264,0.139-0.401c0.009-1.828,0.008-3.656,0.007-5.484
				c0-0.656,0.214-0.873,0.876-0.873c2.293-0.001,4.585-0.001,6.878-0.001c0.603,0,0.832,0.23,0.832,0.843
				c0.001,1.842,0.004,3.684-0.004,5.525c-0.001,0.206,0.047,0.341,0.222,0.475c0.325,0.248,0.498,0.599,0.499,1.017
				c0.002,1.794,0.052,3.59-0.017,5.382c-0.068,1.82-0.981,3.188-2.551,4.103c-0.242,0.141-0.323,0.285-0.317,0.554
				c0.013,0.605,0.021,1.213-0.026,1.815c-0.062,0.768-0.479,1.332-1.166,1.671c-0.203,0.099-0.267,0.21-0.267,0.431
				c0.006,4.659-0.006,9.314,0.009,13.972c0.008,2.459,1.959,4.536,4.376,4.705c2.508,0.178,4.698-1.578,5.071-4.067
				c0.038-0.256,0.037-0.521,0.037-0.782c0.003-9.814,0.005-19.628,0.003-29.442c0-3.056,2.207-5.702,5.114-6.122
				c3.131-0.452,6.014,1.352,6.848,4.323c0.162,0.576,0.25,1.191,0.252,1.788c0.021,4.61,0.016,9.221,0.008,13.831
				c-0.002,0.245,0.074,0.363,0.295,0.479c0.73,0.384,1.119,1.01,1.145,1.837c0.018,0.569,0.012,1.142,0.002,1.711
				c-0.005,0.198,0.049,0.312,0.234,0.415c1.772,1.013,2.66,2.545,2.658,4.59c-0.002,1.508-0.002,3.018,0,4.525
				c0,1.164-0.295,1.545-1.453,1.824c0,0.144,0,0.296,0,0.449c0,1.734,0,3.47-0.001,5.204c0,0.571-0.231,0.802-0.794,0.802
				c-1.842,0-3.684,0.002-5.525,0c-0.578-0.001-0.819-0.244-0.819-0.822c-0.002-1.735,0-3.471,0-5.207
				C44.782,52.252,44.782,52.111,44.782,51.949z M23.741,17.929c0,1.728,0,3.418,0,5.11c1.968,0,3.897,0,5.825,0
				c0-1.715,0-3.405,0-5.11C27.616,17.929,25.695,17.929,23.741,17.929z M50.537,57.046c0-1.718,0-3.409,0-5.092
				c-1.477,0-2.928,0-4.377,0c0,1.712,0,3.394,0,5.092C47.625,57.046,49.068,57.046,50.537,57.046z"/>
			<path fill="#BCBCBC" d="M32.093,58.938c-3.352,0.001-6.235-2.578-6.564-5.87c-0.06-0.614-0.06-1.231-0.06-1.828
				c-0.004-4.265-0.004-8.529,0.005-12.795l-0.049-0.096c-0.854-0.441-1.347-1.223-1.387-2.203
				c-0.022-0.524-0.014-1.052-0.005-1.578l0.003-0.196c-1.906-1.066-2.89-2.754-2.904-4.996c-0.006-0.848-0.005-1.696-0.003-2.545
				c0.001-0.72,0.002-1.441-0.001-2.162c-0.004-0.738,0.25-1.305,0.774-1.734c-0.036-1.844-0.037-3.671-0.038-5.498
				c0-0.937,0.437-1.374,1.376-1.374l6.878-0.001c0.884,0,1.332,0.452,1.332,1.343l0,0.849c0.001,1.56,0.002,3.119-0.004,4.679
				c0.472,0.417,0.719,0.918,0.721,1.488c0,0.516,0.005,1.032,0.01,1.548c0.011,1.262,0.022,2.566-0.027,3.854
				c-0.072,1.93-1.04,3.491-2.799,4.516l-0.069,0.111c0.013,0.631,0.021,1.25-0.028,1.865c-0.074,0.919-0.586,1.657-1.443,2.08
				l0.014,5.572c-0.001,2.794-0.001,5.587,0.007,8.38c0.007,2.17,1.761,4.058,3.911,4.208c2.29,0.165,4.21-1.423,4.542-3.643
				c0.034-0.225,0.032-0.459,0.032-0.688c0.003-9.834,0.005-19.647,0.003-29.462c0-3.316,2.383-6.161,5.543-6.617
				c0.341-0.049,0.687-0.075,1.026-0.075c3.014,0,5.575,1.912,6.374,4.757c0.175,0.622,0.269,1.286,0.271,1.922
				c0.021,4.611,0.016,9.222,0.008,13.833c0.92,0.505,1.408,1.288,1.439,2.3c0.018,0.577,0.012,1.158,0.002,1.735
				c1.916,1.076,2.895,2.768,2.893,4.996c-0.002,1.508-0.002,3.018,0,4.524c0,1.259-0.376,1.856-1.453,2.204l-0.001,5.274
				c0,0.852-0.447,1.302-1.294,1.302h-5.526c-0.851-0.001-1.318-0.471-1.318-1.322v-5.241c-0.929-0.276-1.474-1.05-1.448-2.106
				c0.024-0.896,0.02-1.79,0.016-2.686c-0.004-0.719-0.007-1.438,0.004-2.158c0.029-2.109,1-3.727,2.885-4.807
				c-0.021-0.507-0.022-1.049-0.012-1.59c0.021-1.105,0.526-1.938,1.46-2.411l0.002-4.894c0.002-3.001,0.005-6.002-0.011-9.003
				c-0.013-2.44-1.877-4.281-4.337-4.281l-0.164,0.002c-2.051,0.068-3.896,1.86-3.948,3.836c-0.051,1.938-0.048,3.913-0.045,5.823
				c0.002,0.835,0.003,1.67,0,2.505l-0.006,1.699c-0.006,1.322-0.011,2.644-0.01,3.965l0.01,6.364
				c0.005,3.178,0.011,6.355,0.012,9.534c0,2.967-1.701,5.424-4.44,6.412C33.554,58.812,32.829,58.938,32.093,58.938z M22.904,17.11
				c0.001,0-0.042,0.065-0.042,0.328c0.001,1.829,0.002,3.658-0.007,5.487c-0.001,0.126-0.027,0.551-0.327,0.79
				c-0.283,0.231-0.405,0.517-0.402,0.951c0.003,0.724,0.002,1.446,0.001,2.169c-0.001,0.845-0.003,1.691,0.003,2.536
				c0.012,1.884,0.802,3.242,2.417,4.152c0.332,0.188,0.492,0.47,0.488,0.862l-0.003,0.2c-0.008,0.506-0.017,1.015,0.004,1.521
				c0.025,0.623,0.31,1.079,0.846,1.355c0.526,0.269,0.592,0.669,0.591,0.987c-0.009,4.265-0.009,8.527-0.005,12.792
				c0,0.573,0,1.165,0.055,1.729c0.278,2.786,2.725,4.97,5.569,4.969c0.62,0,1.23-0.106,1.815-0.317
				c2.366-0.854,3.779-2.898,3.779-5.471c-0.001-3.178-0.006-6.354-0.012-9.532l-0.01-6.365c-0.001-1.323,0.004-2.647,0.009-3.971
				l0.006-1.698c0.003-0.833,0.001-1.667,0-2.5c-0.003-1.917-0.006-3.899,0.044-5.851c0.066-2.478,2.363-4.724,4.915-4.809
				l0.197-0.003c3.027,0,5.321,2.268,5.337,5.276c0.016,3.002,0.013,6.005,0.011,9.008v4.931c0,0.146,0,0.588-0.507,0.833
				c-0.638,0.306-0.94,0.802-0.955,1.56c-0.011,0.527-0.01,1.056,0.002,1.583c0.009,0.382-0.152,0.662-0.495,0.855
				c-1.576,0.904-2.355,2.197-2.38,3.953c-0.011,0.714-0.008,1.427-0.004,2.14c0.004,0.904,0.008,1.81-0.016,2.715
				c-0.018,0.701,0.322,1.098,1.008,1.177l0.442,0.052l-0.002,6.093c0,0.305,0.018,0.322,0.32,0.323l1.841,0.001l3.684-0.001
				c0.202,0,0.253-0.039,0.253-0.039c0.001,0,0.041-0.053,0.041-0.263l0.001-6.047l0.383-0.093c0.931-0.224,1.07-0.399,1.07-1.338
				c-0.002-1.508-0.002-3.018,0-4.526c0.002-1.869-0.785-3.229-2.406-4.154c-0.335-0.188-0.496-0.47-0.486-0.862
				c0.01-0.558,0.016-1.121-0.002-1.683c-0.02-0.649-0.307-1.11-0.877-1.41c-0.388-0.204-0.565-0.499-0.563-0.926
				c0.008-4.606,0.013-9.216-0.008-13.825c-0.002-0.547-0.082-1.119-0.233-1.655c-0.753-2.684-3.424-4.374-6.295-3.964
				c-2.671,0.386-4.686,2.805-4.686,5.627c0.002,9.814,0,19.628-0.003,29.442c0,0.298-0.002,0.582-0.042,0.855
				c-0.41,2.737-2.805,4.687-5.601,4.493c-2.706-0.189-4.832-2.475-4.841-5.202c-0.009-2.795-0.008-5.59-0.007-8.384l-0.001-5.589
				c0-0.42,0.174-0.7,0.548-0.881c0.541-0.267,0.84-0.692,0.886-1.261s0.038-1.16,0.025-1.765c-0.01-0.45,0.17-0.767,0.566-0.997
				c1.468-0.854,2.242-2.096,2.302-3.688c0.048-1.264,0.037-2.557,0.026-3.807c-0.005-0.519-0.009-1.037-0.01-1.556
				c0-0.262-0.1-0.465-0.302-0.62c-0.377-0.289-0.419-0.637-0.418-0.875c0.007-1.558,0.005-3.116,0.004-4.673l0-0.849
				c0-0.243-0.045-0.299-0.045-0.3s-0.055-0.043-0.287-0.043l-6.878,0.001C22.973,17.064,22.907,17.108,22.904,17.11L22.904,17.11z
				 M51.037,57.546H45.66v-6.092h5.377V57.546z M46.66,56.546h3.377v-4.092H46.66V56.546z M30.066,23.539h-6.825v-6.11h6.825V23.539
				z M24.241,22.539h4.825v-4.11h-4.825V22.539z"/>
		</g>
	</g>
</g>
</svg>
