<?xml version="1.0" encoding="utf-8"?>
<!-- Generator: Adobe Illustrator 16.0.0, SVG Export Plug-In . SVG Version: 6.00 Build 0)  -->
<!DOCTYPE svg PUBLIC "-//W3C//DTD SVG 1.1//EN" "http://www.w3.org/Graphics/SVG/1.1/DTD/svg11.dtd">
<svg version="1.1" id="Layer_1" xmlns="http://www.w3.org/2000/svg" xmlns:xlink="http://www.w3.org/1999/xlink" x="0px" y="0px"
	 width="75px" height="75px" viewBox="0 0 75 75" enable-background="new 0 0 75 75" xml:space="preserve">
<g>
	<circle fill="#27A8CC" cx="37.5" cy="37.5" r="35"/>
	<g>
		<path fill="#27A8CC" d="M37.5,3.929c18.512,0,33.57,15.06,33.57,33.571c0,18.512-15.059,33.57-33.57,33.57
			c-18.511,0-33.571-15.059-33.571-33.57C3.929,18.989,18.988,3.929,37.5,3.929 M37.5,2.5c-19.33,0-35,15.67-35,35s15.67,35,35,35
			c19.329,0,35-15.67,35-35S56.829,2.5,37.5,2.5L37.5,2.5z"/>
		<path fill="#27A8CC" d="M37.5,73C17.925,73,2,57.075,2,37.5C2,17.925,17.925,2,37.5,2C57.075,2,73,17.925,73,37.5
			C73,57.075,57.075,73,37.5,73z M37.5,3C18.477,3,3,18.477,3,37.5S18.477,72,37.5,72S72,56.523,72,37.5S56.523,3,37.5,3z
			 M37.5,71.57c-18.787,0-34.071-15.284-34.071-34.07c0-18.787,15.284-34.071,34.071-34.071c18.786,0,34.07,15.284,34.07,34.071
			C71.57,56.286,56.286,71.57,37.5,71.57z"/>
	</g>
</g>
<g>
	<path fill="#FFFFFF" d="M31.095,20.097c0.143-1.125,0.143-1.125,1.278-1.125c0.46,0,0.921,0,1.444,0
		c0-0.593,0.014-1.145-0.004-1.694c-0.015-0.437,0.176-0.614,0.607-0.613c2.057,0.007,4.114,0.008,6.171-0.001
		c0.437-0.001,0.62,0.184,0.609,0.615c-0.013,0.539-0.003,1.079-0.003,1.694c0.635,0,1.23,0,1.826,0c0.811,0,0.81,0,0.838,0.814
		c0.005,0.089,0.021,0.178,0.035,0.31c0.943,0,1.869,0.005,2.791-0.001c1.049-0.007,1.537,0.467,1.537,1.51
		c0,11.725,0,23.451,0,35.175c0,1.053-0.494,1.555-1.56,1.555c-6.108,0.004-12.22,0.004-18.329,0.002
		c-1.053-0.002-1.563-0.523-1.563-1.564c-0.001-11.693-0.001-23.389,0-35.082c0-1.142,0.453-1.591,1.604-1.592
		C29.274,20.096,30.169,20.097,31.095,20.097z M47.126,39.229c0,0-0.002,0-0.004,0c0-5.506,0.001-11.013,0-16.519
		c0-0.99-0.422-1.422-1.404-1.422c-5.459-0.002-10.92,0-16.379,0.003c-1.045,0.001-1.459,0.424-1.459,1.464
		c0,10.951,0.002,21.902,0.003,32.853c0,1.098,0.419,1.522,1.509,1.522c5.397,0.004,10.795,0.007,16.193,0.009
		c1.133,0,1.541-0.404,1.541-1.531C47.127,50.148,47.126,44.688,47.126,39.229z"/>
	<path fill="#FFFFFF" d="M37.526,31.367c2.46,0,4.919-0.001,7.378,0c0.896,0.001,1.271,0.371,1.273,1.264
		c0.004,1.5,0.004,3.001,0,4.501c-0.004,0.838-0.387,1.224-1.221,1.224c-4.966,0.004-9.932,0.002-14.897,0
		c-0.827,0-1.232-0.396-1.237-1.218c-0.008-1.516-0.007-3.032,0-4.548c0.005-0.829,0.403-1.221,1.231-1.221
		C32.545,31.365,35.035,31.367,37.526,31.367z"/>
	<path fill="#FFFFFF" d="M37.527,55.911c-2.461,0-4.921,0-7.38,0c-0.952,0-1.324-0.368-1.325-1.313c-0.004-1.455-0.004-2.91,0-4.363
		c0.002-0.938,0.383-1.313,1.331-1.313c4.904,0,9.808,0,14.712,0c0.953,0,1.311,0.358,1.313,1.32
		c0.004,1.483,0.006,2.971,0.002,4.454c-0.002,0.836-0.387,1.213-1.228,1.215C42.477,55.912,40.002,55.91,37.527,55.911
		L37.527,55.911L37.527,55.911z"/>
	<path fill="#FFFFFF" d="M37.485,40.152c2.492,0,4.982,0,7.473,0.002c0.837,0,1.218,0.377,1.22,1.214
		c0.006,1.517,0.006,3.032,0.002,4.549c-0.002,0.832-0.389,1.211-1.228,1.211c-4.966,0.001-9.932,0-14.898-0.001
		c-0.825,0-1.228-0.391-1.231-1.217c-0.006-1.516-0.007-3.031,0-4.547c0.005-0.826,0.405-1.209,1.237-1.211
		C32.534,40.152,35.01,40.152,37.485,40.152z"/>
</g>
</svg>
