<?xml version="1.0" encoding="utf-8"?>
<!-- Generator: Adobe Illustrator 16.0.0, SVG Export Plug-In . SVG Version: 6.00 Build 0)  -->
<!DOCTYPE svg PUBLIC "-//W3C//DTD SVG 1.1//EN" "http://www.w3.org/Graphics/SVG/1.1/DTD/svg11.dtd">
<svg version="1.1" id="Layer_1" xmlns="http://www.w3.org/2000/svg" xmlns:xlink="http://www.w3.org/1999/xlink" x="0px" y="0px"
	 width="75px" height="75px" viewBox="0 0 75 75" enable-background="new 0 0 75 75" xml:space="preserve">
<g>
	<circle fill="#FFFFFF" cx="37.5" cy="37.5" r="35"/>
	<g>
		<path fill="#27A8CC" d="M37.5,3.929c18.512,0,33.57,15.06,33.57,33.571c0,18.512-15.059,33.57-33.57,33.57
			c-18.511,0-33.57-15.06-33.57-33.57S18.989,3.929,37.5,3.929 M37.5,2.5c-19.331,0-35,15.67-35,35s15.669,35,35,35
			c19.329,0,35-15.67,35-35S56.829,2.5,37.5,2.5L37.5,2.5z"/>
		<path fill="#27A8CC" d="M37.5,73C17.926,73,2,57.075,2,37.5C2,17.925,17.926,2,37.5,2C57.075,2,73,17.925,73,37.5
			C73,57.075,57.075,73,37.5,73z M37.5,3C18.477,3,3,18.477,3,37.5S18.477,72,37.5,72S72,56.523,72,37.5S56.523,3,37.5,3z
			 M37.5,71.57c-18.786,0-34.07-15.284-34.07-34.07c0-18.787,15.284-34.071,34.07-34.071S71.57,18.713,71.57,37.5
			C71.57,56.286,56.286,71.57,37.5,71.57z"/>
	</g>
</g>
<g>
	<path fill-rule="evenodd" clip-rule="evenodd" fill="#FFFFFF" d="M25.939,37.501c0-5.741-0.002-11.481,0.002-17.222
		c0-1.289,0.508-2.307,1.703-2.865c0.42-0.195,0.921-0.302,1.386-0.304c5.65-0.02,11.303-0.017,16.954-0.011
		c1.76,0.002,3.026,1.263,3.075,3.028c0.001,0.067,0,0.134,0,0.201c0,11.447,0,22.895,0.002,34.342
		c0.001,1.051-0.326,1.945-1.176,2.606c-0.539,0.42-1.157,0.621-1.833,0.622c-5.696,0.004-11.393,0.01-17.089-0.003
		c-1.786-0.003-3.022-1.323-3.023-3.174C25.938,48.982,25.939,43.241,25.939,37.501z M46.795,48.457c0-8.793,0-17.556,0-26.313
		c-6.218,0-12.408,0-18.595,0c0,8.785,0,17.54,0,26.313C34.403,48.457,40.586,48.457,46.795,48.457z M37.499,20.339
		c1.34,0,2.677,0.001,4.015,0c0.373,0,0.54-0.129,0.586-0.495c0.023-0.193-0.004-0.399-0.043-0.592
		c-0.047-0.234-0.203-0.349-0.457-0.348c-2.731,0.004-5.463,0.001-8.193,0.006c-0.104,0-0.229,0.028-0.31,0.088
		c-0.217,0.159-0.27,0.651-0.153,1.005c0.103,0.312,0.337,0.34,0.61,0.339C34.869,20.336,36.185,20.339,37.499,20.339z
		 M37.503,51.189c-1.046-0.001-1.892,0.838-1.896,1.879c-0.005,1.033,0.852,1.891,1.889,1.893c1.039,0.002,1.896-0.85,1.896-1.885
		C39.394,52.033,38.551,51.191,37.503,51.189z"/>
</g>
</svg>
