<?xml version="1.0" encoding="utf-8"?>
<!-- Generator: Adobe Illustrator 16.0.0, SVG Export Plug-In . SVG Version: 6.00 Build 0)  -->
<!DOCTYPE svg PUBLIC "-//W3C//DTD SVG 1.1//EN" "http://www.w3.org/Graphics/SVG/1.1/DTD/svg11.dtd">
<svg version="1.1" id="Layer_1" xmlns="http://www.w3.org/2000/svg" xmlns:xlink="http://www.w3.org/1999/xlink" x="0px" y="0px"
	 width="75px" height="75px" viewBox="0 0 75 75" enable-background="new 0 0 75 75" xml:space="preserve">
<g>
	<circle fill="#FFFFFF" cx="37.5" cy="37.5" r="35"/>
	<g>
		<path fill="#27A8CC" d="M37.5,3.929c18.512,0,33.57,15.06,33.57,33.571c0,18.512-15.059,33.57-33.57,33.57
			c-18.511,0-33.571-15.059-33.571-33.57C3.929,18.989,18.988,3.929,37.5,3.929 M37.5,2.5c-19.33,0-35,15.67-35,35s15.67,35,35,35
			c19.329,0,35-15.67,35-35S56.829,2.5,37.5,2.5L37.5,2.5z"/>
		<path fill="#27A8CC" d="M37.5,73C17.925,73,2,57.075,2,37.5C2,17.925,17.925,2,37.5,2C57.075,2,73,17.925,73,37.5
			C73,57.075,57.075,73,37.5,73z M37.5,3C18.477,3,3,18.477,3,37.5S18.477,72,37.5,72S72,56.523,72,37.5S56.523,3,37.5,3z
			 M37.5,71.57c-18.787,0-34.071-15.284-34.071-34.07c0-18.787,15.284-34.071,34.071-34.071c18.786,0,34.07,15.284,34.07,34.071
			C71.57,56.286,56.286,71.57,37.5,71.57z"/>
	</g>
</g>
<g>
	<path fill="#FFFFFF" d="M17.437,28.697c4.703-4.612,10.319-7.357,16.873-8.073c6.661-0.728,12.838,0.742,18.497,4.338
		c2.094,1.331,3.969,2.935,5.611,4.789c0.861,0.974,1.623,2.038,2.418,3.071c0.248,0.322,0.213,0.601-0.068,0.884
		c-0.58,0.584-1.162,1.167-1.746,1.747c-0.348,0.344-0.758,0.295-1.039-0.109c-0.369-0.527-0.735-1.054-1.119-1.571
		c-0.823-1.107-1.762-2.117-2.774-3.052c-1.696-1.564-3.56-2.903-5.642-3.902c-7.146-3.428-14.343-3.5-21.56-0.227
		c-1.861,0.844-3.556,1.967-5.128,3.277c-1.832,1.528-3.415,3.278-4.736,5.262c-0.292,0.438-0.704,0.478-1.076,0.109
		c-0.558-0.556-1.115-1.112-1.671-1.67c-0.348-0.35-0.364-0.581-0.084-0.988C15.15,31.185,16.242,29.9,17.437,28.697z"/>
	<path fill="#FFFFFF" d="M52.561,34.5c1.033,1.058,2.049,2.324,2.897,3.719c0.22,0.361,0.192,0.646-0.103,0.944
		c-0.561,0.563-1.121,1.129-1.688,1.688c-0.396,0.389-0.854,0.325-1.126-0.156c-0.945-1.672-2.143-3.145-3.588-4.403
		c-2.727-2.378-5.9-3.763-9.502-4.111c-3.96-0.382-7.632,0.497-10.98,2.661c-2.363,1.528-4.207,3.547-5.583,6
		c-0.319,0.566-0.717,0.626-1.174,0.169c-0.558-0.555-1.114-1.11-1.669-1.67c-0.31-0.312-0.341-0.557-0.114-0.934
		c1.163-1.927,2.602-3.621,4.305-5.095c6.03-5.217,14.696-6.458,22.038-3.183C48.464,31.104,50.68,32.618,52.561,34.5z"/>
	<path fill="#FFFFFF" d="M26.444,45.738c-0.322-0.322-0.642-0.648-0.969-0.967c-0.228-0.222-0.271-0.474-0.156-0.758
		c0.809-2.007,2.021-3.725,3.668-5.135c2.21-1.893,4.771-2.941,7.666-3.145c3.054-0.214,5.869,0.534,8.4,2.261
		c2.174,1.483,3.758,3.459,4.764,5.894c0.188,0.461,0.148,0.663-0.196,1.01c-0.587,0.59-1.175,1.178-1.765,1.764
		c-0.459,0.455-1.002,0.304-1.183-0.318c-1.157-3.998-4.714-7.061-9.556-6.785c-1.526,0.086-2.99,0.387-4.314,1.197
		c-2.139,1.313-3.595,3.154-4.277,5.576c-0.16,0.566-0.772,0.809-1.195,0.303C27.063,46.314,26.742,46.035,26.444,45.738z"/>
	<path fill="#FFFFFF" d="M41.604,44.895c2.207,2.209,2.201,5.781-0.01,8.008c-2.195,2.212-5.784,2.207-8.003-0.01
		c-2.215-2.215-2.212-5.787,0.007-8C35.814,42.68,39.391,42.682,41.604,44.895z"/>
</g>
</svg>
