<?xml version="1.0" encoding="utf-8"?>
<!-- Generator: Adobe Illustrator 16.0.0, SVG Export Plug-In . SVG Version: 6.00 Build 0)  -->
<!DOCTYPE svg PUBLIC "-//W3C//DTD SVG 1.1//EN" "http://www.w3.org/Graphics/SVG/1.1/DTD/svg11.dtd">
<svg version="1.1" id="Layer_1" xmlns="http://www.w3.org/2000/svg" xmlns:xlink="http://www.w3.org/1999/xlink" x="0px" y="0px"
	 width="50px" height="50px" viewBox="0 0 50 50" enable-background="new 0 0 50 50" xml:space="preserve">
<g>
	<path fill="#299ED4" d="M22.654,30.019c0-0.207,0-0.352,0-0.496c0-7.796,0-15.593,0-23.389c0-1.447,1.074-2.51,2.512-2.491
		c1.229,0.017,2.321,1.095,2.324,2.33c0.008,4.322,0.002,8.644,0.002,12.966c-0.001,3.629-0.003,7.258-0.005,10.886
		c0,0.05,0.016,0.097,0.03,0.193c0.655-0.472,1.279-0.923,1.901-1.374c2.443-1.768,4.884-3.543,7.333-5.303
		c1.505-1.083,3.454-0.35,3.842,1.464c0.203,0.947-0.109,1.774-0.885,2.359c-1.236,0.934-2.505,1.825-3.76,2.736
		c-1.332,0.964-2.666,1.93-3.998,2.895c-1.839,1.332-3.675,2.673-5.522,3.996c-0.777,0.556-1.874,0.581-2.654,0.026
		c-1.79-1.264-3.557-2.558-5.331-3.842c-2.63-1.899-5.256-3.806-7.888-5.699c-1.095-0.788-1.391-2.313-0.637-3.378
		c0.817-1.153,2.303-1.403,3.475-0.568c1.211,0.865,2.409,1.746,3.614,2.62c1.815,1.314,3.631,2.628,5.447,3.941
		C22.502,29.927,22.554,29.956,22.654,30.019z"/>
	<path fill="#299ED4" d="M25.073,46.743c-5.181,0-10.362,0.001-15.543,0c-1.125-0.001-2.056-0.692-2.357-1.748
		c-0.297-1.035,0.121-2.123,1.049-2.719c0.403-0.261,0.852-0.367,1.326-0.367c7-0.001,14.001-0.001,21.002,0
		c3.35,0,6.7-0.004,10.049,0.003c1,0.002,1.758,0.453,2.205,1.343c0.446,0.891,0.353,1.77-0.253,2.564
		c-0.449,0.589-1.06,0.92-1.812,0.921c-4.84,0.004-9.68,0.002-14.518,0.002C25.839,46.742,25.457,46.742,25.073,46.743
		C25.073,46.742,25.073,46.742,25.073,46.743z"/>
</g>
</svg>
