<?xml version="1.0" encoding="utf-8"?>
<!-- Generator: Adobe Illustrator 16.0.0, SVG Export Plug-In . SVG Version: 6.00 Build 0)  -->
<!DOCTYPE svg PUBLIC "-//W3C//DTD SVG 1.1//EN" "http://www.w3.org/Graphics/SVG/1.1/DTD/svg11.dtd">
<svg version="1.1" id="Layer_1" xmlns="http://www.w3.org/2000/svg" xmlns:xlink="http://www.w3.org/1999/xlink" x="0px" y="0px"
	 width="50px" height="50px" viewBox="25 25 50 50" enable-background="new 25 25 50 50" xml:space="preserve">
<g>
	<path fill="#27A8CC" d="M54.565,73.291h-9.084c-3.142,0-5.699-2.556-5.699-5.698V37.871h20.482v29.722
		C60.265,70.735,57.708,73.291,54.565,73.291z M41.938,40.027v27.566c0,1.953,1.589,3.542,3.542,3.542h9.084
		c1.954,0,3.543-1.589,3.543-3.542V40.027H41.938z"/>
	<path fill="#27A8CC" d="M49.946,68.979c-1.784,0-3.233-1.45-3.233-3.234c0-1.783,1.45-3.234,3.233-3.234
		c1.782,0,3.233,1.451,3.233,3.234C53.18,67.529,51.729,68.979,49.946,68.979z M49.946,64.05c-0.934,0-1.693,0.76-1.693,1.695
		c0,0.935,0.76,1.694,1.693,1.694c0.935,0,1.694-0.76,1.694-1.694C51.641,64.81,50.881,64.05,49.946,64.05z"/>
	<path fill="#27A8CC" d="M57.427,39.731H42.721V27h14.706V39.731z M44.724,37.728h10.702v-8.726H44.724V37.728z"/>
	<rect x="46.25" y="31.403" fill="#27A8CC" width="2.203" height="2.695"/>
	<rect x="51.686" y="31.403" fill="#27A8CC" width="2.252" height="2.695"/>
</g>
</svg>
