<?xml version="1.0" encoding="utf-8"?>
<!-- Generator: Adobe Illustrator 16.0.0, SVG Export Plug-In . SVG Version: 6.00 Build 0)  -->
<!DOCTYPE svg PUBLIC "-//W3C//DTD SVG 1.1//EN" "http://www.w3.org/Graphics/SVG/1.1/DTD/svg11.dtd">
<svg version="1.1" id="Layer_1" xmlns="http://www.w3.org/2000/svg" xmlns:xlink="http://www.w3.org/1999/xlink" x="0px" y="0px"
	 width="50px" height="50px" viewBox="0 0 50 50" enable-background="new 0 0 50 50" xml:space="preserve">
<g>
	<g>
		<path fill-rule="evenodd" clip-rule="evenodd" fill="#289DD3" d="M13.697,5.21c1.21-0.846,2.428-1.681,3.637-2.528
			c0.466-0.327,0.968-0.556,1.537-0.527c0.81,0.041,1.444,0.415,1.9,1.109c2.504,3.812,5.015,7.619,7.523,11.429
			c4.352,6.618,8.705,13.236,13.055,19.854c0.068,0.105,0.142,0.218,0.17,0.337c0.344,1.448,0.683,2.898,1.02,4.349
			c0.494,2.127,0.983,4.255,1.479,6.381c0.145,0.62-0.322,1.162-0.939,1.054c-0.188-0.034-0.374-0.143-0.533-0.258
			c-2.709-1.97-5.416-3.942-8.117-5.924c-0.271-0.2-0.557-0.421-0.744-0.697c-0.911-1.338-1.791-2.698-2.682-4.05
			c-2.134-3.24-4.27-6.479-6.4-9.72c-1.998-3.038-3.989-6.08-5.987-9.116c-1.835-2.791-3.676-5.577-5.514-8.366
			c-0.271-0.412-0.401-0.871-0.432-1.334C12.666,6.411,13.051,5.663,13.697,5.21z M34.818,38.291c1.58-1.094,3.159-2.19,4.741-3.28
			c0.146-0.101,0.157-0.177,0.06-0.325c-1.576-2.385-3.146-4.774-4.718-7.165c-3.508-5.332-7.016-10.663-10.517-16
			c-0.142-0.216-0.243-0.23-0.447-0.088c-1.548,1.082-3.101,2.155-4.659,3.225c-0.182,0.125-0.193,0.213-0.069,0.4
			c2.161,3.27,4.313,6.544,6.468,9.818c1.854,2.814,3.705,5.632,5.559,8.447c1.067,1.62,2.135,3.238,3.204,4.857
			c0.053,0.08,0.12,0.15,0.185,0.23C34.707,38.36,34.765,38.328,34.818,38.291z M18.314,3.891c-1.212,0.83-2.41,1.679-3.631,2.496
			c-0.477,0.32-0.658,0.818-0.268,1.377c0.661,0.947,1.278,1.924,1.904,2.896c0.125,0.194,0.22,0.218,0.414,0.083
			c1.556-1.085,3.119-2.161,4.683-3.234c0.156-0.106,0.192-0.195,0.077-0.367c-0.668-1.003-1.327-2.014-1.99-3.021
			c-0.168-0.257-0.397-0.407-0.792-0.418C18.625,3.742,18.455,3.794,18.314,3.891z M37.365,40.729
			c0.76,0.555,1.523,1.103,2.278,1.662c0.157,0.115,0.264,0.145,0.436,0.015c0.389-0.296,0.793-0.566,1.201-0.83
			c0.159-0.104,0.21-0.217,0.165-0.4c-0.256-1.069-0.509-2.141-0.762-3.21c-0.111-0.47-0.217-0.939-0.327-1.409
			c-0.012-0.047-0.034-0.09-0.067-0.178c-1.519,1.05-3.018,2.087-4.558,3.151C36.313,39.957,36.838,40.344,37.365,40.729z
			 M22.565,8.766c-0.107-0.167-0.204-0.049-0.291,0.01c-0.802,0.55-1.603,1.103-2.403,1.657c-0.773,0.535-1.542,1.075-2.318,1.605
			c-0.163,0.111-0.21,0.198-0.077,0.379c0.22,0.297,0.417,0.615,0.614,0.929c0.083,0.133,0.149,0.167,0.296,0.065
			c1.591-1.108,3.187-2.208,4.781-3.311c0.055-0.037,0.101-0.086,0.174-0.149C23.073,9.541,22.816,9.155,22.565,8.766z"/>
	</g>
	<rect x="6.357" y="44.825" fill="#289DD3" width="37.117" height="1.803"/>
</g>
</svg>
