<?xml version="1.0" encoding="utf-8"?>
<!-- Generator: Adobe Illustrator 16.0.0, SVG Export Plug-In . SVG Version: 6.00 Build 0)  -->
<!DOCTYPE svg PUBLIC "-//W3C//DTD SVG 1.1//EN" "http://www.w3.org/Graphics/SVG/1.1/DTD/svg11.dtd">
<svg version="1.1" id="Layer_1" xmlns="http://www.w3.org/2000/svg" xmlns:xlink="http://www.w3.org/1999/xlink" x="0px" y="0px"
	 width="50px" height="50px" viewBox="0 0 50 50" enable-background="new 0 0 50 50" xml:space="preserve">
<g>
	<path fill-rule="evenodd" clip-rule="evenodd" fill="#289DD3" d="M31.889,5.498c0.237,0,0.477,0,0.715,0
		c0.325,0.162,0.678,0.283,0.977,0.491c2.428,1.691,4.428,3.836,6.034,6.391c0.675,1.075,0.561,2.13-0.327,3.01
		c-0.673,0.667-1.344,1.334-2.016,2.003c-0.309,0.307-0.299,0.345-0.144,0.779c0.278,0.783,0.565,1.564,0.792,2.365
		c0.58,2.052,0.691,4.16,0.677,6.291c-0.026,3.945-0.007,7.891-0.007,11.836c0,0.486,0.024,0.514,0.475,0.511
		c1.737-0.008,3.475-0.02,5.213-0.023c0.399,0,0.801,0.037,1.199,0.044c0.316,0.005,0.36-0.051,0.36-0.392
		c0-0.628-0.002-1.253,0-1.882c0-0.334,0.093-0.628,0.36-0.834c0.298-0.23,0.624-0.27,0.956-0.104
		c0.372,0.188,0.51,0.524,0.51,0.944c-0.001,3.136-0.002,6.271,0.003,9.406c0.001,0.262-0.085,0.354-0.333,0.352
		c-0.933-0.011-1.866-0.006-2.799-0.003c-0.098,0-0.195,0.024-0.292,0.037c-0.77,0-1.538,0-2.307,0
		c-0.109-0.02-0.219-0.058-0.328-0.058c-4.773-0.001-9.548,0.004-14.32,0.004c-5.505,0-11.01-0.003-16.515-0.011
		c-0.418,0-0.842-0.03-1.254-0.105c-3.484-0.642-5.76-2.761-6.833-6.305c-0.17-0.563-0.225-1.163-0.333-1.746
		c0-4.65,0-9.303,0-13.953c0.017-0.112,0.037-0.224,0.05-0.338c0.074-0.658,0.109-1.326,0.226-1.976
		c0.866-4.786,3.118-8.698,6.762-11.688c2.746-2.253,5.875-3.54,9.342-3.901c1.583-0.165,3.156-0.101,4.724,0.167
		c1.66,0.283,3.244,0.82,4.751,1.601c0.242,0.125,0.396,0.084,0.574-0.111c0.533-0.583,1.083-1.151,1.621-1.726
		C30.833,6.112,31.265,5.656,31.889,5.498z M23.429,44.689c0,0.002,0,0.005,0,0.006c4.228,0,8.454,0,12.681,0
		c0.661,0,0.661,0,0.662-0.689c0-4.573,0.004-9.147-0.001-13.72c-0.002-1.658,0.018-3.319-0.054-4.975
		c-0.047-1.122-0.142-2.257-0.372-3.351c-0.786-3.753-2.576-6.911-5.384-9.363c-4.638-4.047-9.922-5.13-15.601-3.185
		c-5.226,1.79-8.661,5.658-10.432,11.148c-0.602,1.867-0.75,3.801-0.747,5.756c0.007,3.869,0.015,7.737,0.027,11.605
		c0,0.259,0.027,0.52,0.058,0.776c0.393,3.311,3.175,5.964,6.346,5.983C14.883,44.71,19.156,44.689,23.429,44.689z M30.277,9.535
		c1.033,0.905,2.057,1.747,3.021,2.659c0.989,0.939,1.777,2.066,2.473,3.262c0.262,0.449,0.278,0.446,0.628,0.091
		c0.493-0.502,0.992-0.998,1.492-1.49c0.294-0.289,0.309-0.359,0.089-0.703c-1.456-2.27-3.257-4.175-5.406-5.713
		c-0.217-0.154-0.377-0.164-0.572,0.046c-0.522,0.565-1.063,1.114-1.595,1.671C30.351,9.418,30.31,9.493,30.277,9.535z M42.2,44.695
		c1.088,0,2.178,0.001,3.265,0c0.325,0,0.37-0.047,0.371-0.381c0.001-0.907,0.001-1.814,0.001-2.722
		c-0.002-0.373-0.06-0.435-0.416-0.435c-2.149-0.001-4.3,0-6.45,0c-0.327,0-0.38,0.056-0.381,0.405c-0.001,0.897,0,1.795,0,2.692
		c0.001,0.407,0.029,0.438,0.426,0.439C40.078,44.697,41.139,44.695,42.2,44.695z"/>
	<path fill-rule="evenodd" clip-rule="evenodd" fill="#289DD3" d="M20.461,39.421c-6.438,0.09-12.166-5.458-12.17-12.815
		c-0.005-7.227,5.598-12.943,12.352-12.841c6.618,0.1,12.122,5.761,12.011,13.076C32.547,33.873,27.077,39.492,20.461,39.421z
		 M20.493,15.732c-5.382-0.057-10.206,4.498-10.341,10.592c-0.136,6.118,4.439,11.159,10.299,11.158
		c5.987,0,10.265-5.094,10.338-10.723C30.871,20.58,26.031,15.688,20.493,15.732z"/>
	<path fill-rule="evenodd" clip-rule="evenodd" fill="#289DD3" d="M5.41,25.03c0.182-4.021,1.566-7.503,4.217-10.412
		c0.303-0.334,0.625-0.651,0.954-0.956c0.43-0.399,0.845-0.413,1.135-0.063c0.306,0.366,0.232,0.793-0.214,1.197
		c-1.227,1.11-2.23,2.413-3.011,3.906c-1.054,2.015-1.64,4.169-1.697,6.477c-0.005,0.222-0.025,0.443-0.057,0.662
		c-0.052,0.355-0.337,0.586-0.685,0.572c-0.337-0.015-0.589-0.255-0.632-0.602c-0.004-0.038-0.009-0.077-0.009-0.115
		C5.41,25.474,5.41,25.251,5.41,25.03z"/>
	<path fill-rule="evenodd" clip-rule="evenodd" fill="#289DD3" d="M19.983,9.779c0.183,0,0.366-0.007,0.548,0.001
		c0.35,0.016,0.604,0.286,0.637,0.667c0.032,0.367-0.164,0.668-0.518,0.727c-0.351,0.058-0.708,0.081-1.063,0.098
		c-1.691,0.083-3.288,0.56-4.831,1.275c-0.208,0.097-0.456,0.153-0.679,0.137c-0.296-0.022-0.485-0.292-0.521-0.619
		c-0.036-0.313,0.085-0.588,0.358-0.714c1.355-0.63,2.731-1.197,4.214-1.398c0.615-0.083,1.233-0.145,1.85-0.215
		C19.981,9.752,19.982,9.766,19.983,9.779z"/>
</g>
</svg>
