<?xml version="1.0" encoding="utf-8"?>
<!-- Generator: Adobe Illustrator 16.0.0, SVG Export Plug-In . SVG Version: 6.00 Build 0)  -->
<!DOCTYPE svg PUBLIC "-//W3C//DTD SVG 1.1//EN" "http://www.w3.org/Graphics/SVG/1.1/DTD/svg11.dtd">
<svg version="1.1" id="Layer_1" xmlns="http://www.w3.org/2000/svg" xmlns:xlink="http://www.w3.org/1999/xlink" x="0px" y="0px"
	 width="39px" height="39px" viewBox="0 0 39 39" enable-background="new 0 0 39 39" xml:space="preserve">
<path fill="#939292" d="M19.5,38.5c-10.477,0-19-8.523-19-19s8.523-19,19-19s19,8.523,19,19S29.977,38.5,19.5,38.5z M16.521,19.59
	v11.012c0,0.158,0.128,0.287,0.286,0.287h4.09c0.158,0,0.287-0.129,0.287-0.287V19.41h2.965c0.148,0,0.273-0.114,0.285-0.263
	l0.285-3.372c0.015-0.167-0.118-0.311-0.286-0.311h-3.249v-2.393c0-0.561,0.455-1.016,1.016-1.016h2.284
	c0.159,0,0.286-0.128,0.286-0.286V8.398c0-0.158-0.127-0.287-0.286-0.287h-3.86c-2.266,0-4.103,1.837-4.103,4.103v3.251h-2.044
	c-0.16,0-0.287,0.128-0.287,0.286v3.372c0,0.159,0.127,0.287,0.287,0.287h2.044V19.59z"/>
</svg>
