<?xml version="1.0" encoding="utf-8"?>
<!-- Generator: Adobe Illustrator 16.0.0, SVG Export Plug-In . SVG Version: 6.00 Build 0)  -->
<!DOCTYPE svg PUBLIC "-//W3C//DTD SVG 1.1//EN" "http://www.w3.org/Graphics/SVG/1.1/DTD/svg11.dtd">
<svg version="1.1" id="Layer_1" xmlns="http://www.w3.org/2000/svg" xmlns:xlink="http://www.w3.org/1999/xlink" x="0px" y="0px"
	 width="323px" height="194.001px" viewBox="0 0 323 194.001" enable-background="new 0 0 323 194.001" xml:space="preserve">
<g>
	<g>
		<path fill-rule="evenodd" clip-rule="evenodd" fill="#1F303C" d="M107.841,99.837c0.089-0.109,0.114-0.162,0.132-0.158
			c2.679,0.31,3.212-0.068,3.875-2.721c0.097-0.382,0.21-0.805,0.448-1.104c0.717-0.901,0.504-1.445-0.479-1.967
			c-1.932-1.023-3.6-2.531-5.891-2.917c-0.634-0.109-1.111-0.975-1.72-1.417c-2.045-1.486-4.16-2.881-6.159-4.421
			c-1.873-1.439-3.731-2.926-5.414-4.571c-1.109-1.087-2.204-1.985-3.779-2.098c-1.323-0.094-1.607-1.06-1.504-2.028
			c0.1-0.922-0.229-1.493-0.865-1.961c-0.836-0.616-1.829-1.051-2.569-1.756c-1.176-1.124-2.197-2.41-3.363-3.716
			c0.419-0.16,0.53-0.232,0.557-0.21c1.375,1.249,2.732,2.521,4.118,3.758c1.121,0.998,2.277,1.959,3.418,2.937
			c0.59,0.506,1.264,0.94,1.759,1.528c1.336,1.583,2.622,3.134,4.471,4.248c1.549,0.932,2.751,2.43,4.162,3.61
			c2.783,2.324,5.691,4.435,9.382,5.132c0.416,0.079,0.938,0.481,1.1,0.865c0.494,1.167,2.272,2.66,3.523,2.687
			c0.367,0.009,0.84-0.133,1.096-0.382c0.77-0.754,1.459-1.585,2.176-2.394c0.921-1.041,1.73-2.213,2.779-3.103
			c1.483-1.256,1.944-2.808,1.826-4.617c-0.025-0.342-0.315-0.73-0.59-0.98c-1.963-1.799-2.628-3.952-1.924-6.535
			c0.333-1.229,1.394-1.573,2.359-0.765c0.673,0.564,1.433,1.031,2.08,1.623c0.214,0.192,0.353,0.684,0.267,0.956
			c-0.717,2.301,0.499,4.747,2.733,5.519c1.221,0.423,4.068-1.158,4.487-3.218c0.445-2.195-0.129-4.229-0.53-6.299
			c-0.089-0.455-0.614-0.816-0.895-1.249c-1.388-2.133-2.682-4.337-4.183-6.387c-0.6-0.822-1.782-1.2-2.451-1.991
			c-0.667-0.788-1.346-1.805-1.445-2.781c-0.267-2.562-1.007-4.797-2.834-6.687c-0.508-0.522-0.637-1.415-0.741-2.312
			c0.518,0.585,1.071,1.143,1.541,1.764c1.291,1.704,2.536,3.444,3.827,5.148c0.178,0.234,0.48,0.404,0.761,0.527
			c1.77,0.79,2.958,2.04,3.266,4.015c0.459,2.947,2.33,5.163,3.977,7.464c0.831,1.154,2.082,1.063,3.304,0.076
			c0.804-0.648,0.875-2.078,0.197-3.224c-1.767-2.984-3.499-5.99-5.298-8.956c-0.258-0.426-0.781-0.909-1.224-0.952
			c-0.868-0.086-0.969-0.577-0.984-1.217c-0.021-0.775-0.004-1.55-0.004-2.413c0.422,0.58,0.852,1.092,1.204,1.655
			c1.414,2.267,2.706,4.617,4.237,6.799c1.165,1.661,2.602,3.135,3.975,4.639c0.202,0.223,0.792,0.321,1.064,0.187
			c0.225-0.107,0.343-0.646,0.329-0.982c-0.023-0.557-0.203-1.106-0.301-1.662c-0.145-0.827-0.119-1.702-1.481-1.381
			c-0.334,0.079-0.877-0.752-1.329-1.158c-0.313-0.281-0.637-0.546-0.953-0.824c-0.443-0.387-1.084-0.708-1.253-1.193
			c-0.114-0.327,0.349-1.035,0.736-1.281c0.196-0.123,0.969,0.299,1.189,0.655c0.467,0.748,0.864,1.459,1.887,1.385
			c0.192-0.013,0.379-0.096,0.629-0.166c0.477,1.959,0.973,3.905,1.412,5.862c0.309,1.374,1.244,2.167,2.508,2.228
			c2.257,0.105,3.701,2.731,3.698,4.631c-0.005,1.911,1.764,3.321,3.526,2.756c0.97-0.308,1.94-0.673,2.829-1.158
			c2.102-1.148,5.378-1.08,6.722,1.734c0.655,1.385,2.203,1.855,3.685,1.383c1.272-0.406,2.488-0.697,3.87-0.253
			c1.048,0.34,2.039-0.079,2.975-0.852c2.747-2.256,4.117-5.194,4.817-8.591c0.361-1.761,0.838-3.54,1.563-5.18
			c0.564-1.283,1.46-2.488,2.438-3.511c1.698-1.771,2.359-3.882,2.334-6.204c-0.021-1.757,0.35-3.312,1.235-4.819
			c0.724-1.241,1.288-2.528,0.912-4.113c-0.139-0.588,0.342-1.457,0.776-2.014c0.712-0.907,1.321-1.561,0.432-2.82
			c-0.756-1.071,0.521-1.617,1.109-2.279c0.117,0.023,0.232,0.051,0.354,0.076c-0.202,1.219-0.482,2.43-0.595,3.654
			c-0.287,3.132-1.941,6.023-1.418,9.329c0.177,1.134-0.34,2.474-0.817,3.598c-0.869,2.046-0.027,3.714,1.188,5.064
			c2.056,2.28,3.116,4.937,3.592,7.855c0.337,2.05,0.406,4.14,0.598,6.212c0.025,0.276,0.004,0.596,0.136,0.814
			c0.278,0.463,0.646,0.875,0.979,1.308c0.353-0.348,0.763-0.654,1.046-1.051c0.868-1.211,1.722-2.444,1.671-4.132
			c-0.191-0.055-0.451-0.061-0.599-0.192c-0.177-0.153-0.257-0.416-0.375-0.631c0.207-0.055,0.418-0.109,0.628-0.163
			c0.326-0.085,0.841-0.071,0.948-0.273c0.982-1.833,1.912-3.693,2.824-5.563c0.312-0.645,0.45-1.384,0.82-1.984
			c0.198-0.323,0.722-0.441,1.098-0.653c0.138,0.393,0.465,0.827,0.385,1.167c-0.453,1.906-0.738,3.843-1.104,5.751
			c-0.428,2.231-1.026,4.697-3.099,6.214c-0.388,0.285-1.142,0.404-1.576,0.227c-0.66-0.267-0.999-0.091-1.292,0.41
			c-1.469,2.49-3.029,4.935-3.643,7.825c-0.328,1.555,0.223,2.354,1.807,2.316c0.863-0.021,1.445,0.232,2.117,0.799
			c1.261,1.071,2.878,1.245,4.446,0.884c1.157-0.266,2.021,0.01,3.061,0.527c1.961,0.979,3.869,2.418,6.323,1.646
			c1.114-0.354,2.01-0.904,2.592-1.981c1.615-3,4.241-4.298,7.564-4.393c0.429-0.012,0.867-0.127,1.381-0.206
			c-0.055-0.338-0.101-0.614-0.162-0.995c0.187,0.124,0.287,0.172,0.356,0.249c0.516,0.544,0.96,1.177,1.548,1.627
			c0.765,0.583,1.626,0.449,2.335-0.167c1.5-1.307,3.132-2.438,4.062-4.356c0.771-1.591,2.182-2.471,4.055-2.889
			c1.203-0.268,2.363-1.276,3.273-2.214c0.962-0.997,1.861-1.833,3.325-1.744c0.357,1.833-0.531,3.189-2.267,3.388
			c-1.831,0.208-2.771,1.281-3.605,2.866c-0.544,1.043-1.775,1.741-2.748,2.537c-0.394,0.323-0.958,0.433-1.354,0.748
			c-1.673,1.316-3.492,2.513-4.903,4.073c-1.11,1.233-1.911,2.866-2.486,4.451c-0.627,1.736-1.339,3.313-2.637,4.658
			c-0.412,0.426-0.499,1.211-0.635,1.854c-0.608,2.846,0.019,5.063,2.097,6.238c1.243,0.707,2.494,1.421,3.813,1.969
			c1.122,0.465,1.179,1.187,0.843,2.123c-0.317,0.869-0.782,1.697-1.003,2.585c-0.197,0.801-0.311,1.682-0.193,2.49
			c0.127,0.91,0.726,1.553,1.801,1.273c4.073-1.063,8.157-2.082,12.204-3.224c1.874-0.532,3.675-1.322,5.506-1.983
			c0.107-0.042,0.232-0.004,0.613-0.004c-0.381,0.253-0.559,0.431-0.771,0.507c-2.143,0.759-4.304,1.484-6.444,2.259
			c-1.169,0.427-2.293,0.964-3.463,1.391c-1.651,0.594-3.359,1.035-4.969,1.712c-1.462,0.615-2.924,1.33-4.205,2.252
			c-1.336,0.956-1.808,2.513-1.353,4.088c0.744,2.6,1.041,5.399,2.97,7.538c0.776,0.869,1.524,1.753,2.286,2.63
			c0.68,0.782,1.341,1.587,2.04,2.351c0.293,0.317,0.614,0.691,0.999,0.831c2.428,0.91,4.82,2.04,7.334,2.551
			c2.045,0.411,3.729,1.405,5.566,2.172c1.063,0.446,2.198,0.726,3.285,1.134c0.444,0.166,0.833,0.469,1.247,0.71
			c-0.057,0.125-0.115,0.254-0.17,0.382c-0.66-0.215-1.358-0.348-1.969-0.657c-1.813-0.922-3.746-1.134-5.732-1.111
			c-0.959,0.008-1.808-0.09-2.41-1.027c-0.21-0.329-0.8-0.449-1.237-0.604c-1.465-0.499-2.97-0.896-4.404-1.478
			c-1.183-0.483-2.137-0.4-3.091,0.477c-2.278,2.082-4.139,4.432-5.333,7.322c-0.527,1.281-1.354,2.448-2.104,3.764
			c0.728,0.313,1.349,0.585,2.012,0.884c-0.814,0.948-1.027,0.896-2.072-0.37c-1.308,0.752-2.616,1.478-3.892,2.252
			c-1.089,0.657-1.561,2.01-1.085,3.56c-0.615,0-1.141-0.034-1.656,0.011c-0.503,0.042-1.152,0.004-1.455,0.295
			c-0.912,0.869-1.706,1.874-2.509,2.853c-1.041,1.259-1.908,2.702-3.107,3.778c-1.295,1.152-3.025,1.829-4.321,2.981
			c-1.309,1.168-2.669,1.772-4.396,1.844c-0.942,0.034-1.9,0.317-2.805,0.631c-1.538,0.525-1.523,0.574-2.085,2.033
			c-2.343,0.219-3.137,1.114-2.25,2.86c-1.082-0.813-1.343,0.049-1.707,0.601c-0.565,0.861-1.083,1.753-1.715,2.788
			c-0.383-1.858-1.651-2.493-3.209-2.807c-2.976-0.601-5.66-1.841-8.259-3.424c-1.572-0.959-3.306-1.405-5.274-0.041
			c-1.268,0.88-3.195,0.835-4.837,1.141c-0.744,0.133-1.531,0.034-2.272,0.182c-2.166,0.435-4.251,0.23-6.188-0.824
			c-1.901-1.039-3.81-1.987-5.948-2.493c-1.58-0.374-4.034,0.408-4.192,2.796c-0.084,1.27-0.003,2.679-1.243,3.491
			c-0.549,0.363-1.398,0.703-1.944,0.533c-1.383-0.435-2.117,0.144-2.823,1.171c-0.788,1.148-1.656,2.237-2.559,3.438
			c-0.594-0.691-1.158-1.134-1.419-1.719c-0.254-0.567-0.433-1.357-0.228-1.89c0.496-1.3,1.268-2.49,1.858-3.756
			c0.659-1.413,1.33-2.822,1.832-4.296c0.464-1.364-0.402-2.694-1.675-3.412c-0.675-0.386-1.097-1.198-1.66-1.791
			c-0.509-0.533-0.997-1.126-1.603-1.522c-0.731-0.487-1.579-0.794-2.373-1.187c-1.578-0.778-3.317-0.703-4.829-0.212
			c-4.874,1.579-9.852,2.978-14.088,6.068c-0.194,0.14-0.418,0.257-0.575,0.435c-2.096,2.361-4.796,3.971-7.305,5.822
			c-0.315,0.23-0.524,0.616-0.844,0.835c-0.929,0.665-1.886,1.285-2.834,1.916c-0.628,0.42-1.37,0.733-1.865,1.273
			c-1.588,1.719-3.55,2.641-5.761,3.299c-1.214,0.362-2.443,1.065-3.356,1.938c-1.763,1.677-3.679,3.015-5.981,3.902
			c0.866-1.262,1.646-2.497,2.54-3.646c0.316-0.404,0.879-0.654,1.369-0.889c1.678-0.797,3.081-1.836,3.163-3.88
			c0.146-3.594,2.96-4.13,5.596-4.142c1.245-0.004,2.531-0.174,3.725-0.528c3.723-1.097,6.298-3.949,9.041-6.416
			c1.447-1.304,2.349-3.299,3.253-5.102c1.292-2.569,2.425-5.229,3.483-7.908c0.262-0.669,0.172-1.628-0.095-2.319
			c-1.061-2.773-2.261-5.486-3.396-8.226c-0.229-0.552-0.344-1.156-0.602-1.693c-1.303-2.693-3.588-4.367-6.164-5.671
			c-0.523-0.269-1.262-0.276-1.864-0.178c-2.257,0.37-4.505-1.111-4.396-3.374c0.142-2.925-1.151-4.689-3.563-5.955
			c-0.42-0.216-0.81-0.54-1.135-0.888c-1.57-1.686-3.629-1.841-5.729-1.878c-0.964-0.023-1.936,0.061-2.889-0.038
			c-1-0.105-1.665,0.396-1.819,1.201c-0.113,0.586,0.206,1.36,0.564,1.901c0.494,0.744,1.395,1.224,0.971,2.372
			c-0.489,1.334-2.047,2.222-3.619,1.977c-1.333-0.212-1.738-1.047-1.861-2.766c-0.181-2.494-1.256-4.603-4.045-3.919
			c-2.429,0.598-4.777-0.298-7.167-0.053c-0.853,0.091-1.721,0.016-2.831,0.016c0.823-1.1,1.467-1.134,2.479-0.877
			c1.251,0.321,2.63,0.23,3.951,0.189c0.948-0.03,1.885-0.321,2.836-0.412c1.458-0.14,2.783-0.507,4.076-1.3
			c0.854-0.525,2.048-0.76,3.068-0.711c3.557,0.167,7.105,0.495,10.652,0.809c1.034,0.095,2.103,0.216,3.071,0.56
			c2.801,0.986,3.288-0.321,4.334-2.301c0.697-1.315,0.769-2.955,1.402-4.312c0.48-1.035,1.27-2.032,2.162-2.743
			c1.406-1.114,3.1-1.866,4.52-2.966c1.617-1.251,2.34-3.121,2.697-5.078c0.068-0.378-0.469-0.918-0.82-1.296
			C108.576,100.057,108.182,99.988,107.841,99.837z"/>
		<path fill-rule="evenodd" clip-rule="evenodd" fill="#1F303C" d="M117.399,49.98c-0.236,0.493-0.437,0.914-0.725,1.512
			c-0.662-2.439-2.652-3.62-4.043-5.279c-0.812-0.969-1.574-1.982-2.398-2.941c-0.949-1.105-2.33-0.979-2.938,0.34
			c-0.938,2.021-2.409,3.478-4.365,4.464c-0.524,0.265-1.122,0.389-1.693,0.559c-2.083,0.618-7.097-1.561-8.222-3.622
			c-1.982-3.637-1.798-6.778,0.668-9.905c1.604-2.033,3.969-2.811,6.57-2.639c2.085,0.136,3.218-1.005,2.652-2.968
			c-0.837-2.906-1.841-5.764-2.773-8.642c-0.097-0.304-0.193-0.608-0.271-0.918c-0.387-1.536-0.873-2.955-2.309-3.937
			c-0.651-0.446-1.103-1.266-1.482-2.003c-0.545-1.06-0.942-2.197-1.398-3.302c-0.075-0.187-0.142-0.378-0.19-0.572
			c-0.328-1.302-0.006-2.532,0.73-2.8c0.884-0.323,2.579,0.553,3.057,1.609c1.417,3.121,2.783,6.265,4.249,9.359
			c0.443,0.933,1.032,1.863,1.765,2.579c3.554,3.488,5.749,7.893,8.354,12.029c1.366,2.171,2.445,4.47,3.354,6.835
			c0.963,2.501,1.091,5.164,0.609,7.81C116.422,48.537,116.419,49.381,117.399,49.98z"/>
		<path fill-rule="evenodd" clip-rule="evenodd" fill="#1F303C" d="M62.686,126.434c-1.165,1.621-2.592,1.579-3.831,1.621
			c-5.053,0.162-10.108,0.162-15.162,0.265c-2.409,0.053-4.813,0.23-7.223,0.287c-2.115,0.049-4.231-0.034-6.346,0.03
			c-3.354,0.102-6.713,0.178-10.051,0.483c-0.896,0.083-1.784,0.888-2.56,1.5c-1.671,1.322-3.423,2.184-5.635,2.44
			c-1.732,0.197-3.479,0.99-5.025,1.859c-1.934,1.085-3.698,0.62-5.493-0.064c-0.305-0.117-0.582-0.872-0.519-1.273
			c0.135-0.854,1.302-1.454,2.152-1.311c1.141,0.192,2.287,0.358,3.435,0.521c1.916,0.265,3.522-0.654,4.529-1.995
			c1.389-1.852,3.174-2.26,5.211-2.468c2.63-0.275,5.277-0.472,7.865-0.967c2.546-0.495,5.06-1.225,7.533-2.021
			c2.479-0.79,5.008-0.556,7.524-0.677c0.041,0,0.087-0.007,0.12,0.016c2.305,1.288,4.854,0.865,7.314,1.017
			c1.237,0.075,2.484-0.087,3.724-0.061c2.623,0.063,5.246,0.147,7.866,0.294C59.545,126.015,60.967,126.245,62.686,126.434z"/>
		<path fill-rule="evenodd" clip-rule="evenodd" fill="#1F303C" d="M299.867,158.97c-1.973-0.068-3.854-0.279-5.454-1.715
			c-0.728-0.654-1.778-1.085-2.755-1.312c-2.297-0.533-4.629-0.93-6.956-1.304c-4.882-0.782-9.352-2.694-13.657-5.018
			c-0.801-0.427-1.445-1.255-2.007-2.018c-0.551-0.748,0.014-1.561,1.064-1.568c0.959-0.004,1.921,0.133,2.881,0.133
			c0.816,0.003,1.627-0.114,2.438-0.151c0.226-0.008,0.482,0.019,0.681,0.117c1.795,0.85,3.561,1.771,5.379,2.58
			c2.121,0.948,4.303,1.757,6.429,2.713c1.488,0.669,2.976,1.383,4.338,2.268c1.173,0.756,2.315,1.017,3.649,0.726
			c2.316-0.503,4.002,0.805,5.591,2.146c0.395,0.337,0.646,1.267,0.459,1.72c-0.151,0.382-1.035,0.476-1.601,0.676
			C300.199,159.012,300.027,158.97,299.867,158.97z"/>
		<path fill-rule="evenodd" clip-rule="evenodd" fill="#1F303C" d="M103.254,161.842c-1.033,0.083-2.063,0.17-3.097,0.257
			c-2.448,0.196-4.731-1.073-4.746-3.715c-0.009-1.436,1.086-3.026,2.608-3.74c1.014-0.477,2.062-0.94,2.956-1.595
			c2.086-1.526,4.934-1.171,6.675,0.469c1.64,1.538,2.062,4.277-0.086,6.74C106.429,161.562,104.972,162.087,103.254,161.842z"/>
		<path fill-rule="evenodd" clip-rule="evenodd" fill="#1F303C" d="M215.502,159.653c0.476-0.985,0.756-1.862,1.277-2.569
			c0.861-1.159,2.367-1.363,3.649-0.649c0.072,0.038,0.136,0.087,0.208,0.125c1.797,0.985,1.74,0.94,3.021-0.654
			c1.642-2.04,4.578-2.127,5.913,0.307c0.59,1.072,0.634,2.172,0.018,3.211c-0.594,1.002-1.478,1.55-2.731,1.247
			c-0.347-0.083-0.739,0.022-1.075-0.075c-1.073-0.31-1.523-0.072-1.563,1.164c-0.063,1.711-1.778,2.671-3.433,2.127
			c-0.858-0.291-1.755-0.461-2.636-0.699c-0.225-0.057-0.562-0.113-0.629-0.269c-0.711-1.609-2.411-2.006-3.606-3.011
			c-0.768-0.643-1.512-1.308-2.248-1.984c-0.822-0.748-1.653-1.484-2.421-2.285c-0.336-0.345-0.552-0.816-0.746-1.263
			c-0.024-0.053,0.418-0.457,0.594-0.427c0.467,0.095,1.029,0.212,1.332,0.533c1.003,1.08,1.868,2.285,2.873,3.358
			C213.919,158.497,214.704,159.004,215.502,159.653z"/>
		<path fill-rule="evenodd" clip-rule="evenodd" fill="#1F303C" d="M255.271,116.488c-3.447,0.054-5.493-1.326-6.514-4.394
			c-0.427-1.285-0.026-2.365,1.148-3.091c1.925-1.198,5.898-0.861,7.637,0.649c0.239,0.208,0.474,0.427,0.71,0.646
			c0.958,0.861,1.772,1.708,1.221,3.208c-0.659,1.783-1.876,2.724-3.722,2.951C255.591,116.474,255.433,116.478,255.271,116.488z"/>
		<path fill-rule="evenodd" clip-rule="evenodd" fill="#1F303C" d="M71.332,55.044c1.625,0.302,3.576,1.365,4.669,3.661
			c0.656,1.375,0.389,3.013-0.589,4.035c-1.044,1.088-3.024,1.532-4.344,0.969c-0.545-0.231-1.104-0.441-1.631-0.714
			c-1.837-0.944-2.53-2.608-2.613-4.53C66.746,56.693,68.738,54.915,71.332,55.044z"/>
		<path fill-rule="evenodd" clip-rule="evenodd" fill="#1F303C" d="M130.549,53.512c-0.602-0.184-1.2-0.369-1.804-0.55
			c-0.308-0.091-0.652-0.305-0.924-0.234c-2.495,0.612-3.237-1.479-4.127-2.91c-1.324-2.127-2.201-4.522-3.384-6.743
			c-0.428-0.809-1.106-1.536-1.812-2.129c-1.214-1.024-1.524-1.67-0.972-2.989c0.096-0.227,0.543-0.478,0.784-0.442
			c1.153,0.184,2.346,1.353,2.314,2.458c-0.063,2.263,1.345,3.591,2.836,4.91c2.307,2.041,4.828,3.865,6.54,6.498
			c0.369,0.564,0.62,1.207,0.928,1.813C130.801,53.3,130.675,53.405,130.549,53.512z"/>
		<path fill-rule="evenodd" clip-rule="evenodd" fill="#1F303C" d="M243.015,60.976c0.649-0.819,1.239-1.696,1.963-2.45
			c1.916-1.995,3.865-3.954,5.847-5.885c0.537-0.521,1.257-0.845,1.848-1.318c1.176-0.945,2.3-1.946,3.475-2.891
			c0.645-0.516,1.3-1.06,2.036-1.402c0.881-0.412,1.273-0.015,1.041,0.971c-0.213,0.941-0.459,1.812-1.626,2.097
			c-2.189,0.529-3.285,2.43-4.714,3.92c-2.529,2.638-5.118,5.218-8.361,7.002c-0.352,0.194-0.794,0.234-1.196,0.346
			C243.221,61.234,243.118,61.106,243.015,60.976z"/>
		<path fill-rule="evenodd" clip-rule="evenodd" fill="#1F303C" d="M234.745,122.617c-2.745-0.095-4.371-2.313-3.192-4.571
			c0.35-0.665,1.145-1.156,1.827-1.58c0.725-0.453,1.543-0.786,2.359-1.058c0.275-0.087,0.754,0.068,0.993,0.279
			c0.523,0.469,0.93,1.065,1.421,1.58c0.941,0.971,1.067,2.554,0.07,3.706C237.354,121.975,236.289,122.799,234.745,122.617z"/>
		<path fill-rule="evenodd" clip-rule="evenodd" fill="#1F303C" d="M165.871,67.129c-0.65-0.563-1.287-0.839-1.423-1.271
			c-1.177-3.693-1.081-5.616,2.038-8.205c0.834-0.693,1.767-0.532,2.313,0.408c1.445,2.503,1.028,5.318-1.106,7.396
			C167.163,65.967,166.609,66.452,165.871,67.129z"/>
		<path fill-rule="evenodd" clip-rule="evenodd" fill="#1F303C" d="M77.568,150.476c0.908-1.22,1.698-2.376,2.598-3.438
			c0.271-0.317,0.838-0.427,1.294-0.536c0.704-0.174,1.427-0.269,2.226-0.408c0.396,0.657,0.971,1.496,1.425,2.392
			c0.537,1.062,0.244,2.112-0.555,2.86c-1.29,1.209-3.604,1.942-5.343,0.431C78.794,151.413,78.345,151.088,77.568,150.476z"/>
		<path fill-rule="evenodd" clip-rule="evenodd" fill="#1F303C" d="M147.696,17.843c0.046-2.08,0.916-3.178,2.493-3.146
			c2.059,0.042,3.705,1.563,3.58,3.3c-0.103,1.36-1.787,2.845-3.183,2.804C148.999,20.75,147.663,19.383,147.696,17.843z"/>
		<path fill-rule="evenodd" clip-rule="evenodd" fill="#1F303C" d="M98.702,141.06c1.268-0.665,2.243-1.292,3.302-1.7
			c1.203-0.465,2.872,0.408,3.495,1.667c0.459,0.929-0.009,2.546-0.942,3.241c-1.065,0.798-2.736,0.782-3.637-0.2
			C100.101,143.176,99.468,142.114,98.702,141.06z"/>
		<path fill-rule="evenodd" clip-rule="evenodd" fill="#1F303C" d="M239.419,144.291c1.874-0.072,3.477,1.359,3.463,3.234
			c-0.002,0.483-0.302,1.186-0.684,1.409c-1.112,0.649-2.347,1.016-3.665,0.476c-1.458-0.597-2.148-1.644-1.91-2.947
			C236.855,145.201,237.959,144.348,239.419,144.291z"/>
		<path fill-rule="evenodd" clip-rule="evenodd" fill="#1F303C" d="M249.005,141.963c1.752,0.317,3.153,0.574,4.563,0.816
			c1.065,0.185,2.13,0.404,3.199,0.525c1.62,0.178,2.718,1.156,3.564,2.396c0.582,0.835-0.242,1.874-1.391,1.636
			c-1.314-0.269-2.66-0.665-3.833-1.296c-1.921-1.031-3.716-2.294-5.562-3.465C249.425,142.5,249.346,142.353,249.005,141.963z"/>
		<path fill-rule="evenodd" clip-rule="evenodd" fill="#1F303C" d="M239.831,106.963c8.284-3.227,15.687-8.149,23.402-12.028
			c-1.144,1.664-4.61,4.577-6.915,5.553c-2.728,1.156-5.529,2.149-8.254,3.313c-2.276,0.979-4.481,2.116-6.735,3.151
			c-0.437,0.204-0.942,0.261-1.421,0.382C239.882,107.213,239.857,107.084,239.831,106.963z"/>
		<path fill-rule="evenodd" clip-rule="evenodd" fill="#1F303C" d="M113.087,1.446c1.528,1.249,2.809,2.356,2.316,4.43
			c-0.073,0.304,0.118,0.705,0.269,1.024c0.946,2.016,1.966,4.001,2.861,6.04c1.039,2.369,1.982,4.782,2.946,7.181
			c0.097,0.246,0.068,0.539-0.132,0.901c-1.059-1.982-2.231-3.913-3.149-5.958c-1.291-2.885-2.362-5.866-3.596-8.777
			c-0.354-0.837-0.86-1.642-1.438-2.345C112.51,3.148,112.688,2.44,113.087,1.446z"/>
		<path fill-rule="evenodd" clip-rule="evenodd" fill="#1F303C" d="M123.196,162.109c0.331-1.405,0.539-3.007,1.667-3.105
			c0.915-0.079,2.115,1.062,2.892,1.927c0.901,1.009,0.728,2.067-0.061,2.887c-0.762,0.801-2.137,1.055-3.091,0.307
			C123.985,163.644,123.655,162.794,123.196,162.109z"/>
		<path fill-rule="evenodd" clip-rule="evenodd" fill="#1F303C" d="M283.814,133.446c-0.491-0.075-0.979-0.109-1.441-0.241
			c-1.047-0.284-1.619-1.051-1.734-2.075c-0.083-0.778,1.027-2.036,1.917-2.032c0.928,0,1.958,0.128,2.739,0.57
			c0.582,0.325,1.13,1.209,1.187,1.882c0.076,0.986-0.848,1.466-1.727,1.741C284.453,133.394,284.126,133.401,283.814,133.446z"/>
		<path fill-rule="evenodd" clip-rule="evenodd" fill="#1F303C" d="M99.413,24.542c-0.743-1.073-1.482-2.144-2.228-3.213
			c-0.383-0.556-0.79-1.098-1.166-1.663c-1.133-1.71-2.21-3.461-3.405-5.129c-0.589-0.826-1.313-1.598-2.109-2.227
			c-1.503-1.188-2.13-2.396-1.772-3.837c1.831,0.246,2.737,1.428,3.291,3.17c0.5,1.572,1.508,2.996,2.367,4.438
			c0.569,0.956,1.31,1.808,1.9,2.751c1.06,1.694,2.07,3.419,3.094,5.137c0.088,0.146,0.13,0.323,0.192,0.487
			C99.522,24.481,99.468,24.512,99.413,24.542z"/>
		<path fill-rule="evenodd" clip-rule="evenodd" fill="#1F303C" d="M46.809,46.555c1.221,0.008,2.801,1.167,3.197,2.349
			c0.388,1.149-0.456,2.165-1.813,2.174c-1.468,0.012-3.183-1.479-3.379-2.939C44.679,47.133,45.421,46.544,46.809,46.555z"/>
		<path fill-rule="evenodd" clip-rule="evenodd" fill="#1F303C" d="M211.487,160.987c1.767,0.404,3.162,0.57,4.426,1.065
			c0.747,0.299,0.814,1.232,0.454,2.018c-0.357,0.771-1.077,0.93-1.725,0.624c-0.899-0.42-1.738-0.631-2.753-0.465
			c-0.75,0.125-1.744-1.1-1.7-1.859C210.257,161.268,211.022,161.025,211.487,160.987z"/>
		<path fill-rule="evenodd" clip-rule="evenodd" fill="#1F303C" d="M85.086,65.58c-0.025,1.094-0.918,1.882-2.093,1.854
			c-1.202-0.03-2.696-1.423-2.671-2.492c0.027-0.994,1.141-1.902,2.281-1.855C83.848,63.135,85.114,64.41,85.086,65.58z"/>
		<path fill-rule="evenodd" clip-rule="evenodd" fill="#1F303C" d="M261.763,80.807c1.289-0.593,2.575-1.185,3.862-1.779
			c0.979-0.453,1.931-0.984,2.939-1.36c1.228-0.457,2.522-0.744,3.754-1.201c0.568-0.214,1.058-0.656,1.575-1.006
			c0.127-0.086,0.206-0.308,0.333-0.328c0.504-0.085,1.011-0.144,1.515-0.142c0.074,0.004,0.255,0.534,0.2,0.574
			c-0.364,0.271-0.759,0.518-1.177,0.703c-1.009,0.439-2.276,0.601-3,1.318c-1.188,1.183-2.699,1.306-4.088,1.842
			c-0.968,0.374-1.954,0.699-2.94,1.024c-0.924,0.306-1.858,0.581-2.79,0.87C261.886,81.15,261.821,80.977,261.763,80.807z"/>
		<path fill-rule="evenodd" clip-rule="evenodd" fill="#1F303C" d="M93.047,91.647c-3.738-0.586-6.038-2.961-8.56-4.979
			c0.09-0.172,0.181-0.342,0.269-0.516c0.458,0.208,0.906,0.425,1.368,0.614c0.911,0.374,1.805,0.839,2.752,1.071
			c1.627,0.398,3.452,0.423,3.546,2.773C92.434,90.886,92.735,91.148,93.047,91.647z"/>
		<path fill-rule="evenodd" clip-rule="evenodd" fill="#1F303C" d="M38.276,117.607c0.001,0.041,0.003,0.083,0.001,0.121
			c-0.05,0.857-2.967,3.313-3.801,3.117c-0.369-0.084-0.808-0.382-0.959-0.707c-0.108-0.23,0.187-0.677,0.348-1.001
			c0.288-0.582,0.706-1.115,0.896-1.724c0.323-1.023,1.026-1.428,1.992-1.356C37.649,116.126,38.232,116.632,38.276,117.607z"/>
		<path fill-rule="evenodd" clip-rule="evenodd" fill="#1F303C" d="M115.873,24.892c1.11,1.075,2.04,1.993,2.127,3.51
			c0.034,0.563,0.438,1.105,0.62,1.534c0.716-0.521,1.295-1.288,1.787-1.237c1.052,0.11,1.167,1.57,0.195,1.75
			c-0.448,0.083-0.923,0.013-1.71,0.013c1.284,2.067,2.423,3.897,3.561,5.725c-0.093,0.06-0.183,0.121-0.275,0.183
			c-0.718-1.043-1.426-2.095-2.155-3.127c-1.153-1.634-2.248-3.315-3.507-4.863C115.656,27.327,115.588,26.278,115.873,24.892z"/>
		<path fill-rule="evenodd" clip-rule="evenodd" fill="#1F303C" d="M72.233,169.277c-0.019,1.47-1.016,2.434-2.346,2.444
			c-0.958,0.008-2.154-0.884-2.138-1.598c0.024-1.047,1.595-2.215,2.933-2.157C71.622,168.012,72.15,168.518,72.233,169.277z"/>
		<path fill-rule="evenodd" clip-rule="evenodd" fill="#1F303C" d="M155.612,58.224c0.91,0.024,2.332,1.418,2.326,2.283
			c-0.001,0.841-1.109,1.914-1.983,1.924c-0.924,0.008-2.254-1.427-2.253-2.432C153.702,59.105,154.677,58.2,155.612,58.224z"/>
		<path fill-rule="evenodd" clip-rule="evenodd" fill="#1F303C" d="M257.513,58.438c0.077,1.553-7.584,7.593-9.519,7.665
			C250.474,62.591,254.645,61.337,257.513,58.438z"/>
		<path fill-rule="evenodd" clip-rule="evenodd" fill="#1F303C" d="M25.89,133.125c0.464,0.137,1.467-0.064,1.673,1.085
			c0.193,1.073-0.537,1.496-1.367,1.817c-0.261,0.098-0.527,0.211-0.801,0.245c-1.083,0.133-2.311-0.631-2.351-1.598
			c-0.047-1.152,1.006-1.273,1.819-1.538C25.08,133.064,25.34,133.125,25.89,133.125z"/>
		<path fill-rule="evenodd" clip-rule="evenodd" fill="#1F303C" d="M197.771,81.767c0.142-1.369,0.92-2.292,1.642-1.938
			c0.489,0.24,1.022,0.952,1.035,1.468c0.036,0.974-0.905,1.236-2.58,0.813c-0.303,0.986-0.671,2.104-2.025,1.611
			c-0.359-0.13-0.766-1.07-0.631-1.452C195.673,80.964,196.755,81.435,197.771,81.767z"/>
		<path fill-rule="evenodd" clip-rule="evenodd" fill="#1F303C" d="M144.935,52.325c0.025,0.946-0.775,1.789-1.702,1.793
			c-1.055,0.002-1.839-0.892-1.839-2.09c0-0.854,0.844-1.808,1.598-1.81C143.874,50.215,144.911,51.337,144.935,52.325z"/>
		<path fill-rule="evenodd" clip-rule="evenodd" fill="#1F303C" d="M236.655,94.455c-0.78,0.007-2.119-1.109-1.848-1.71
			c0.299-0.663,0.984-1.398,1.649-1.589c1.005-0.285,2.365,0.688,2.369,1.362C238.836,93.368,237.628,94.439,236.655,94.455z"/>
		<path fill-rule="evenodd" clip-rule="evenodd" fill="#1F303C" d="M274.969,88.421c-0.697-1.187-0.182-1.714,0.845-1.831
			c2.252-0.257,4.508-0.431,6.76-0.657c0.787-0.078,1.564-0.229,2.35-0.297c0.541-0.047,1.094-0.01,1.642,0.119
			c-0.67,0.665-1.354,1.022-2.323,0.752c-0.548-0.153-1.179-0.021-1.776,0.015c-1.058,0.064-2.135,0.063-3.168,0.259
			c-1.041,0.199-2.044,0.576-3.043,0.934C275.813,87.873,275.42,88.165,274.969,88.421z"/>
		<path fill-rule="evenodd" clip-rule="evenodd" fill="#1F303C" d="M222.554,69.334c1.013,0.534,2.258,0.833,2.033,2.135
			c-0.109,0.587-0.884,1.282-1.502,1.484c-0.457,0.149-1.407-0.263-1.684-0.708C220.593,70.945,221.902,70.295,222.554,69.334z"/>
		<path fill-rule="evenodd" clip-rule="evenodd" fill="#1F303C" d="M143.041,61.111c-0.607-1.052-1.305-2.063-1.788-3.17
			c-0.257-0.589-0.245-1.506,0.642-1.649c0.556-0.09,1.406,0.11,1.728,0.505c0.325,0.396,0.438,1.508,0.155,1.759
			c-0.845,0.758-0.846,1.498-0.379,2.43C143.281,61.026,143.16,61.068,143.041,61.111z"/>
		<path fill-rule="evenodd" clip-rule="evenodd" fill="#1F303C" d="M270.962,10.879c0.017,1.133-0.599,1.787-1.763,1.748
			c-0.822-0.027-1.498-0.378-1.522-1.325c-0.021-0.952,0.926-1.868,1.828-1.863C270.257,9.443,270.948,10.127,270.962,10.879z"/>
		<path fill-rule="evenodd" clip-rule="evenodd" fill="#1F303C" d="M112.683,171.722c1.346-0.011,2.026,0.545,2.041,1.417
			c0.014,0.854-0.733,1.606-1.604,1.625c-1.065,0.012-1.624-0.552-1.645-1.632C111.455,172.081,112.043,171.711,112.683,171.722z"/>
		<path fill-rule="evenodd" clip-rule="evenodd" fill="#1F303C" d="M89.573,70.688c-1.564,0.006-2.342-0.652-2.265-1.621
			c0.051-0.663,0.05-1.439,1.069-1.423c1.019,0.02,2.188,0.95,2.029,1.812C90.311,69.981,89.763,70.422,89.573,70.688z"/>
		<path fill-rule="evenodd" clip-rule="evenodd" fill="#1F303C" d="M24.964,116.999c0.865,0.124,1.86-0.038,2.025,1.092
			c0.103,0.707-0.865,1.322-1.874,1.27c-0.887-0.045-1.85-0.253-1.824-1.312C23.313,117.104,24.24,117.021,24.964,116.999z"/>
		<path fill-rule="evenodd" clip-rule="evenodd" fill="#1F303C" d="M58.811,79.854c-1.399-0.047-2.466-0.987-2.395-1.787
			c0.071-0.821,0.654-1.043,1.366-1.021c0.979,0.03,2.168,0.955,1.965,1.65C59.595,79.216,59.02,79.609,58.811,79.854z"/>
		<path fill-rule="evenodd" clip-rule="evenodd" fill="#1F303C" d="M84.251,56.89c0.322-0.539,0.416-0.917,0.638-1.028
			c0.859-0.423,1.751-0.793,2.662-1.092c0.102-0.032,0.496,0.501,0.557,0.809c0.035,0.18-0.32,0.442-0.516,0.655
			c-0.251,0.276-0.652,0.497-0.75,0.816c-0.188,0.61-0.418,1.145-1.122,0.883C85.206,57.739,84.792,57.286,84.251,56.89z"/>
		<path fill-rule="evenodd" clip-rule="evenodd" fill="#1F303C" d="M199.126,41.742c-0.008,1.405-0.695,2.191-1.494,2.161
			c-0.889-0.03-1.156-0.657-1.23-1.375c-0.085-0.807,0.831-1.855,1.526-1.659C198.457,41.022,198.875,41.549,199.126,41.742z"/>
		<path fill-rule="evenodd" clip-rule="evenodd" fill="#1F303C" d="M285.662,44.101c0.89-0.703,1.813-1.372,2.658-2.125
			c0.698-0.625,1.305-1.354,1.955-2.036c0.221-0.23,0.416-0.508,0.68-0.673c0.747-0.461,1.525-0.875,2.353-1.232
			c-1.759,2.966-4.918,4.262-7.35,6.416C285.858,44.335,285.76,44.22,285.662,44.101z"/>
		<path fill-rule="evenodd" clip-rule="evenodd" fill="#1F303C" d="M283.13,59.977c-0.666-0.685-1.228-1.037-1.439-1.54
			c-0.215-0.516,1.176-1.696,1.926-1.694c0.778,0.002,1.359,0.563,1.146,1.203C284.536,58.624,283.829,59.146,283.13,59.977z"/>
		<path fill-rule="evenodd" clip-rule="evenodd" fill="#1F303C" d="M114.78,82.779c0.498-0.299,0.973-0.794,1.494-0.847
			c0.865-0.092,1.519,0.521,1.393,1.376c-0.068,0.467-0.685,1.092-1.162,1.211C115.691,84.72,114.935,83.883,114.78,82.779z"/>
		<path fill-rule="evenodd" clip-rule="evenodd" fill="#1F303C" d="M32.465,139.628c-0.744-0.616-1.684-1.027-1.717-1.508
			c-0.068-1.001,1-1.22,1.76-1.141c0.545,0.057,1.034,0.653,1.549,1.009C33.596,138.46,33.136,138.933,32.465,139.628z"/>
		<path fill-rule="evenodd" clip-rule="evenodd" fill="#1F303C" d="M39.838,106.037c0.572,0.768,1.206,1.255,1.195,1.724
			c-0.01,0.374-0.765,0.937-1.269,1.043c-0.852,0.185-1.618-0.397-1.56-1.221C38.238,107.126,39.08,106.718,39.838,106.037z"/>
		<path fill-rule="evenodd" clip-rule="evenodd" fill="#1F303C" d="M126.596,179.419c0.516,0.865,1.133,1.439,1.034,1.84
			c-0.121,0.518-0.826,0.896-1.278,1.33c-0.373-0.495-1.004-0.975-1.04-1.496C125.282,180.666,125.965,180.197,126.596,179.419z"/>
		<path fill-rule="evenodd" clip-rule="evenodd" fill="#1F303C" d="M73.947,163.651c-0.613-0.639-1.27-1.017-1.343-1.481
			c-0.139-0.88,0.685-1.311,1.393-1.235c0.479,0.053,1.294,0.74,1.25,1.035C75.167,162.495,74.545,162.934,73.947,163.651z"/>
		<path fill-rule="evenodd" clip-rule="evenodd" fill="#1F303C" d="M82.641,173.895c-0.636-0.635-1.3-0.99-1.304-1.36
			c-0.012-0.956,0.807-1.383,1.635-1.33c0.377,0.02,1.078,0.775,1.009,0.949C83.759,172.716,83.247,173.154,82.641,173.895z"/>
		<path fill-rule="evenodd" clip-rule="evenodd" fill="#1F303C" d="M75.778,31.493c-0.76-0.83-1.327-1.264-1.579-1.836
			c-0.076-0.168,0.792-1.084,1.119-1.028c0.558,0.095,1.204,0.601,1.467,1.111C76.919,29.996,76.289,30.644,75.778,31.493z"/>
		<path fill-rule="evenodd" clip-rule="evenodd" fill="#1F303C" d="M119.26,62.852c-1.312-0.036-1.843-0.586-1.728-1.456
			c0.049-0.367,0.851-1,1.021-0.917c0.584,0.284,1.15,0.768,1.479,1.319C120.133,61.966,119.449,62.603,119.26,62.852z"/>
		<path fill-rule="evenodd" clip-rule="evenodd" fill="#1F303C" d="M287.5,63.768c0.202,0.24,0.646,0.552,0.771,0.964
			c0.165,0.548-0.965,1.441-1.729,1.296c-0.398-0.075-1.021-0.576-1.013-0.871C285.562,64.186,286.361,63.906,287.5,63.768z"/>
		<path fill-rule="evenodd" clip-rule="evenodd" fill="#1F303C" d="M61.147,153.854c0.534,0.62,1.146,1.16,1.075,1.27
			c-0.349,0.544-0.808,1.16-1.369,1.368c-0.289,0.109-0.874-0.59-1.323-0.926C60.002,155.063,60.475,154.564,61.147,153.854z"/>
		<path fill-rule="evenodd" clip-rule="evenodd" fill="#1F303C" d="M147.89,186.159c0.553,0.722,1.1,1.138,1.195,1.629
			c0.151,0.786-0.526,1.122-1.219,1.148c-0.839,0.03-1.319-0.574-1.231-1.292C146.687,187.214,147.286,186.84,147.89,186.159z"/>
		<path fill-rule="evenodd" clip-rule="evenodd" fill="#1F303C" d="M119.848,65.435c0.602,0.854,1.12,1.335,1.271,1.913
			c0.066,0.258-0.587,0.981-0.956,1.015c-0.921,0.083-1.35-0.665-1.333-1.476C118.838,66.517,119.316,66.16,119.848,65.435z"/>
		<path fill-rule="evenodd" clip-rule="evenodd" fill="#1F303C" d="M253.983,66.413c1.514-1.496,3.032-2.992,4.549-4.489
			c0.137,0.142,0.274,0.284,0.408,0.424c-0.763,2.285-3.443,2.565-4.647,4.389C254.191,66.63,254.085,66.521,253.983,66.413z"/>
		<path fill-rule="evenodd" clip-rule="evenodd" fill="#1F303C" d="M94.737,49.429c1.324-0.011,1.689,0.669,1.696,1.472
			c0.003,0.274-0.576,0.774-0.903,0.784c-0.857,0.024-1.465-0.546-1.495-1.389C94.022,49.961,94.579,49.61,94.737,49.429z"/>
		<path fill-rule="evenodd" clip-rule="evenodd" fill="#1F303C" d="M132.215,182.514c0.133,0.809,0.401,1.492,0.277,2.089
			c-0.067,0.321-0.783,0.608-1.249,0.707c-0.175,0.03-0.632-0.499-0.678-0.816C130.428,183.567,130.967,183.005,132.215,182.514z"/>
		<path fill-rule="evenodd" clip-rule="evenodd" fill="#1F303C" d="M136.302,58.323c-0.67-1.249-1.349-2.07-0.487-3.095
			c0.81-0.087,1.624,0.184,1.615,0.994C137.426,56.848,136.789,57.47,136.302,58.323z"/>
		<path fill-rule="evenodd" clip-rule="evenodd" fill="#1F303C" d="M267.977,128.663c-0.603-0.556-0.971-0.899-1.337-1.239
			c0.451-0.359,0.861-0.885,1.375-1.021c0.279-0.075,0.734,0.51,1.114,0.797C268.797,127.62,268.47,128.036,267.977,128.663z"/>
		<path fill-rule="evenodd" clip-rule="evenodd" fill="#1F303C" d="M42.332,79.446c-0.605-0.651-1.031-1.112-1.459-1.573
			c0.342-0.263,0.798-0.813,0.999-0.731c0.556,0.224,1.004,0.713,1.494,1.096C43.087,78.563,42.81,78.888,42.332,79.446z"/>
		<path fill-rule="evenodd" clip-rule="evenodd" fill="#1F303C" d="M207.78,49.884c-0.73,0.608-1.209,1.006-1.694,1.41
			c-0.279-0.38-0.816-0.8-0.766-1.126c0.07-0.427,0.546-0.981,0.958-1.1C206.592,48.977,207.078,49.476,207.78,49.884z"/>
		<path fill-rule="evenodd" clip-rule="evenodd" fill="#1F303C" d="M223.202,166.039c1.895,0.639,2.286,0.99,2.77,2.426
			C224.466,168.341,223.412,167.452,223.202,166.039z"/>
		<path fill-rule="evenodd" clip-rule="evenodd" fill="#1F303C" d="M54.527,82.906c0.363,0.51,0.854,0.991,0.774,1.116
			c-0.285,0.459-0.762,0.799-1.166,1.183c-0.297-0.342-0.901-0.797-0.825-0.999C53.475,83.76,53.987,83.444,54.527,82.906z"/>
		<path fill-rule="evenodd" clip-rule="evenodd" fill="#1F303C" d="M287.844,165.113c-0.697,0.438-1.114,0.889-1.356,0.809
			c-0.527-0.166-0.967-0.611-1.445-0.948c0.21-0.283,0.495-0.839,0.614-0.809C286.295,164.354,286.892,164.679,287.844,165.113z"/>
		<path fill-rule="evenodd" clip-rule="evenodd" fill="#1F303C" d="M80.048,67.899c-0.715-0.663-2.01,0.271-2.103-1.141
			c-0.016-0.251,0.698-0.831,0.895-0.762C79.527,66.245,80.364,66.549,80.048,67.899z"/>
		<path fill-rule="evenodd" clip-rule="evenodd" fill="#1F303C" d="M96.933,94.506c-1.228,0.38-2.143,0.105-2.268-0.686
			c-0.041-0.246,0.28-0.788,0.388-0.775C95.912,93.14,96.845,93.225,96.933,94.506z"/>
		<path fill-rule="evenodd" clip-rule="evenodd" fill="#1F303C" d="M176.098,180.106c-0.572,0.404-0.956,0.857-1.177,0.794
			c-0.458-0.147-0.833-0.571-1.243-0.877c0.41-0.317,0.785-0.771,1.245-0.884C175.155,179.079,175.544,179.631,176.098,180.106z"/>
		<path fill-rule="evenodd" clip-rule="evenodd" fill="#1F303C" d="M194.749,23.533c0,0.71,0,1.421,0,2.131
			c-0.354-0.155-0.836-0.219-1.038-0.489c-0.619-0.827,0.025-1.264,0.586-1.683C194.444,23.507,194.598,23.52,194.749,23.533z"/>
		<path fill-rule="evenodd" clip-rule="evenodd" fill="#1F303C" d="M160.319,173.804c-0.713,0.404-1.126,0.809-1.544,0.813
			c-0.249,0-0.756-0.673-0.695-0.948c0.074-0.336,0.602-0.774,0.954-0.797C159.355,172.852,159.705,173.339,160.319,173.804z"/>
		<path fill-rule="evenodd" clip-rule="evenodd" fill="#1F303C" d="M219.159,49.319c-0.643,0.406-1.037,0.843-1.443,0.851
			c-0.275,0.004-0.563-0.584-0.847-0.909c0.376-0.287,0.724-0.718,1.147-0.809C218.258,48.396,218.623,48.889,219.159,49.319z"/>
		<path fill-rule="evenodd" clip-rule="evenodd" fill="#1F303C" d="M189.032,81.313c-0.397-0.512-0.897-0.896-0.839-1.15
			c0.075-0.323,0.66-0.798,0.931-0.745c0.424,0.089,0.77,0.563,1.147,0.877C189.926,80.578,189.576,80.863,189.032,81.313z"/>
		<path fill-rule="evenodd" clip-rule="evenodd" fill="#1F303C" d="M186.113,59.438c0.083,0.52,0.26,1.047,0.208,1.552
			c-0.021,0.209-0.577,0.564-0.797,0.506c-0.307-0.083-0.793-0.566-0.743-0.742c0.151-0.503,0.531-0.938,0.821-1.398
			C185.774,59.383,185.943,59.411,186.113,59.438z"/>
		<path fill-rule="evenodd" clip-rule="evenodd" fill="#1F303C" d="M84.458,162.809c0.458,0.582,0.708,0.896,0.96,1.213
			c-0.377,0.295-0.722,0.673-1.15,0.831c-0.146,0.057-0.755-0.51-0.71-0.665C83.679,163.769,84.037,163.409,84.458,162.809z"/>
		<path fill-rule="evenodd" clip-rule="evenodd" fill="#1F303C" d="M92.646,108.38c-0.375,0.182-0.803,0.567-1.113,0.487
			c-0.354-0.09-0.601-0.593-0.895-0.918c0.302-0.2,0.61-0.57,0.905-0.559c0.377,0.011,0.74,0.332,1.11,0.521
			C92.649,108.066,92.648,108.222,92.646,108.38z"/>
		<path fill-rule="evenodd" clip-rule="evenodd" fill="#1F303C" d="M186.069,184.259c-0.298-0.96-0.592-1.923-0.888-2.879
			C186.607,182.192,186.814,182.902,186.069,184.259z"/>
		<path fill-rule="evenodd" clip-rule="evenodd" fill="#1F303C" d="M88.805,59.869c-0.603,0.296-0.987,0.621-1.139,0.534
			c-0.418-0.234-0.742-0.645-1.103-0.984c0.228-0.21,0.553-0.643,0.667-0.591C87.696,59.028,88.098,59.378,88.805,59.869z"/>
		<path fill-rule="evenodd" clip-rule="evenodd" fill="#1F303C" d="M287.564,111.313c-0.588,0.435-0.979,0.918-1.209,0.85
			c-0.418-0.117-0.743-0.566-1.105-0.872c0.336-0.23,0.655-0.608,1.011-0.635C286.584,110.628,286.938,110.976,287.564,111.313z"/>
		<path fill-rule="evenodd" clip-rule="evenodd" fill="#1F303C" d="M160.821,53.577c0.437,0.503,0.949,0.835,0.951,1.174
			c0.002,0.321-0.525,0.646-0.821,0.971c-0.312-0.323-0.786-0.603-0.885-0.979C160.001,54.49,160.465,54.095,160.821,53.577z"/>
		<path fill-rule="evenodd" clip-rule="evenodd" fill="#1F303C" d="M200.562,174.016c-0.601,0.355-0.997,0.771-1.256,0.691
			c-0.346-0.102-0.716-0.548-0.805-0.91c-0.044-0.182,0.553-0.748,0.801-0.715C199.67,173.136,199.985,173.563,200.562,174.016z"/>
		<path fill-rule="evenodd" clip-rule="evenodd" fill="#1F303C" d="M188.546,191.888c-0.528-1.462-0.947-2.618-1.368-3.778
			C188.476,188.831,188.582,189.183,188.546,191.888z"/>
		<path fill-rule="evenodd" clip-rule="evenodd" fill="#1F303C" d="M46.594,94.92c-0.646,0.462-1.075,0.825-1.564,1.07
			c-0.081,0.042-0.416-0.415-0.632-0.642c0.445-0.333,0.874-0.697,1.354-0.972C45.846,94.326,46.137,94.617,46.594,94.92z"/>
		<path fill-rule="evenodd" clip-rule="evenodd" fill="#1F303C" d="M39.739,123.721c-0.391-0.529-0.756-0.847-0.839-1.225
			c-0.039-0.166,0.577-0.702,0.754-0.642c0.361,0.117,0.728,0.479,0.888,0.839C40.608,122.84,40.141,123.222,39.739,123.721z"/>
		<path fill-rule="evenodd" clip-rule="evenodd" fill="#1F303C" d="M246.09,141.12c-0.674-0.158-1.373-0.271-2.02-0.506
			c-0.23-0.083-0.342-0.483-0.506-0.737c0.35-0.041,0.771-0.223,1.037-0.094c0.546,0.275,1.011,0.714,1.513,1.084
			C246.107,140.95,246.102,141.033,246.09,141.12z"/>
		<path fill-rule="evenodd" clip-rule="evenodd" fill="#1F303C" d="M149.018,57.907c-0.455,0.406-0.778,0.883-0.978,0.836
			c-0.35-0.082-0.727-0.438-0.879-0.775c-0.063-0.144,0.414-0.755,0.641-0.754C148.143,57.22,148.481,57.577,149.018,57.907z"/>
		<path fill-rule="evenodd" clip-rule="evenodd" fill="#1F303C" d="M143.689,32.766c-0.099-0.888-0.188-1.466-0.214-2.046
			c-0.008-0.208,0.08-0.512,0.229-0.608c0.15-0.096,0.512-0.072,0.634,0.047c0.168,0.163,0.318,0.512,0.254,0.703
			C144.393,31.43,144.082,31.959,143.689,32.766z"/>
		<path fill-rule="evenodd" clip-rule="evenodd" fill="#1F303C" d="M253.26,161.233c-0.527,0.295-0.859,0.627-1.067,0.559
			c-0.359-0.109-0.641-0.472-0.952-0.732c0.279-0.23,0.572-0.665,0.825-0.646C252.406,160.443,252.714,160.833,253.26,161.233z"/>
		<path fill-rule="evenodd" clip-rule="evenodd" fill="#1F303C" d="M241.554,78.494c-1.101,0.517-2.204,1.034-3.306,1.548
			c-0.057-0.109-0.113-0.222-0.17-0.333c1.067-0.582,2.137-1.163,3.202-1.745C241.371,78.142,241.464,78.318,241.554,78.494z"/>
		<path fill-rule="evenodd" clip-rule="evenodd" fill="#1F303C" d="M234.488,110.345c0.331,0.374,0.529,0.604,0.733,0.831
			c-0.327,0.291-0.628,0.65-1.011,0.82c-0.103,0.045-0.707-0.566-0.652-0.718C233.678,110.953,234.074,110.73,234.488,110.345z"/>
		<path fill-rule="evenodd" clip-rule="evenodd" fill="#1F303C" d="M184.378,175.837c0.239,0.869,0.481,1.738,0.804,2.895
			c-1.266-0.809-1.324-0.994-1.169-2.812C184.136,175.894,184.257,175.863,184.378,175.837z"/>
		<path fill-rule="evenodd" clip-rule="evenodd" fill="#1F303C" d="M198.024,60.076c-0.378-0.554-0.772-0.878-0.738-1.146
			c0.039-0.308,0.463-0.563,0.722-0.843c0.202,0.252,0.563,0.497,0.57,0.754C198.588,59.162,198.306,59.489,198.024,60.076z"/>
		<path fill-rule="evenodd" clip-rule="evenodd" fill="#1F303C" d="M89.551,142.567c0.349,0.48,0.739,0.786,0.704,1.031
			c-0.038,0.272-0.466,0.681-0.721,0.677c-0.295,0-0.585-0.393-0.877-0.616C88.905,143.361,89.15,143.059,89.551,142.567z"/>
		<path fill-rule="evenodd" clip-rule="evenodd" fill="#1F303C" d="M295.909,99.206c0.518-0.813,1.128-0.816,1.842-0.265
			C297.096,100.049,296.813,100.094,295.909,99.206z"/>
		<path fill-rule="evenodd" clip-rule="evenodd" fill="#1F303C" d="M238.671,167.819c-0.521,0.344-0.837,0.702-1.035,0.646
			c-0.358-0.094-0.645-0.449-0.962-0.695c0.271-0.196,0.527-0.536,0.802-0.548C237.783,167.218,238.095,167.513,238.671,167.819z"/>
		<path fill-rule="evenodd" clip-rule="evenodd" fill="#1F303C" d="M243.532,150.053c-0.232,1.342-0.768,1.474-1.405,1.19
			c-0.176-0.076-0.189-0.514-0.276-0.778C242.332,150.348,242.818,150.227,243.532,150.053z"/>
		<path fill-rule="evenodd" clip-rule="evenodd" fill="#1F303C" d="M151.255,67.341c-0.302-0.601-0.561-0.911-0.585-1.239
			c-0.012-0.178,0.483-0.58,0.57-0.535c0.275,0.142,0.612,0.429,0.647,0.697C151.918,66.51,151.591,66.802,151.255,67.341z"/>
		<path fill-rule="evenodd" clip-rule="evenodd" fill="#1F303C" d="M92.653,138.347c-0.698,0.325-1.05,0.604-1.404,0.608
			c-0.216,0.008-0.438-0.411-0.659-0.642c0.3-0.2,0.582-0.518,0.905-0.571C91.74,137.705,92.035,138.011,92.653,138.347z"/>
		<path fill-rule="evenodd" clip-rule="evenodd" fill="#1F303C" d="M199.589,169.75c-0.576-0.858-1.15-1.712-1.723-2.565
			c0.102-0.072,0.202-0.141,0.306-0.216c0.572,0.857,1.621,1.391,1.774,2.539C199.825,169.584,199.706,169.667,199.589,169.75z"/>
		<path fill-rule="evenodd" clip-rule="evenodd" fill="#1F303C" d="M243.502,171.163c0.14,0.37,0.386,0.752,0.374,1.126
			c-0.006,0.249-0.376,0.491-0.588,0.736c-0.304-0.268-0.639-0.506-0.884-0.823c-0.042-0.061,0.325-0.427,0.503-0.65
			C243.104,171.424,243.302,171.291,243.502,171.163z"/>
		<path fill-rule="evenodd" clip-rule="evenodd" fill="#1F303C" d="M284.742,97.585c0.419-1.009,0.94-1.141,1.545-0.767
			c0.172,0.102,0.159,0.502,0.229,0.767C285.968,97.585,285.424,97.585,284.742,97.585z"/>
		<path fill-rule="evenodd" clip-rule="evenodd" fill="#1F303C" d="M221.253,103.752c-0.717,0.2-1.098,0.389-1.471,0.37
			c-0.174-0.008-0.32-0.431-0.481-0.669c0.31-0.174,0.622-0.477,0.936-0.487C220.481,102.962,220.733,103.328,221.253,103.752z"/>
		<path fill-rule="evenodd" clip-rule="evenodd" fill="#1F303C" d="M310.224,100.113c0.574-0.038,1.15-0.087,1.87-0.141
			C311.435,101.341,311.221,101.371,310.224,100.113z"/>
		<path fill-rule="evenodd" clip-rule="evenodd" fill="#1F303C" d="M259.069,160.107c0.366,0.453,0.643,0.726,0.811,1.058
			c0.03,0.049-0.499,0.537-0.614,0.487c-0.34-0.17-0.61-0.495-0.91-0.756C258.536,160.692,258.724,160.492,259.069,160.107z"/>
		<path fill-rule="evenodd" clip-rule="evenodd" fill="#1F303C" d="M88.917,109.449c-0.565,0.254-0.877,0.518-1.056,0.446
			c-0.305-0.125-0.532-0.457-0.788-0.707c0.249-0.14,0.509-0.411,0.741-0.389C88.101,108.826,88.36,109.102,88.917,109.449z"/>
		<path fill-rule="evenodd" clip-rule="evenodd" fill="#1F303C" d="M67.769,189.998c0.388-0.249,0.775-0.494,1.165-0.74
			c0.136,0.234,0.271,0.465,0.408,0.703c-0.433,0.188-0.865,0.374-1.3,0.566C67.95,190.35,67.86,190.176,67.769,189.998z"/>
		<path fill-rule="evenodd" clip-rule="evenodd" fill="#1F303C" d="M257.947,160.315c-0.44,0.268-0.758,0.597-0.915,0.528
			c-0.317-0.132-0.546-0.472-0.807-0.726c0.236-0.162,0.501-0.476,0.72-0.449C257.232,159.703,257.495,160.001,257.947,160.315z"/>
		<path fill-rule="evenodd" clip-rule="evenodd" fill="#1F303C" d="M320.598,92.357c0.508-0.047,1.013-0.091,1.515-0.136
			c0.021,0.16,0.034,0.321,0.055,0.481c-0.465,0.511-0.95,0.867-1.573,0.204C320.594,92.725,320.598,92.539,320.598,92.357z"/>
		<path fill-rule="evenodd" clip-rule="evenodd" fill="#1F303C" d="M118.422,56.914c-0.334,0.253-0.641,0.554-0.695,0.514
			c-0.287-0.214-0.552-0.487-0.727-0.793c-0.045-0.08,0.268-0.359,0.418-0.547C117.704,56.324,117.992,56.561,118.422,56.914z"/>
	</g>
</g>
</svg>
