<?xml version="1.0" encoding="utf-8"?>
<!-- Generator: Adobe Illustrator 16.0.0, SVG Export Plug-In . SVG Version: 6.00 Build 0)  -->
<!DOCTYPE svg PUBLIC "-//W3C//DTD SVG 1.1//EN" "http://www.w3.org/Graphics/SVG/1.1/DTD/svg11.dtd">
<svg version="1.1" id="Layer_1" xmlns="http://www.w3.org/2000/svg" xmlns:xlink="http://www.w3.org/1999/xlink" x="0px" y="0px"
	 width="39px" height="39px" viewBox="0 0 39 39" enable-background="new 0 0 39 39" xml:space="preserve">
<g>
	<g>
		<g>
			<path fill="#939292" d="M19.5,38.5c-10.477,0-19-8.522-19-19C0.5,9.024,9.023,0.5,19.5,0.5c10.476,0,19,8.524,19,19.001
				C38.5,29.978,29.976,38.5,19.5,38.5z M25.905,11.792c-0.775,0-1.405,0.629-1.405,1.406c0,0.776,0.63,1.406,1.405,1.406
				c0.777,0,1.406-0.629,1.406-1.406C27.312,12.42,26.683,11.792,25.905,11.792z M19.654,13.595c-3.254,0-5.904,2.649-5.904,5.906
				c0,3.256,2.65,5.906,5.904,5.906c3.258,0,5.907-2.649,5.907-5.906C25.562,16.244,22.912,13.595,19.654,13.595z M19.654,23.284
				c-2.084,0-3.781-1.696-3.781-3.784c0-2.086,1.697-3.784,3.781-3.784c2.089,0,3.784,1.698,3.784,3.784
				C23.438,21.588,21.743,23.284,19.654,23.284z M31.573,14.592c0-3.979-3.226-7.204-7.205-7.204h-9.507
				c-3.979,0-7.203,3.226-7.203,7.204v9.509c0,3.979,3.225,7.203,7.203,7.203h9.507c3.979,0,7.205-3.225,7.205-7.203V14.592z
				 M29.316,24.101c0,2.732-2.216,4.948-4.948,4.948h-9.507c-2.732,0-4.947-2.216-4.947-4.948v-9.509
				c0-2.732,2.215-4.948,4.947-4.948h9.507c2.732,0,4.948,2.216,4.948,4.948V24.101z"/>
		</g>
	</g>
</g>
</svg>
