<?xml version="1.0" encoding="utf-8"?>
<!-- Generator: Adobe Illustrator 16.0.0, SVG Export Plug-In . SVG Version: 6.00 Build 0)  -->
<!DOCTYPE svg PUBLIC "-//W3C//DTD SVG 1.1//EN" "http://www.w3.org/Graphics/SVG/1.1/DTD/svg11.dtd">
<svg version="1.1" id="Layer_1" xmlns="http://www.w3.org/2000/svg" xmlns:xlink="http://www.w3.org/1999/xlink" x="0px" y="0px"
	 width="50px" height="50px" viewBox="0 0 50 50" enable-background="new 0 0 50 50" xml:space="preserve">
<g>
	<path fill-rule="evenodd" clip-rule="evenodd" fill="#289DD3" d="M9.964,9.692c0,0.192,0,0.356,0,0.515
		c0,1.291-0.009,2.581,0.004,3.872c0.011,1.166,0.527,2.063,1.578,2.585c1.035,0.513,2.055,0.409,2.98-0.287
		c0.738-0.557,1.107-1.322,1.114-2.248c0.009-1.337,0.002-2.676,0.003-4.011c0-0.128,0-0.256,0-0.411c6.164,0,12.304,0,18.497,0
		c0,0.12,0,0.243,0,0.367c0,1.361-0.008,2.722,0.004,4.082c0.014,1.408,1.111,2.645,2.449,2.787
		c1.516,0.157,2.828-0.747,3.148-2.195c0.059-0.261,0.068-0.535,0.07-0.802c0.006-1.29,0-2.581,0-3.871
		c0-0.115,0.01-0.23,0.016-0.372c0.775-0.079,1.506,0.042,2.217,0.301c2.193,0.798,3.627,2.859,3.629,5.228
		c0.006,5.561,0.002,11.12,0.002,16.68c0,3.191,0.016,6.379-0.004,9.57c-0.016,2.199-1.002,3.863-2.922,4.948
		c-0.723,0.41-1.516,0.616-2.352,0.636c-0.129,0.005-0.258,0.005-0.387,0.005c-9.969,0.002-19.939,0.002-29.909,0
		c-2.42,0-4.433-1.322-5.255-3.516c-0.225-0.604-0.368-1.275-0.37-1.919c-0.024-8.832-0.021-17.663-0.013-26.495
		c0.002-2.839,2.292-5.295,5.049-5.447C9.642,9.686,9.77,9.692,9.964,9.692z M7.251,20.262c0,0.155,0,0.292,0,0.429
		c0,6.895,0,13.794,0.001,20.69c0,1.781,1.142,2.924,2.925,2.924c9.923,0,19.847-0.011,29.771,0.009
		c1.795,0.005,2.961-1.359,2.953-2.957c-0.037-6.908-0.016-13.817-0.018-20.728c0-0.122-0.012-0.245-0.016-0.367
		C30.982,20.262,19.139,20.262,7.251,20.262z"/>
	<path fill-rule="evenodd" clip-rule="evenodd" fill="#289DD3" d="M34.896,10.441c0-1.207,0-2.413,0-3.622
		c0.002-1.227,0.895-2.155,2.074-2.155c1.191,0.002,2.09,0.901,2.094,2.132c0.008,2.451,0.008,4.899,0,7.352
		c-0.004,1.127-0.912,2.042-2.021,2.068c-1.133,0.026-2.066-0.809-2.129-1.942c-0.035-0.643-0.016-1.289-0.016-1.934
		C34.896,11.709,34.896,11.076,34.896,10.441z"/>
	<path fill-rule="evenodd" clip-rule="evenodd" fill="#289DD3" d="M14.885,10.45c0,1.22,0.011,2.439-0.003,3.657
		c-0.013,1.09-0.693,1.889-1.729,2.075c-1.229,0.224-2.418-0.72-2.427-1.971c-0.018-2.511-0.013-5.017,0-7.526
		c0.006-1.107,0.923-1.998,2.029-2.018c1.138-0.024,2.083,0.815,2.117,1.951c0.037,1.277,0.008,2.555,0.008,3.832
		C14.88,10.45,14.882,10.45,14.885,10.45z"/>
	<path fill-rule="evenodd" clip-rule="evenodd" fill="#289DD3" d="M14.277,34.891c-1.355,0-2.683,0-4.03,0c0-1.339,0-2.655,0-4.004
		c1.339,0,2.675,0,4.03,0C14.277,32.217,14.277,33.534,14.277,34.891z"/>
	<path fill-rule="evenodd" clip-rule="evenodd" fill="#289DD3" d="M26.945,34.887c-1.351,0-2.68,0-4.026,0c0-1.342,0-2.661,0-4.004
		c1.346,0,2.673,0,4.026,0C26.945,32.212,26.945,33.531,26.945,34.887z"/>
	<path fill-rule="evenodd" clip-rule="evenodd" fill="#289DD3" d="M20.745,30.887c0,1.332,0,2.651,0,3.995c-1.346,0-2.675,0-4.024,0
		c0-1.324,0-2.643,0-3.995C18.053,30.887,19.391,30.887,20.745,30.887z"/>
	<path fill-rule="evenodd" clip-rule="evenodd" fill="#289DD3" d="M39.883,30.889c0,1.332,0,2.649,0,3.995c-1.346,0-2.676,0-4.023,0
		c0-1.328,0-2.645,0-3.995C37.193,30.889,38.527,30.889,39.883,30.889z"/>
	<path fill-rule="evenodd" clip-rule="evenodd" fill="#289DD3" d="M20.737,41.437c-1.351,0-2.68,0-4.024,0c0-1.342,0-2.661,0-4.007
		c1.343,0,2.671,0,4.024,0C20.737,38.749,20.737,40.068,20.737,41.437z"/>
	<path fill-rule="evenodd" clip-rule="evenodd" fill="#289DD3" d="M22.843,24.324c1.346,0,2.667,0,4.018,0c0,1.336,0,2.665,0,4.017
		c-1.339,0-2.668,0-4.018,0C22.843,27.006,22.843,25.685,22.843,24.324z"/>
	<path fill-rule="evenodd" clip-rule="evenodd" fill="#289DD3" d="M33.502,30.88c0,1.346,0,2.656,0,3.991
		c-0.096,0.016-0.184,0.037-0.271,0.037c-1.158,0-2.318,0-3.479,0c-0.182,0.002-0.311-0.011-0.309-0.256
		c0.01-1.218,0.006-2.436,0.008-3.652c0-0.034,0.016-0.067,0.029-0.12C30.811,30.88,32.139,30.88,33.502,30.88z"/>
	<path fill-rule="evenodd" clip-rule="evenodd" fill="#289DD3" d="M10.256,37.423c1.339,0,2.667,0,4.018,0c0,1.335,0,2.654,0,4.005
		c-1.334,0-2.662,0-4.018,0C10.256,40.1,10.256,38.771,10.256,37.423z"/>
	<path fill-rule="evenodd" clip-rule="evenodd" fill="#289DD3" d="M26.955,37.425c0,1.351,0,2.659,0,4.001c-1.339,0-2.665,0-4.021,0
		c0-1.326,0-2.652,0-4.001C24.268,37.425,25.595,37.425,26.955,37.425z"/>
	<path fill-rule="evenodd" clip-rule="evenodd" fill="#289DD3" d="M29.49,37.423c1.324,0,2.645,0,3.994,0c0,1.326,0,2.652,0,4.007
		c-1.32,0-2.637,0-3.994,0C29.49,40.106,29.49,38.773,29.49,37.423z"/>
	<path fill-rule="evenodd" clip-rule="evenodd" fill="#289DD3" d="M29.375,28.336c0-1.012,0-1.981,0-2.952
		c0-0.283-0.018-0.566,0.01-0.844c0.008-0.084,0.145-0.226,0.223-0.226c1.242-0.009,2.484,0,3.727,0.005
		c0.02,0,0.039,0.02,0.082,0.042c0,1.306,0,2.627,0,3.975C32.074,28.336,30.748,28.336,29.375,28.336z"/>
	<path fill-rule="evenodd" clip-rule="evenodd" fill="#289DD3" d="M35.785,24.324c1.338,0,2.656,0,4.004,0c0,1.343,0,2.673,0,4.021
		c-1.33,0-2.652,0-4.004,0C35.785,27.022,35.785,25.694,35.785,24.324z"/>
</g>
</svg>
