<?xml version="1.0" encoding="utf-8"?>
<!-- Generator: Adobe Illustrator 16.0.0, SVG Export Plug-In . SVG Version: 6.00 Build 0)  -->
<!DOCTYPE svg PUBLIC "-//W3C//DTD SVG 1.1//EN" "http://www.w3.org/Graphics/SVG/1.1/DTD/svg11.dtd">
<svg version="1.1" id="Layer_1" xmlns="http://www.w3.org/2000/svg" xmlns:xlink="http://www.w3.org/1999/xlink" x="0px" y="0px"
	 width="50px" height="50px" viewBox="0 0 50 50" enable-background="new 0 0 50 50" xml:space="preserve">
<g>
	<path fill-rule="evenodd" clip-rule="evenodd" fill="#289DD3" d="M5.474,7.699c-0.946-0.003-1.619-0.637-1.615-1.51
		c0.005-0.853,0.676-1.485,1.589-1.487c1.955-0.003,3.908-0.003,5.862,0c0.832,0.001,1.386,0.445,1.557,1.262
		c0.33,1.566,0.646,3.137,0.977,4.74c0.205,0,0.39,0,0.574,0c9.926,0,19.851,0,29.778,0c1.245,0,1.873,0.792,1.639,2.025
		c-0.313,1.638-0.598,3.28-0.896,4.921c-0.678,3.71-1.351,7.421-2.037,11.129c-0.19,1.037-0.694,1.43-1.742,1.43
		c-7.534,0-15.068,0-22.602,0c-0.187,0-0.372,0-0.606,0c0.215,1.026,0.423,2.01,0.631,3.005c0.237,0,0.424,0,0.61,0
		c7.346,0,14.693,0,22.039,0c0.959,0,1.635,0.613,1.643,1.481c0.009,0.891-0.669,1.517-1.655,1.517c-7.924,0-15.849,0-23.774-0.001
		c-0.868,0-1.409-0.428-1.59-1.278c-0.482-2.271-0.954-4.545-1.43-6.816c-1.177-5.625-2.356-11.252-3.534-16.878
		c-0.246-1.172-0.496-2.343-0.748-3.539C8.565,7.7,7.019,7.702,5.474,7.699z M20.344,13.738c-1.943,0-3.885,0-5.867,0
		c0.351,1.678,0.695,3.352,1.051,5.022c0.203,0.95,0.212,0.948,1.196,0.948c1.199,0,2.397,0,3.62,0
		C20.344,17.7,20.344,15.736,20.344,13.738z M35.35,19.687c0-1.983,0-3.946,0-5.947c-1.465,0-2.939,0-4.447,0
		c0,1.961,0,3.936,0,5.947C32.398,19.687,33.86,19.687,35.35,19.687z M23.39,13.724c0,1.983,0,3.946,0,5.948c1.466,0,2.94,0,4.447,0
		c0-1.963,0-3.937,0-5.948C26.342,13.724,24.879,13.724,23.39,13.724z M38.41,13.716c0,1.973,0,3.946,0,5.956
		c0.985,0,1.99,0,3.074,0c0.357-1.95,0.721-3.93,1.091-5.956C41.159,13.716,39.805,13.716,38.41,13.716z M35.35,27.191
		c0-1.484,0-2.947,0-4.447c-1.465,0-2.939,0-4.447,0c0,1.461,0,2.935,0,4.447C32.398,27.191,33.86,27.191,35.35,27.191z
		 M27.849,22.73c-1.486,0-2.947,0-4.446,0c0,1.469,0,2.943,0,4.45c1.464,0,2.939,0,4.446,0
		C27.849,25.679,27.849,24.216,27.849,22.73z M16.38,22.726c0.332,1.51,0.657,2.989,0.983,4.472c1.006,0,1.971,0,2.97,0
		c0-1.48,0-2.952,0-4.472C19.02,22.726,17.73,22.726,16.38,22.726z M38.393,27.185c0.574,0,1.13,0,1.738,0
		c0.267-1.464,0.533-2.942,0.805-4.452c-0.862,0-1.682,0-2.543,0C38.393,24.234,38.393,25.696,38.393,27.185z"/>
	<path fill-rule="evenodd" clip-rule="evenodd" fill="#289DD3" d="M32.372,42.221c0-2.479,2.013-4.501,4.487-4.503
		c2.504-0.004,4.519,2.012,4.514,4.52c-0.005,2.471-2.025,4.481-4.508,4.48C34.389,46.716,32.372,44.699,32.372,42.221z
		 M38.375,42.242c0.011-0.835-0.666-1.525-1.5-1.527c-0.814-0.002-1.493,0.666-1.504,1.478c-0.011,0.835,0.667,1.525,1.5,1.526
		C37.688,43.721,38.365,43.054,38.375,42.242z"/>
	<path fill-rule="evenodd" clip-rule="evenodd" fill="#289DD3" d="M24.866,42.185c0.005,2.49-1.995,4.526-4.456,4.533
		c-2.517,0.007-4.542-1.994-4.544-4.493c-0.002-2.481,2.007-4.503,4.48-4.507C22.832,37.714,24.86,39.72,24.866,42.185z
		 M21.868,42.239c0.01-0.835-0.669-1.524-1.504-1.524c-0.832,0-1.513,0.692-1.499,1.527c0.01,0.813,0.687,1.479,1.501,1.477
		C21.182,43.719,21.857,43.052,21.868,42.239z"/>
</g>
</svg>
