<?xml version="1.0" encoding="utf-8"?>
<!-- Generator: Adobe Illustrator 16.0.0, SVG Export Plug-In . SVG Version: 6.00 Build 0)  -->
<!DOCTYPE svg PUBLIC "-//W3C//DTD SVG 1.1//EN" "http://www.w3.org/Graphics/SVG/1.1/DTD/svg11.dtd">
<svg version="1.1" id="Layer_1" xmlns="http://www.w3.org/2000/svg" xmlns:xlink="http://www.w3.org/1999/xlink" x="0px" y="0px"
	 width="50px" height="50px" viewBox="25 25 50 50" enable-background="new 25 25 50 50" xml:space="preserve">
<g>
	<path fill="#27A7CB" d="M60.095,73.619H38.95c-1.955,0-3.547-1.693-3.547-3.774V34.027c0-2.082,1.592-3.774,3.547-3.774h21.145
		c1.954,0,3.547,1.693,3.547,3.774v35.818C63.642,71.926,62.05,73.619,60.095,73.619z M38.95,33.361
		c-0.343,0-0.626,0.297-0.626,0.666v35.818c0,0.367,0.283,0.668,0.626,0.668h21.145c0.343,0,0.626-0.3,0.626-0.668V34.027
		c0-0.368-0.283-0.666-0.626-0.666H38.95z"/>
	<rect x="43.817" y="26.774" fill="#27A7CB" width="10.851" height="5.328"/>
	<rect x="40.667" y="63.479" fill="#27A7CB" width="17.804" height="4.294"/>
	<rect x="40.667" y="56.966" fill="#27A7CB" width="17.804" height="4.293"/>
	<rect x="40.667" y="50.456" fill="#27A7CB" width="17.804" height="4.292"/>
</g>
</svg>
