<?xml version="1.0" encoding="utf-8"?>
<!-- Generator: Adobe Illustrator 16.0.0, SVG Export Plug-In . SVG Version: 6.00 Build 0)  -->
<!DOCTYPE svg PUBLIC "-//W3C//DTD SVG 1.1//EN" "http://www.w3.org/Graphics/SVG/1.1/DTD/svg11.dtd">
<svg version="1.1" id="Layer_1" xmlns="http://www.w3.org/2000/svg" xmlns:xlink="http://www.w3.org/1999/xlink" x="0px" y="0px"
	 width="50px" height="50px" viewBox="0 0 50 50" enable-background="new 0 0 50 50" xml:space="preserve">
<g>
	<path fill-rule="evenodd" clip-rule="evenodd" fill="#289DD3" d="M18.768,5.418c0.004,0.498,0.01,0.996,0.011,1.494
		c0.002,0.931,0,1.862,0,2.793c0,0.079,0,0.157,0,0.258c-2.286,0-4.555,0-6.855,0c3.223,3.216,6.418,6.404,9.589,9.568
		c-1.103,1.103-2.166,2.166-3.237,3.236c-3.155-3.163-6.345-6.361-9.535-9.56c-0.019,0.01-0.038,0.021-0.057,0.03
		c0,2.267,0,4.533,0,6.811c-0.071,0.01-0.119,0.022-0.166,0.022c-1.437,0-2.874,0-4.31,0c-0.029,0-0.057-0.006-0.086-0.009
		c0-4.878,0-9.755,0-14.644C9.005,5.418,13.886,5.418,18.768,5.418z"/>
	<path fill-rule="evenodd" clip-rule="evenodd" fill="#289DD3" d="M46.583,20.063c-1.248,0.003-2.498,0.006-3.746,0.009
		c-0.259,0.001-0.518,0-0.8,0c0-2.286,0-4.554,0-6.858c-3.218,3.226-6.405,6.422-9.569,9.595c-1.103-1.102-2.166-2.165-3.236-3.236
		c3.163-3.156,6.36-6.347,9.557-9.538c-0.008-0.019-0.018-0.037-0.027-0.054c-2.267,0-4.533,0-6.811,0
		c-0.01-0.071-0.021-0.119-0.021-0.166c-0.002-1.43-0.002-2.859-0.001-4.288c0.001-0.036,0.007-0.071,0.011-0.107
		c4.882,0,9.764,0,14.645,0C46.583,10.3,46.583,15.181,46.583,20.063z"/>
	<path fill-rule="evenodd" clip-rule="evenodd" fill="#289DD3" d="M4.124,32.627c1.249-0.004,2.498-0.006,3.747-0.01
		c0.258,0,0.517,0,0.799,0c0,2.286,0,4.555,0,6.881c3.233-3.24,6.425-6.439,9.604-9.626c1.095,1.093,2.155,2.153,3.223,3.219
		c-3.186,3.177-6.385,6.366-9.583,9.556c0.012,0.021,0.023,0.042,0.034,0.063c2.267,0,4.533,0,6.81,0
		c0.01,0.072,0.022,0.119,0.022,0.166c0.001,1.43,0.001,2.859,0,4.289c0,0.035-0.007,0.07-0.011,0.107c-4.878,0-9.755,0-14.644,0
		C4.124,42.389,4.124,37.508,4.124,32.627z"/>
	<path fill-rule="evenodd" clip-rule="evenodd" fill="#289DD3" d="M31.938,47.271c-0.004-0.498-0.01-0.996-0.011-1.494
		c-0.002-0.932-0.001-1.863-0.001-2.794c0-0.078,0-0.157,0-0.258c2.286,0,4.556,0,6.885,0c-3.242-3.231-6.443-6.423-9.631-9.601
		c1.099-1.098,2.158-2.158,3.221-3.222c3.178,3.183,6.369,6.38,9.56,9.575c0.02-0.011,0.04-0.021,0.06-0.031
		c0-2.266,0-4.531,0-6.807c0.072-0.01,0.119-0.022,0.166-0.022c1.437-0.001,2.873-0.001,4.311,0c0.028,0,0.057,0.005,0.086,0.009
		c0,4.881,0,9.762,0,14.645C41.702,47.271,36.82,47.271,31.938,47.271z"/>
</g>
</svg>
