<?xml version="1.0" encoding="utf-8"?>
<!-- Generator: Adobe Illustrator 16.0.0, SVG Export Plug-In . SVG Version: 6.00 Build 0)  -->
<!DOCTYPE svg PUBLIC "-//W3C//DTD SVG 1.1//EN" "http://www.w3.org/Graphics/SVG/1.1/DTD/svg11.dtd">
<svg version="1.1" id="Layer_1" xmlns="http://www.w3.org/2000/svg" xmlns:xlink="http://www.w3.org/1999/xlink" x="0px" y="0px"
	 width="50px" height="50px" viewBox="0 0 50 50" enable-background="new 0 0 50 50" xml:space="preserve">
<g>
	<path fill="#FFFFFF" d="M21.75,42.911c-11.615,0-21.064-9.449-21.064-21.063c0-11.615,9.449-21.063,21.064-21.063
		s21.063,9.448,21.063,21.063C42.813,33.462,33.365,42.911,21.75,42.911z M21.75,3.881c-9.907,0-17.967,8.06-17.967,17.967
		c0,9.907,8.06,17.966,17.967,17.966c9.906,0,17.967-8.06,17.967-17.966C39.717,11.941,31.656,3.881,21.75,3.881z"/>
	<path fill="#FFFFFF" d="M48.833,45.691c0.72,0.717,0.62,1.979-0.224,2.82l0,0c-0.842,0.844-2.104,0.942-2.819,0.223L34.173,37.117
		c0.827-0.826,1.933-1.93,3.046-3.043L48.833,45.691z"/>
</g>
</svg>
