<?xml version="1.0" encoding="utf-8"?>
<!-- Generator: Adobe Illustrator 16.0.0, SVG Export Plug-In . SVG Version: 6.00 Build 0)  -->
<!DOCTYPE svg PUBLIC "-//W3C//DTD SVG 1.1//EN" "http://www.w3.org/Graphics/SVG/1.1/DTD/svg11.dtd">
<svg version="1.1" id="Layer_1" xmlns="http://www.w3.org/2000/svg" xmlns:xlink="http://www.w3.org/1999/xlink" x="0px" y="0px"
	 width="30px" height="30px" viewBox="0 0 30 30" enable-background="new 0 0 30 30" xml:space="preserve">
<g>
	<g>
		<path fill-rule="evenodd" clip-rule="evenodd" fill="#70C29A" d="M0.093,24.691c0-6.458,0-12.916,0-19.373
			c0.006-0.021,0.016-0.042,0.019-0.063C0.157,4.965,0.183,4.67,0.249,4.383C0.457,3.479,0.881,2.68,1.493,1.985
			C1.929,1.489,2.44,1.084,3.021,0.769c0.584-0.316,1.205-0.524,1.866-0.615C5.03,0.135,5.172,0.116,5.314,0.098
			c6.457,0,12.915,0,19.372,0c0.024,0.006,0.047,0.016,0.072,0.019c0.193,0.025,0.387,0.04,0.579,0.075
			c1.413,0.27,2.559,0.981,3.432,2.122c0.765,1,1.135,2.144,1.136,3.402c0.002,6.188,0,12.379,0.002,18.567
			c0,0.427-0.04,0.851-0.138,1.263c-0.342,1.444-1.123,2.589-2.353,3.421c-0.938,0.634-1.984,0.943-3.117,0.943
			c-6.189,0.002-12.379,0-18.567,0.001c-0.451,0-0.898-0.046-1.337-0.152c-0.995-0.24-1.863-0.715-2.601-1.427
			C1.358,27.909,1,27.431,0.72,26.894c-0.293-0.562-0.486-1.155-0.569-1.785C0.132,24.971,0.111,24.829,0.093,24.691z M2.388,15
			c0,3.073-0.003,6.148,0.001,9.221c0.001,0.224,0.017,0.446,0.053,0.667c0.099,0.607,0.356,1.146,0.768,1.602
			c0.678,0.755,1.529,1.123,2.549,1.123c6.161-0.003,12.32-0.002,18.482-0.004c0.237-0.002,0.479-0.018,0.712-0.063
			c0.835-0.162,1.505-0.595,2.014-1.275c0.442-0.596,0.643-1.271,0.643-2.017c-0.002-6.169-0.001-12.339-0.004-18.509
			c0-0.232-0.019-0.468-0.062-0.695c-0.164-0.842-0.603-1.517-1.291-2.024c-0.601-0.444-1.28-0.637-2.021-0.637
			C18.075,2.391,11.921,2.39,5.767,2.392c-0.212,0-0.429,0.016-0.639,0.05c-0.801,0.133-1.461,0.521-1.98,1.143
			C2.622,4.215,2.385,4.95,2.385,5.769C2.389,8.847,2.388,11.924,2.388,15z"/>
		<path fill-rule="evenodd" clip-rule="evenodd" fill="#70C29A" d="M12.491,18.069c0.21-0.307,0.398-0.583,0.586-0.859
			c0.964-1.426,1.927-2.849,2.893-4.271c0.67-0.993,1.343-1.982,2.014-2.973c0.728-1.074,1.453-2.146,2.181-3.219
			c0.297-0.438,0.874-0.558,1.311-0.264c0.535,0.36,1.067,0.725,1.595,1.096c0.427,0.294,0.522,0.876,0.229,1.311
			c-0.638,0.94-1.274,1.878-1.912,2.819c-0.872,1.286-1.743,2.573-2.615,3.86c-0.752,1.107-1.505,2.217-2.255,3.324
			c-0.813,1.197-1.621,2.392-2.432,3.587c-0.211,0.31-0.481,0.543-0.848,0.649c-0.326,0.096-0.64,0.03-0.943-0.096
			c-0.243-0.099-0.45-0.246-0.634-0.432c-1.779-1.78-3.552-3.563-5.34-5.333c-0.389-0.386-0.425-1.02-0.029-1.406
			c0.452-0.444,0.899-0.893,1.348-1.342c0.35-0.35,0.937-0.375,1.331,0.022c0.414,0.418,0.833,0.831,1.252,1.245
			c0.69,0.687,1.383,1.371,2.073,2.06C12.361,17.913,12.42,17.986,12.491,18.069z"/>
	</g>
</g>
</svg>
