<?xml version="1.0" encoding="utf-8"?>
<!-- Generator: Adobe Illustrator 16.0.0, SVG Export Plug-In . SVG Version: 6.00 Build 0)  -->
<!DOCTYPE svg PUBLIC "-//W3C//DTD SVG 1.1//EN" "http://www.w3.org/Graphics/SVG/1.1/DTD/svg11.dtd">
<svg version="1.1" id="Layer_1" xmlns="http://www.w3.org/2000/svg" xmlns:xlink="http://www.w3.org/1999/xlink" x="0px" y="0px"
	 width="218px" height="102px" viewBox="0 0 218 102" enable-background="new 0 0 218 102" xml:space="preserve">
<rect x="0.675" y="52.603" fill="#13B57A" width="40.577" height="40.577"/>
<rect x="44.619" y="52.603" fill="#13B57A" width="40.577" height="40.577"/>
<rect x="88.563" y="52.603" fill="#13B57A" width="40.578" height="40.577"/>
<rect x="132.802" y="52.603" fill="#13B57A" width="40.575" height="40.577"/>
<rect x="176.748" y="52.603" fill="#E5E5E5" width="40.577" height="40.577"/>
<rect x="176.748" y="52.603" fill="#13B57A" width="20.358" height="40.577"/>
<g>
	<path fill="#FFFFFF" d="M20.891,79.998l6.149-1.617l2.637,7.916L20.891,79.998z M35.243,69.742h-10.84L21.036,59.49l-3.37,10.252
		H6.829l8.787,6.443l-3.371,10.252l8.791-6.439l5.565-3.957L35.243,69.742L35.243,69.742L35.243,69.742L35.243,69.742z"/>
</g>
<g>
	<path fill="#FFFFFF" d="M64.98,79.998l6.153-1.617l2.634,7.916L64.98,79.998z M79.188,69.742H68.351L64.98,59.49l-3.368,10.252
		H50.773l8.787,6.443l-3.368,10.252l8.788-6.439l5.565-3.957L79.188,69.742L79.188,69.742L79.188,69.742L79.188,69.742z"/>
</g>
<g>
	<path fill="#FFFFFF" d="M108.924,79.998l6.15-1.617l2.645,7.916L108.924,79.998z M123.132,69.742h-10.841l-3.367-10.252
		l-3.368,10.252H94.717l8.787,6.443l-3.367,10.252l8.787-6.439l5.569-3.957L123.132,69.742L123.132,69.742L123.132,69.742
		L123.132,69.742z"/>
</g>
<g>
	<path fill="#FFFFFF" d="M153.159,79.998l6.16-1.617l2.63,7.916L153.159,79.998z M167.226,69.742h-10.84L153.02,59.49l-3.377,10.252
		h-10.979l8.784,6.443l-3.37,10.252l8.79-6.439l5.565-3.957L167.226,69.742L167.226,69.742L167.226,69.742L167.226,69.742z"/>
</g>
<g>
	<path fill="#FFFFFF" d="M197.106,79.998l6.153-1.617l2.638,7.916L197.106,79.998z M211.165,69.742h-10.84l-3.364-10.252
		l-3.371,10.252h-10.84l8.791,6.443l-3.371,10.111l8.791-6.449l5.565-3.953L211.165,69.742L211.165,69.742L211.165,69.742
		L211.165,69.742z"/>
</g>
<g>
	<path fill="#FFFFFF" d="M16.58,8.821h24.169v5.079H22.457v8.793h16.928v4.796H22.457v9.828h18.621v5.078H16.58V8.821z"/>
	<path fill="#FFFFFF" d="M50.859,29.605l-8.417-11.521h6.489l5.079,7.477l5.313-7.477h6.207l-8.275,11.238l9.31,13.072h-6.442
		l-6.16-8.981l-5.972,8.981h-6.3L50.859,29.605z"/>
	<path fill="#FFFFFF" d="M84.858,26.219c-0.425-3.009-2.54-4.561-5.55-4.561c-2.774,0-6.676,1.505-6.676,8.841
		c0,4.043,1.787,8.323,6.441,8.323c3.151,0,5.266-2.022,5.785-5.549h5.36c-0.987,6.349-4.891,9.781-11.145,9.781
		c-7.617,0-11.803-5.408-11.803-12.555c0-7.336,3.998-13.072,11.992-13.072c5.643,0,10.439,2.821,10.956,8.792H84.858z"/>
	<path fill="#FFFFFF" d="M97.648,31.626c0,3.809,2.069,7.195,6.536,7.195c3.15,0,4.985-1.364,5.924-4.044h5.081
		c-1.131,5.314-5.739,8.276-11.005,8.276c-7.666,0-11.898-5.267-11.898-12.79c0-6.913,4.515-12.837,11.757-12.837
		c7.664,0,12.367,6.912,11.473,14.2H97.648z M110.157,28.1c-0.236-3.385-2.446-6.442-6.113-6.442c-3.715,0-6.255,2.822-6.396,6.442
		H110.157z"/>
	<path fill="#FFFFFF" d="M118.622,8.821h5.359v33.574h-5.359V8.821z"/>
	<path fill="#FFFFFF" d="M128.824,8.821h5.361v33.574h-5.361V8.821z"/>
	<path fill="#FFFFFF" d="M143.073,31.626c0,3.809,2.069,7.195,6.537,7.195c3.149,0,4.983-1.364,5.925-4.044h5.078
		c-1.128,5.314-5.736,8.276-11.003,8.276c-7.665,0-11.897-5.267-11.897-12.79c0-6.913,4.515-12.837,11.756-12.837
		c7.665,0,12.366,6.912,11.474,14.2H143.073z M155.581,28.1c-0.234-3.385-2.445-6.442-6.112-6.442c-3.715,0-6.253,2.822-6.396,6.442
		H155.581z"/>
	<path fill="#FFFFFF" d="M163.906,18.084h5.077v3.574l0.094,0.094c1.646-2.68,4.374-4.326,7.572-4.326
		c5.313,0,8.604,2.774,8.604,8.275v16.693h-5.36V27.112c-0.142-3.809-1.551-5.455-4.748-5.455c-3.573,0-5.879,2.822-5.879,6.395
		v14.342h-5.359V18.084z"/>
	<path fill="#FFFFFF" d="M187.324,18.084h4.044v-7.289h5.36v7.289h4.843v3.997h-4.843V35.06c0,2.209,0.188,3.338,2.585,3.338
		c0.753,0,1.504,0,2.258-0.188v4.138c-1.176,0.141-2.303,0.282-3.479,0.282c-5.643,0-6.583-2.163-6.724-6.207V22.081h-4.044V18.084z
		"/>
</g>
</svg>
