<?xml version="1.0" encoding="utf-8"?>
<!-- Generator: Adobe Illustrator 16.0.0, SVG Export Plug-In . SVG Version: 6.00 Build 0)  -->
<!DOCTYPE svg PUBLIC "-//W3C//DTD SVG 1.1//EN" "http://www.w3.org/Graphics/SVG/1.1/DTD/svg11.dtd">
<svg version="1.1" id="Layer_1" xmlns="http://www.w3.org/2000/svg" xmlns:xlink="http://www.w3.org/1999/xlink" x="0px" y="0px"
	 width="39px" height="39px" viewBox="0 0 39 39" enable-background="new 0 0 39 39" xml:space="preserve">
<path fill="#939292" d="M19.5,38.5c-10.477,0-19-8.523-19-19s8.523-19,19-19c10.478,0,19,8.523,19,19S29.978,38.5,19.5,38.5z
	 M30.42,12.565c-0.703,0.318-1.478,0.512-2.236,0.64c0.359-0.061,0.892-0.714,1.104-0.978c0.324-0.402,0.594-0.86,0.745-1.356
	c0.019-0.038,0.034-0.087-0.005-0.116c-0.048-0.02-0.079-0.01-0.118,0.01c-0.848,0.454-1.724,0.783-2.657,1.017
	c-0.077,0.02-0.135,0-0.184-0.049c-0.077-0.087-0.149-0.169-0.231-0.237c-0.392-0.333-0.813-0.595-1.288-0.788
	c-0.622-0.254-1.303-0.361-1.974-0.318c-0.652,0.043-1.294,0.227-1.873,0.529c-0.581,0.304-1.098,0.726-1.511,1.234
	c-0.427,0.526-0.741,1.147-0.902,1.807c-0.156,0.637-0.143,1.266-0.048,1.908c0.015,0.106,0.005,0.121-0.092,0.106
	c-3.649-0.543-6.675-1.849-9.131-4.647c-0.106-0.121-0.165-0.121-0.253,0.01c-1.074,1.61-0.553,4.198,0.791,5.471
	c0.178,0.169,0.362,0.339,0.561,0.493c-0.072,0.016-0.967-0.082-1.762-0.493c-0.106-0.067-0.16-0.029-0.17,0.092
	c-0.01,0.174,0.006,0.334,0.028,0.523c0.207,1.633,1.337,3.144,2.886,3.732c0.185,0.077,0.388,0.146,0.586,0.179
	c-0.354,0.077-0.716,0.133-1.729,0.054c-0.125-0.024-0.174,0.039-0.125,0.16c0.76,2.072,2.401,2.688,3.631,3.039
	c0.164,0.029,0.328,0.029,0.494,0.068c-0.01,0.015-0.02,0.015-0.029,0.029c-0.408,0.621-1.821,1.084-2.479,1.314
	c-1.197,0.418-2.501,0.606-3.766,0.481c-0.202-0.03-0.245-0.027-0.301,0c-0.056,0.034-0.007,0.083,0.058,0.136
	c0.258,0.169,0.52,0.319,0.785,0.465c0.803,0.426,1.641,0.765,2.518,1.006c4.523,1.25,9.619,0.332,13.017-3.043
	c2.667-2.65,3.603-6.305,3.603-9.965c0-0.144,0.17-0.222,0.27-0.298c0.694-0.521,1.246-1.146,1.764-1.843
	c0.115-0.156,0.109-0.295,0.109-0.353c0-0.01,0-0.02,0-0.02C30.504,12.507,30.51,12.524,30.42,12.565z M14.935,28.542
	C16.811,28.542,15.025,28.542,14.935,28.542C15.182,28.542,14.925,28.542,14.935,28.542z M14.935,28.542
	C14.569,28.542,14.906,28.544,14.935,28.542C14.876,28.542,14.935,28.542,14.935,28.542z M15.68,28.561
	C16.072,28.561,15.68,28.523,15.68,28.561C15.729,28.561,15.68,28.542,15.68,28.561z M23.422,10.406c0.033,0.02,0.066,0.02,0.092,0
	C23.488,10.406,23.455,10.406,23.422,10.406z"/>
</svg>
