<?xml version="1.0" encoding="utf-8"?>
<!-- Generator: Adobe Illustrator 16.0.0, SVG Export Plug-In . SVG Version: 6.00 Build 0)  -->
<!DOCTYPE svg PUBLIC "-//W3C//DTD SVG 1.1//EN" "http://www.w3.org/Graphics/SVG/1.1/DTD/svg11.dtd">
<svg version="1.1"
	 id="svg3336" inkscape:version="0.91 r13725" sodipodi:docname="UKSilhouette.svg" xmlns:rdf="http://www.w3.org/1999/02/22-rdf-syntax-ns#" xmlns:dc="http://purl.org/dc/elements/1.1/" xmlns:inkscape="http://www.inkscape.org/namespaces/inkscape" xmlns:sodipodi="http://sodipodi.sourceforge.net/DTD/sodipodi-0.dtd" xmlns:cc="http://creativecommons.org/ns#" xmlns:svg="http://www.w3.org/2000/svg"
	 xmlns="http://www.w3.org/2000/svg" xmlns:xlink="http://www.w3.org/1999/xlink" x="0px" y="0px" width="161.239px"
	 height="261.667px" viewBox="0 0 161.239 261.667" enable-background="new 0 0 161.239 261.667" xml:space="preserve">
<sodipodi:namedview  id="namedview3338" borderopacity="1" showgrid="false" bordercolor="#666666" guidetolerance="10" inkscape:cy="592.5" objecttolerance="10" inkscape:cx="361.40625" gridtolerance="10" inkscape:zoom="0.56540084" pagecolor="#ffffff" inkscape:current-layer="svg3336" inkscape:window-y="-8" inkscape:window-width="1600" inkscape:pageshadow="2" inkscape:window-maximized="1" inkscape:window-height="837" inkscape:window-x="-8" inkscape:pageopacity="0">
	</sodipodi:namedview>
<g>
	<path id="path3346" inkscape:connector-curvature="0" fill="#999999" d="M22.427,258.984c-0.171-0.196-0.269-0.471-0.218-0.611
		s-0.01-0.254-0.136-0.254c-0.157,0-0.167-0.115-0.029-0.371c0.131-0.245,0.124-0.667-0.021-1.238
		c-0.169-0.667-0.4-0.981-1.003-1.361c-0.43-0.271-0.871-0.494-0.98-0.494c-0.109,0-0.434-0.235-0.721-0.522
		c-0.709-0.709-1.608-0.629-1.698,0.151c-0.087,0.751-0.358,0.916-1.782,1.077c-1.18,0.134-1.244,0.118-1.466-0.369
		c-0.185-0.406-0.172-0.559,0.062-0.753c0.162-0.134,0.294-0.538,0.294-0.897c0-0.717,0.694-1.539,1.3-1.539
		c0.196,0,0.807-0.194,1.358-0.431c1.087-0.468,1.922-0.403,2.35,0.182c0.205,0.28,0.333,0.295,0.777,0.093
		c0.292-0.134,0.531-0.376,0.531-0.54c0-0.222,0.169-0.27,0.672-0.188c0.47,0.077,0.753,0.011,0.942-0.217
		c0.148-0.179,0.43-0.325,0.625-0.325s0.595-0.24,0.888-0.533c0.292-0.292,0.832-0.692,1.199-0.887
		c0.423-0.226,0.75-0.606,0.896-1.042c0.183-0.551,0.406-0.749,1.121-1c1.238-0.434,1.352-0.53,1.504-1.278
		c0.261-1.28,0.576-1.781,1.118-1.781c0.34,0,0.702-0.24,1.083-0.718c0.315-0.395,0.67-0.657,0.789-0.583
		c0.291,0.18,2.097,0.17,2.393-0.013c0.13-0.081,0.377-0.497,0.548-0.924c0.305-0.764,0.702-1.013,1.62-1.019
		c0.288-0.002,0.506-0.222,0.693-0.698c0.267-0.681,0.585-0.935,1.663-1.324c0.561-0.203,0.631-0.405,0.911-2.617
		c0.074-0.588,0.215-1.07,0.313-1.07s0.178-0.097,0.178-0.215s0.171-0.6,0.381-1.069c0.209-0.471,0.423-0.99,0.474-1.156
		c0.14-0.453,1.804-0.285,2.156,0.218c0.191,0.272,0.517,0.389,1.09,0.389c0.665,0,1.01-0.162,1.842-0.864l1.024-0.863l-0.132-0.995
		c-0.115-0.869-0.077-1.033,0.303-1.3c0.271-0.189,0.398-0.448,0.337-0.682c-0.127-0.485,0.449-0.68,1.795-0.606
		c0.561,0.03,1.661,0.083,2.445,0.118c3.08,0.135,4.307,0.288,4.968,0.622c0.379,0.191,1.112,0.393,1.63,0.45
		s1.02,0.235,1.115,0.396c0.107,0.183,0.346,0.25,0.63,0.179c0.348-0.087,0.649,0.079,1.254,0.689
		c0.937,0.946,2.177,1.311,3.452,1.015c1.077-0.25,2.485-0.246,2.642,0.007c0.166,0.269,1.042,0.26,1.556-0.015
		c0.295-0.158,0.396-0.398,0.365-0.866c-0.023-0.356,0.062-0.906,0.189-1.222c0.128-0.315,0.232-0.675,0.232-0.798
		c0-0.124,0.059-0.166,0.131-0.094c0.071,0.071,0.278-0.138,0.458-0.465c0.327-0.593,2.059-2.043,2.44-2.043
		c0.111,0,0.415-0.263,0.675-0.585c0.614-0.76,1.262-1.084,1.867-0.933c0.736,0.186,1.522-0.62,1.6-1.64l0.063-0.815l-0.917,0.021
		c-0.985,0.021-1.623,0.15-2.472,0.501c-0.389,0.16-0.772,0.157-1.397-0.011c-0.777-0.209-0.993-0.176-2.215,0.338
		c-0.745,0.313-1.386,0.645-1.425,0.736c-0.04,0.092-0.337,0.458-0.663,0.813s-0.591,0.763-0.591,0.904
		c0,1.23-6.743-0.074-7.065-1.366c-0.184-0.738-1.261-2.038-1.689-2.038c-0.56,0-0.82-0.455-1.039-1.811
		c-0.363-2.258-0.774-2.796-2.292-3.004c-1.04-0.143-1.567,0.112-1.567,0.758c0,0.3-0.146,0.371-0.722,0.349
		c-0.396-0.015-0.769-0.104-0.827-0.198c-0.147-0.238-1.049-0.213-1.202,0.034c-0.23,0.374-1.377,0.212-2.031-0.287
		c-0.542-0.413-0.63-0.599-0.563-1.178c0.059-0.505,0.243-0.781,0.693-1.039c0.59-0.339,0.634-0.336,1.223,0.083
		c0.566,0.403,0.635,0.41,0.945,0.101s0.31-0.375-0.003-0.892c-0.281-0.464-0.502-0.569-1.314-0.622
		c-1.169-0.077-1.382-0.233-2.015-1.482c-0.539-1.063-0.498-1.049-3.914-1.332c-1.168-0.096-1.479-0.064-1.482,0.155
		c-0.01,0.518-1.104,1.553-1.77,1.673c-0.36,0.065-0.709,0.03-0.776-0.079c-0.219-0.353-1.023-0.208-1.728,0.313
		c-0.38,0.28-0.76,0.509-0.845,0.509c-0.084,0-0.562-0.276-1.062-0.613c-0.707-0.477-0.883-0.706-0.798-1.032
		c0.142-0.544-1.104-1.884-1.625-1.748c-0.266,0.07-0.357-0.029-0.357-0.385c0-0.263-0.092-0.535-0.204-0.604
		c-0.566-0.35,0.232-1.172,1.272-1.311l0.867-0.116v-1.223c0-1.101-0.044-1.229-0.444-1.286c-0.244-0.035-0.553-0.195-0.687-0.356
		c-0.137-0.166-0.597-0.293-1.056-0.293c-0.757,0-0.804-0.033-0.688-0.493c0.077-0.305,0.026-0.532-0.131-0.595
		c-0.243-0.098,0.361-0.22,0.742-0.15c0.099,0.019,0.585-0.156,1.08-0.389c0.494-0.232,0.979-0.372,1.079-0.312
		c0.099,0.061,0.237,0.018,0.307-0.096c0.07-0.114,0.388-0.208,0.706-0.208c0.441,0,0.606-0.116,0.701-0.495
		c0.068-0.272,0.266-0.637,0.439-0.811c0.323-0.323,0.656-0.232,1.518,0.415c0.465,0.349,2.439,0.241,2.655-0.146
		c0.098-0.175,0.542-0.438,0.986-0.584c0.498-0.164,0.849-0.423,0.915-0.674c0.071-0.271,0.213-0.364,0.425-0.279
		c0.175,0.071,0.471,0.191,0.659,0.266c0.257,0.103,0.31,0.055,0.214-0.193c-0.183-0.477,0.457-0.618,2.072-0.456
		c1.119,0.112,1.42,0.078,1.638-0.185c0.147-0.177,0.403-0.322,0.567-0.322s0.539-0.188,0.833-0.419
		c0.358-0.282,0.693-0.379,1.024-0.296c0.284,0.071,0.631,0.008,0.824-0.15c0.183-0.15,0.699-0.397,1.147-0.548
		c0.88-0.297,2.672-1.887,2.882-2.557c0.071-0.226,0.293-0.622,0.494-0.88c0.201-0.257,0.428-0.762,0.503-1.121
		c0.076-0.359,0.309-0.839,0.519-1.068c0.475-0.519,0.532-2.032,0.128-3.463c-0.349-1.238-0.214-1.673,0.75-2.408
		c0.903-0.689,0.952-1.314,0.226-2.902c-0.615-1.346-0.613-1.271-0.068-1.851c0.378-0.403,0.408-0.543,0.204-0.99
		c-0.13-0.287-0.237-0.742-0.237-1.011c0-0.393-0.152-0.533-0.764-0.703c-0.919-0.255-2.025-0.278-2.169-0.046
		c-0.057,0.093-0.58,0.18-1.162,0.193c-0.963,0.022-1.115,0.093-1.691,0.793c-0.348,0.423-0.61,0.841-0.582,0.928
		c0.101,0.313-0.441,0.15-0.885-0.267c-0.34-0.319-0.545-0.376-0.828-0.231c-0.607,0.313-2.924,0.455-2.917,0.179
		c0.007-0.305,1.148-1.56,1.417-1.56c0.114,0,0.207-0.085,0.207-0.19c0-0.104,0.414-0.53,0.92-0.944
		c0.744-0.61,1.087-0.754,1.783-0.75c0.474,0.002,1.002-0.119,1.174-0.269c0.171-0.151,0.813-0.538,1.426-0.86
		c1.288-0.677,1.987-1.763,1.951-3.033c-0.018-0.646-0.101-0.791-0.48-0.845c-0.252-0.036-0.459-0.146-0.459-0.245
		c0-0.099-0.275-0.587-0.611-1.084c-0.336-0.499-0.611-1.06-0.611-1.246c0-0.614-0.412-1.129-0.902-1.129
		c-0.485,0-0.728-0.338-0.728-1.014c0-0.224-0.201-0.419-0.509-0.497c-1.02-0.256-0.392-1.228,0.657-1.018
		c0.477,0.095,0.711,0.019,1.048-0.343c0.239-0.256,0.434-0.622,0.434-0.812c0-1.064,2.444-1.433,4.151-0.626
		c0.951,0.45,0.987,0.498,0.879,1.164c-0.076,0.469-0.023,0.745,0.164,0.851c0.152,0.085,0.306,0.477,0.343,0.869l0.067,0.713
		l1.196,0.035c1.597,0.046,1.777,0.27,0.962,1.197c-0.875,0.997-0.78,1.437,0.289,1.347c0.447-0.037,0.958-0.197,1.135-0.355
		c0.177-0.158,0.553-0.288,0.835-0.288c0.914,0,1.753-0.407,1.88-0.911c0.161-0.642,0.757-0.477,1.704,0.47
		c0.685,0.684,0.797,0.723,2.179,0.748c0.801,0.015,1.577,0.101,1.723,0.192c0.157,0.097,0.332,0.06,0.425-0.091
		c0.087-0.141,0.244-0.203,0.349-0.139c0.104,0.065,0.343-0.061,0.53-0.279c0.244-0.285,0.601-0.397,1.264-0.397
		c0.821,0,0.947,0.063,1.134,0.561c0.115,0.308,0.769,1.126,1.451,1.818c1.073,1.088,1.281,1.219,1.531,0.968
		c0.359-0.359,0.164-1.147-0.689-2.783c-0.347-0.666-0.071-1.379,0.534-1.379c0.211,0,0.798-0.178,1.305-0.395l0.921-0.395
		l-0.093-1.03c-0.052-0.567-0.186-1.272-0.298-1.568c-0.112-0.296-0.143-0.731-0.068-0.967c0.167-0.525,1.235-1.917,1.875-2.441
		c0.644-0.528,1.666-1.63,1.667-1.798c0.001-0.075-0.315-0.241-0.703-0.369c-0.417-0.138-0.762-0.414-0.847-0.678
		c-0.202-0.624-0.102-2.164,0.174-2.671c0.126-0.233,0.282-0.735,0.345-1.115c0.156-0.935,0.897-1.453,2.161-1.51l1.01-0.046
		l-0.066-1.221c-0.059-1.088-0.01-1.273,0.451-1.707c0.285-0.267,0.727-0.59,0.984-0.717c0.575-0.286,0.681-0.922,0.351-2.104
		c-0.318-1.136-0.705-1.302-1.298-0.558c-0.566,0.71-1.01,0.584-1.422-0.403c-0.347-0.829-0.635-0.923-0.803-0.264
		c-0.064,0.252-0.53,0.871-1.034,1.375s-0.92,1.032-0.924,1.171c-0.003,0.14-0.144,0.255-0.312,0.255
		c-0.168,0-0.306,0.138-0.306,0.306c0,0.599-0.521,0.292-0.869-0.511c-0.392-0.904-0.465-1.943-0.15-2.138
		c0.112-0.069,0.204-0.31,0.204-0.534s0.092-0.351,0.204-0.281c0.112,0.069,0.204-0.015,0.204-0.188c0-0.174-0.25-0.374-0.561-0.447
		c-0.807-0.193-1.01-0.409-1.166-1.236c-0.076-0.405-0.271-0.94-0.435-1.189c-0.206-0.313-0.257-0.709-0.166-1.278
		c0.09-0.564,0.032-1.023-0.185-1.458c-0.174-0.349-0.46-1.128-0.635-1.732c-0.176-0.605-0.64-1.586-1.032-2.181
		c-0.736-1.118-0.881-1.6-0.48-1.6c0.338,0,0.773-0.643,0.78-1.153c0.003-0.243,0.27-0.663,0.592-0.933
		c0.684-0.576,1.116-1.302,0.941-1.584c-0.18-0.292,0.842-1.542,1.647-2.018c0.577-0.341,0.698-0.531,0.698-1.106
		c0-0.382,0.137-0.809,0.306-0.949c0.168-0.14,0.306-0.369,0.306-0.51c0-0.386,1.247-1.527,1.668-1.527
		c0.203,0,0.369-0.117,0.369-0.261c0-0.143,0.183-0.417,0.408-0.609c0.824-0.706,0.426-1.372-0.82-1.372
		c-0.32,0-0.644-0.098-0.717-0.218c-0.082-0.133-0.439-0.167-0.914-0.087c-0.47,0.08-0.961,0.035-1.236-0.113
		c-0.385-0.206-0.501-0.186-0.729,0.126c-0.148,0.204-0.271,0.686-0.271,1.073c0,0.97-0.427,1.239-1.609,1.018
		c-0.93-0.174-1.707,0.05-2.669,0.77c-0.168,0.126-0.765,0.387-1.325,0.581c-0.561,0.193-1.177,0.434-1.369,0.535
		c-0.458,0.24-2.327-0.173-3.061-0.676c-0.306-0.21-0.632-0.675-0.725-1.033c-0.102-0.395-0.373-0.75-0.692-0.905
		c-0.288-0.14-0.863-0.628-1.276-1.086c-0.881-0.976-1.334-0.941-1.334,0.103c0,0.464,0.151,0.853,0.435,1.117
		c0.4,0.372,0.415,0.476,0.186,1.281c-0.136,0.482-0.296,1.123-0.354,1.425c-0.059,0.301-0.266,0.693-0.463,0.871
		c-0.319,0.289-0.384,0.29-0.615,0.012c-0.142-0.171-0.365-0.311-0.497-0.311c-0.449,0-1.953-1.729-1.957-2.249
		c-0.005-0.705-2.957-3.66-3.657-3.66c-0.499,0-1.747,0.491-1.889,0.744c-0.161,0.284,0.228,3.568,0.454,3.84
		c0.144,0.174,0.124,0.453-0.066,0.905l-0.275,0.653l-0.644-0.542c-0.637-0.536-0.835-1.178-0.44-1.423
		c0.264-0.163,0.264-1.059,0-1.223c-0.112-0.069-0.204-0.43-0.204-0.802c0-0.372-0.134-0.788-0.298-0.923
		c-0.164-0.136-0.357-0.445-0.431-0.688c-0.074-0.242-0.291-0.624-0.484-0.847c-0.511-0.595-0.86-2.791-0.576-3.621
		c0.504-1.47,1.208-1.97,1.789-1.271c0.373,0.45,0.611,0.374,0.611-0.196c0-0.276,0.275-0.816,0.611-1.199s0.611-0.89,0.611-1.126
		c0-0.272,0.317-0.659,0.866-1.054c1.604-1.155,2.394-1.895,2.394-2.243c0-0.191,0.138-0.461,0.306-0.6
		c0.168-0.14,0.305-0.486,0.305-0.77c0-0.337,0.283-0.785,0.815-1.292c0.448-0.426,0.815-0.956,0.815-1.177
		c0-0.51,0.9-1.148,1.867-1.324c0.598-0.109,0.791-0.262,0.968-0.772c0.326-0.933,0.273-1.462-0.193-1.963
		c-0.36-0.387-0.371-0.446-0.075-0.446c0.281,0,0.321-0.146,0.229-0.832c-0.123-0.912-0.629-1.614-1.165-1.614
		c-0.456,0-1.019-0.641-1.019-1.16c0-0.228-0.184-0.648-0.408-0.933c-0.224-0.285-0.407-0.618-0.407-0.741
		c0-0.122-0.126-0.223-0.281-0.223c-0.154,0-0.398-0.142-0.542-0.315c-0.144-0.173-0.377-0.271-0.519-0.216
		c-0.325,0.125-0.622-0.227-0.804-0.95c-0.077-0.309-0.406-0.717-0.729-0.908c-0.657-0.388-0.738-0.697-0.283-1.075
		c0.368-0.306,0.396-0.847,0.061-1.182c-0.34-0.34-0.774-0.305-0.774,0.061c0,0.428-0.263,0.381-0.564-0.102
		c-0.14-0.224-0.387-0.408-0.548-0.408s-0.378-0.152-0.482-0.337c-0.12-0.214-0.317-0.288-0.543-0.201
		c-0.27,0.104-0.321,0.269-0.217,0.694c0.447,1.813,0.31,2.29-0.656,2.29c-1.121,0-2.487,2.092-2.49,3.813
		c-0.001,0.409-0.168,0.809-0.447,1.069c-0.245,0.229-0.384,0.416-0.31,0.416c0.154,0-0.638,1.467-1.391,2.577
		c-0.421,0.622-0.482,0.898-0.39,1.779c0.13,1.232,0.058,1.36-1.096,1.945c-0.677,0.343-0.947,0.393-1.162,0.215
		c-0.211-0.175-0.458-0.168-0.996,0.026c-0.635,0.23-0.764,0.215-1.142-0.126c-0.353-0.32-0.402-0.525-0.288-1.21
		c0.076-0.454,0.206-0.871,0.29-0.927c0.083-0.056,0.214-0.303,0.291-0.55s0.453-0.642,0.836-0.878
		c0.52-0.322,0.729-0.619,0.827-1.182c0.072-0.414,0.259-0.955,0.414-1.203c0.156-0.248,0.283-0.77,0.283-1.16
		c0-0.389,0.092-0.765,0.205-0.835c0.322-0.199,1.018-1.757,1.018-2.279c0-0.299,0.121-0.471,0.333-0.471
		c0.183,0,0.642-0.328,1.019-0.728c0.67-0.711,0.891-1.31,0.483-1.31c-0.112,0-0.204-0.126-0.204-0.281s-0.137-0.395-0.306-0.535
		c-0.48-0.398-0.36-1.146,0.306-1.905c0.74-0.842,0.772-1.152,0.12-1.152c-0.451,0-0.49-0.077-0.479-0.968
		c0.011-0.817,0.147-1.142,0.879-2.088c0.477-0.617,1.234-1.476,1.685-1.91c0.827-0.798,0.967-1.43,0.397-1.79
		c-0.205-0.129-0.182-0.301,0.104-0.807c0.418-0.741,0.422-0.73-0.292-0.821c-0.691-0.088-1.395,0.534-1.395,1.234
		c0,0.373-0.533,1.147-1.8,2.617c-0.99,1.148-2.021,2.518-2.292,3.043s-0.756,1.1-1.078,1.276c-0.35,0.191-0.68,0.606-0.819,1.031
		c-0.245,0.747-0.483,0.827-1.598,0.542l-0.557-0.143l0.035,1.64c0.039,1.825-0.071,2.029-1.523,2.83
		c-0.64,0.354-0.836,0.382-1.172,0.172c-0.274-0.171-0.493-0.187-0.68-0.05c-1.378,1.008-1.336,0.994-1.751,0.618
		c-0.476-0.431-0.35-0.816,0.511-1.572c0.531-0.466,0.636-0.693,0.575-1.235c-0.042-0.365-0.213-0.766-0.381-0.891
		c-0.168-0.124-0.306-0.376-0.306-0.561c0-0.553-0.683-0.379-1.486,0.379c-0.841,0.793-1.004,0.844-1.354,0.422
		c-0.194-0.234-0.082-0.524,0.565-1.465c0.444-0.646,0.767-1.277,0.719-1.403s0.053-0.498,0.224-0.827
		c0.172-0.329,0.313-0.713,0.313-0.853c0-0.15,0.273-0.257,0.664-0.261c0.364-0.004,0.84-0.142,1.058-0.306
		c0.507-0.384,0.744-0.381,0.595,0.007c-0.198,0.517,0.642,0.359,1.627-0.306c1.206-0.813,1.763-0.813,1.763,0
		c0,0.754,0.371,0.792,1.019,0.102c0.263-0.28,0.599-0.509,0.746-0.509c0.147,0,0.394-0.302,0.548-0.671
		c0.279-0.668,2.122-2.385,2.56-2.385c0.127,0,0.572-0.209,0.99-0.465c0.418-0.255,0.943-0.563,1.167-0.684
		c0.224-0.12,0.453-0.484,0.509-0.809c0.135-0.786,0.631-1.507,1.036-1.507c0.341,0,0.71-0.377,1.173-1.199
		c0.228-0.405,0.228-0.514,0.001-0.654c-0.215-0.133-0.187-0.233,0.134-0.476c0.224-0.168,0.544-0.313,0.712-0.32
		c0.168-0.007,0.56-0.237,0.871-0.51c0.486-0.428,0.53-0.553,0.318-0.894c-0.312-0.499,0.015-0.958,0.812-1.14
		c0.931-0.213,1.463-0.801,1.463-1.615c0-0.828-0.316-0.937-1.273-0.437c-0.551,0.288-0.561,0.282-0.561-0.313
		c0-0.776-0.447-0.95-1.343-0.523c-0.76,0.363-0.893,0.859-0.338,1.271c0.3,0.223,0.316,0.331,0.102,0.682
		c-0.14,0.229-0.255,0.541-0.255,0.691c0,0.151-0.361,0.565-0.803,0.92c-0.626,0.503-0.999,0.646-1.691,0.646
		c-0.488,0-1.001,0.113-1.14,0.251c-0.199,0.2-0.274,0.164-0.362-0.173c-0.079-0.302-0.283-0.429-0.707-0.441
		c-0.328-0.009-0.595,0.068-0.595,0.173c0,0.104-0.211,0.19-0.469,0.19s-0.567,0.098-0.687,0.218
		c-0.155,0.155-0.679,0.154-1.81-0.003c-1.078-0.15-1.66-0.155-1.8-0.015c-0.564,0.564-1.328-0.389-1.188-1.482
		c0.073-0.569,0.073-0.569,1.281-0.432c1.175,0.133,1.208,0.123,1.208-0.349c0-0.31,0.257-0.69,0.713-1.054
		c0.392-0.313,0.713-0.713,0.713-0.889s-0.39-0.667-0.866-1.092c-0.833-0.742-0.91-1-0.324-1.086
		c0.58-0.085,0.438-0.456-0.326-0.852c-0.888-0.46-1.127-0.848-0.64-1.035c0.191-0.074,0.322-0.364,0.322-0.713
		c0-0.547,0.056-0.589,0.777-0.589c0.495,0,0.935-0.148,1.214-0.408c0.241-0.224,0.648-0.408,0.907-0.408
		c0.463,0,1.441,0.747,1.653,1.263c0.081,0.196,0.207,0.156,0.479-0.151c0.203-0.229,0.541-0.483,0.749-0.563
		c0.31-0.119,0.334-0.201,0.128-0.449c-0.138-0.167-0.366-0.303-0.507-0.303c-0.141,0-0.37-0.137-0.509-0.305
		c-0.14-0.168-0.551-0.306-0.915-0.306c-1.249,0-2.332-1.413-1.327-1.732c0.224-0.071,0.407-0.215,0.407-0.319
		c0-0.245,1.253-0.246,1.896-0.001c0.28,0.106,0.818,0.116,1.236,0.021c0.438-0.099,0.74-0.09,0.74,0.021
		c0,0.54,0.653,0.335,1.334-0.418c0.597-0.662,0.893-0.832,1.441-0.832c0.379,0,0.689-0.091,0.689-0.204
		c0-0.112-0.11-0.204-0.244-0.204c-0.19,0-0.19-0.054,0-0.245c0.414-0.414,0.281-0.541-0.724-0.686
		c-0.532-0.077-1.04-0.182-1.127-0.232s0.121-0.412,0.463-0.802c0.343-0.39,0.813-1.113,1.044-1.606
		c0.439-0.934,0.914-1.234,1.606-1.014c0.497,0.157,0.518-0.058,0.066-0.702c-0.333-0.476-0.323-0.501,0.458-1.163
		c0.44-0.372,0.937-0.679,1.105-0.682c0.168-0.004,0.437-0.09,0.598-0.191c0.241-0.153,0.246-0.241,0.028-0.504
		c-0.156-0.187-0.212-0.529-0.136-0.83c0.103-0.409,0.052-0.512-0.249-0.512c-0.208,0-0.446,0.069-0.53,0.153
		s-0.237,0.164-0.339,0.178c-0.103,0.014-0.27,0.037-0.371,0.051c-0.101,0.014-0.279,0.297-0.394,0.628
		c-0.136,0.39-0.453,0.704-0.896,0.889c-0.377,0.158-0.837,0.519-1.023,0.802c-0.448,0.683-2.122,0.891-2.314,0.287
		c-0.077-0.242,0.025-0.477,0.284-0.659c0.222-0.155,0.461-0.59,0.532-0.965c0.095-0.509,0.292-0.755,0.775-0.973
		c0.763-0.342,0.989-0.799,0.395-0.799c-0.227,0-0.469-0.092-0.538-0.204c-0.231-0.375-0.904-0.209-1.242,0.306
		c-0.46,0.702-0.694,0.637-0.694-0.192c0-0.977-0.302-1.064-1.139-0.329c-0.767,0.673-1.253,0.672-0.893-0.001
		c0.19-0.355,0.142-0.395-0.49-0.395c-0.573,0-0.684-0.067-0.606-0.365c0.054-0.207-0.086-0.53-0.325-0.745
		c-0.23-0.209-0.42-0.577-0.42-0.817c0-0.241-0.08-0.524-0.177-0.631s-0.318-0.622-0.491-1.146
		c-0.298-0.899-0.294-0.972,0.074-1.305c0.533-0.482,0.499-0.926-0.068-0.877c-1.131,0.097-1.527-0.06-2.452-0.972
		c-0.701-0.691-0.961-1.106-0.961-1.531c0-0.321-0.113-0.765-0.252-0.986c-0.215-0.344-0.187-0.448,0.19-0.712
		c0.243-0.17,0.471-0.514,0.506-0.764c0.076-0.529,0.778-0.766,0.778-0.263c0,0.485,0.613,1.333,0.964,1.333
		c0.223,0,0.281-0.164,0.215-0.611c-0.062-0.423-0.004-0.611,0.187-0.611c0.448,0,0.546-0.595,0.167-1.014
		c-0.299-0.331-0.315-0.493-0.111-1.113c0.132-0.399,0.321-0.726,0.42-0.726c0.267,0,0.603,0.716,0.603,1.286
		c0,0.274,0.146,0.62,0.327,0.77c0.18,0.149,0.407,0.481,0.504,0.738c0.282,0.742,1.615,0.459,1.615-0.343
		c0-0.214,0.088-0.444,0.198-0.511c0.111-0.069,0.152-0.644,0.092-1.32l-0.105-1.197l0.723-0.262
		c0.397-0.144,0.723-0.334,0.723-0.424c0-0.09,0.226-0.163,0.501-0.163c0.419,0,0.539,0.143,0.728,0.866
		c0.125,0.476,0.343,0.958,0.486,1.07c0.144,0.112,0.268,0.25,0.276,0.305c0.009,0.056,0.121,0.377,0.25,0.713
		c0.225,0.589,0.202,1.055-0.103,2.14c-0.079,0.28-0.209,0.947-0.291,1.482s-0.255,1.081-0.387,1.212
		c-0.132,0.132-0.24,0.405-0.24,0.607c0,0.621,0.867,0.453,1.264-0.246c0.191-0.335,0.467-0.61,0.614-0.61
		c0.146,0,0.357-0.2,0.468-0.445s0.316-0.482,0.456-0.526c0.437-0.139,0.28,0.503-0.287,1.177c-0.471,0.56-0.55,0.854-0.6,2.253
		c-0.046,1.265,0.008,1.646,0.249,1.781c0.199,0.112,0.323,0.539,0.354,1.219c0.026,0.576,0.104,1.104,0.172,1.171
		c0.068,0.068,0.476,0.026,0.907-0.094c0.431-0.12,1.082-0.218,1.446-0.218c0.377,0,0.662-0.106,0.662-0.245
		c0-0.484,1.085-1.386,1.668-1.386c0.654,0,0.655-0.004,0.337-0.704c-0.267-0.585-0.72-0.661-1.304-0.22
		c-0.538,0.407-0.979,0.385-1.389-0.068c-0.304-0.336-0.313-0.493-0.083-1.358c0.208-0.78,0.21-0.996,0.006-1.063
		c-0.34-0.114-0.323-1.101,0.034-1.929c0.159-0.368,0.399-0.967,0.534-1.331c0.309-0.835,0.566-0.835,1.253-0.001
		c0.412,0.499,0.606,0.606,0.783,0.431c0.376-0.373-0.125-2.463-0.63-2.624c-0.471-0.149-0.516-0.472-0.089-0.635
		c0.168-0.065,0.306-0.231,0.306-0.37c0-0.139,0.183-0.418,0.407-0.621c0.516-0.467,0.52-0.84,0.012-0.973
		c-0.373-0.098-0.38-0.16-0.115-1.093c0.154-0.545,0.355-1.357,0.447-1.806c0.158-0.771,0.205-0.813,0.879-0.79
		c0.392,0.014,0.918,0.093,1.168,0.175c0.365,0.122,0.492,0.055,0.641-0.338c0.102-0.269,0.327-0.607,0.5-0.75
		c0.488-0.405,1.155,0.046,1.155,0.782c0,0.377,0.161,0.706,0.44,0.901c0.541,0.379,0.844,0.229,0.667-0.328
		c-0.085-0.269-0.055-0.369,0.084-0.283c0.396,0.245,1.254-0.105,1.254-0.512c0-0.572,0.77-0.506,0.852,0.073
		c0.054,0.378,0.211,0.469,0.906,0.52c0.811,0.059,0.845,0.037,0.946-0.611c0.134-0.858-0.708-1.879-1.404-1.704
		c-0.329,0.083-0.432,0.021-0.411-0.245c0.021-0.261-0.153-0.372-0.651-0.42c-0.55-0.053-0.649-0.13-0.526-0.407
		c0.084-0.189,0.193-0.755,0.242-1.26c0.125-1.29,0.405-1.578,0.948-0.979c0.234,0.258,0.647,0.595,0.918,0.749
		c0.435,0.246,0.524,0.236,0.762-0.09c0.469-0.642,0.183-3.004-0.523-4.325c-0.174-0.325-0.18-0.562-0.022-0.856
		c0.278-0.52,0.534-0.52,0.67,0c0.112,0.43,0.96,0.588,0.96,0.179c0-0.155,0.101-0.145,0.314,0.032
		c0.313,0.261,2.051,0.344,2.286,0.11c0.068-0.068,0.015-0.232-0.118-0.364c-0.363-0.363-0.325-3.216,0.042-3.216
		c0.156,0,0.337-0.138,0.401-0.306c0.064-0.168,0.257-0.305,0.429-0.305s0.313-0.131,0.313-0.292s0.183-0.351,0.407-0.421
		c0.492-0.156,0.518-0.457,0.083-0.938c-0.48-0.53-0.207-1.608,0.407-1.608c0.509,0,1.344-0.775,1.344-1.248
		c0-0.167,0.121-0.471,0.27-0.673c0.204-0.278,0.365-0.321,0.662-0.175c0.216,0.107,0.698,0.347,1.071,0.534
		c0.374,0.187,0.847,0.34,1.053,0.34s0.562,0.304,0.792,0.676s0.604,0.844,0.832,1.05s0.415,0.544,0.415,0.75
		c0,0.658,0.747,0.459,0.886-0.235c0.188-0.943,1.089-0.853,2.044,0.204c0.816,0.903,1.042,0.971,1.587,0.478
		c0.298-0.27,0.373-0.279,0.373-0.049c0,0.158,0.17,0.395,0.377,0.524c0.47,0.293,2.271,0.312,2.271,0.023
		c0-0.13,0.251-0.162,0.647-0.083c0.501,0.1,0.754,0.028,1.121-0.316c0.452-0.424,0.474-0.427,0.474-0.05
		c0,0.289,0.267,0.49,0.995,0.749c1.399,0.497,2.606,0.453,3.568-0.128c0.63-0.381,0.986-0.459,1.732-0.378
		c0.516,0.056,1.012,0.227,1.102,0.379c0.089,0.152,0.394,0.277,0.677,0.277s0.651,0.137,0.819,0.305
		c0.364,0.364,1.092,0.407,1.092,0.064c0-0.133-0.199-0.453-0.441-0.711c-0.426-0.453-0.428-0.483-0.075-0.874
		c0.417-0.46,0.72-0.373,0.72,0.209c0,0.35,0.149,0.396,1.303,0.396c0.97,0,1.333,0.078,1.42,0.305
		c0.075,0.196,0.393,0.307,0.888,0.309c0.869,0.003,1.46,0.269,1.098,0.493c-0.124,0.077-0.226,0.299-0.226,0.495
		c0,0.195-0.465,0.876-1.033,1.513c-0.802,0.9-1.018,1.284-0.968,1.722c0.052,0.446,0.184,0.577,0.635,0.629
		c0.482,0.055,0.548,0.133,0.429,0.509c-0.078,0.244-0.356,0.728-0.621,1.074c-0.264,0.347-0.48,0.734-0.48,0.859
		s-0.599,0.682-1.331,1.236c-1.042,0.79-1.561,1.039-2.393,1.154c-0.962,0.132-1.207,0.285-2.592,1.612
		c-0.946,0.907-2.035,1.715-2.854,2.118c-0.729,0.359-1.737,0.87-2.242,1.136c-0.504,0.267-1.085,0.54-1.293,0.608
		c-0.207,0.068-0.424,0.308-0.483,0.533c-0.059,0.225-0.439,0.553-0.846,0.729c-0.407,0.177-1.029,0.445-1.382,0.597
		c-0.531,0.228-0.668,0.427-0.79,1.146c-0.209,1.243-0.49,1.6-1.254,1.6c-0.822,0-1.026,0.315-0.547,0.844
		c0.304,0.335,0.527,0.387,1.219,0.284c0.623-0.093,0.931-0.044,1.162,0.188c0.494,0.495,1.181,0.372,1.944-0.348
		c0.467-0.44,0.658-0.537,0.57-0.289c-0.073,0.206-0.132,0.451-0.132,0.545s-1.398,1.479-3.108,3.078
		c-1.708,1.599-3.138,3.032-3.175,3.184c-0.051,0.209,0.164,0.266,0.869,0.229c0.516-0.026,1.044,0.06,1.178,0.194
		c0.542,0.542,2.789,0.178,3.822-0.62c0.419-0.323,0.777-0.377,2.139-0.323c1.564,0.062,1.639,0.044,1.701-0.395
		c0.057-0.403,0.192-0.462,1.121-0.489c1.889-0.055,2.226,0.033,2.887,0.754c0.346,0.378,0.963,0.827,1.372,0.998
		c0.408,0.171,0.8,0.404,0.871,0.517c0.156,0.252,1.374,0.275,1.642,0.031c0.527-0.479,1.488-0.602,2.365-0.302
		c0.487,0.167,0.972,0.388,1.079,0.493c0.106,0.104,0.394,0.189,0.639,0.189c0.245,0,0.708,0.137,1.029,0.305
		s0.739,0.305,0.928,0.306c0.189,0,0.392,0.077,0.449,0.171c0.058,0.093,0.76,0.292,1.561,0.443
		c1.137,0.214,1.542,0.222,1.845,0.032c0.317-0.198,0.54-0.167,1.194,0.167c0.967,0.493,1.298,0.512,1.645,0.095
		c0.321-0.387,1.113-0.308,1.113,0.112c0,0.46,0.542,1.096,1.171,1.374c0.345,0.152,0.561,0.406,0.561,0.659
		c0,0.227,0.092,0.412,0.204,0.412c0.112,0,0.204,0.137,0.204,0.305c0,0.168,0.099,0.306,0.218,0.306
		c0.513,0,0.801,0.617,0.801,1.717c0,0.911,0.065,1.135,0.331,1.135c0.27,0,0.284,0.056,0.079,0.303
		c-0.138,0.167-0.196,0.447-0.129,0.623c0.085,0.223-0.559,0.985-2.117,2.504c-1.231,1.201-2.239,2.279-2.239,2.394
		s-0.235,0.525-0.523,0.912c-0.792,1.061-1.149,2.042-1.044,2.862c0.101,0.785-0.225,1.401-1.717,3.245
		c-0.885,1.095-1.198,1.668-1.198,2.197c0,1.168-2.331,3.767-4.12,4.593c-0.611,0.282-0.804,0.517-0.996,1.209
		c-0.131,0.473-0.5,1.095-0.822,1.384c-0.385,0.346-0.57,0.697-0.542,1.029c0.055,0.669-1.006,2.001-1.711,2.148
		c-0.303,0.063-0.707,0.287-0.898,0.499c-0.191,0.211-0.463,0.384-0.604,0.384c-0.142,0-0.511,0.269-0.821,0.598
		c-0.513,0.543-0.601,0.57-0.979,0.305c-0.516-0.361-1.13-0.363-1.601-0.006c-0.384,0.292-0.229,0.534,0.512,0.798
		c0.439,0.157,0.472,1.013,0.051,1.362c-0.168,0.14-0.305,0.476-0.305,0.748c0,0.59,0.842,1.494,1.392,1.494
		c0.217,0,0.722,0.403,1.129,0.899l0.737,0.9l-0.866,0.637c-0.476,0.35-1.094,0.685-1.375,0.743
		c-0.28,0.059-0.854,0.231-1.276,0.384c-0.72,0.26-0.802,0.248-1.354-0.217c-0.876-0.738-1.693-0.652-2.835,0.298
		c-0.524,0.436-1.162,0.855-1.417,0.932c-0.259,0.079-0.62,0.472-0.816,0.889c-0.325,0.693-0.435,0.759-1.472,0.892
		c-2.91,0.374-3.083,0.492-2.088,1.428c0.384,0.361,0.894,0.57,1.62,0.667c0.583,0.077,1.167,0.27,1.298,0.428
		s0.358,0.288,0.503,0.288s0.302,0.114,0.348,0.254c0.059,0.176,0.546,0.247,1.574,0.23c1.361-0.022,1.524-0.071,1.918-0.576
		c1.336-1.711,1.407-1.774,1.838-1.644c0.235,0.072,0.748,0.177,1.141,0.235c0.766,0.112,2.038,1.23,2.038,1.793
		c0,0.175,0.123,0.319,0.274,0.319c0.57,0,1.57,0.666,2.416,1.606c0.998,1.11,1.667,1.531,2.209,1.389
		c0.214-0.056,0.529,0.072,0.735,0.3c0.2,0.221,0.522,0.355,0.725,0.302c0.287-0.075,0.347,0.004,0.282,0.366
		c-0.052,0.283,0.067,0.59,0.305,0.794c0.213,0.184,0.389,0.522,0.389,0.752c0,0.231,0.137,0.686,0.306,1.011
		c0.167,0.325,0.409,1.071,0.534,1.658c0.126,0.587,0.405,1.211,0.62,1.386c0.214,0.175,0.503,0.547,0.643,0.827
		c0.157,0.317,0.479,0.547,0.858,0.612c0.539,0.093,0.613,0.193,0.669,0.918c0.05,0.65,0.253,1.008,1.006,1.777
		c1.052,1.074,1.007,0.937,1.185,3.678c0.106,1.637,0.071,2.08-0.197,2.489c-0.417,0.635-0.417,1.514,0,2.109
		c0.299,0.427,0.299,0.495,0,0.826c-0.393,0.434-0.409,1.171-0.04,1.836c0.149,0.269,0.229,0.65,0.178,0.848
		c-0.06,0.228,0.037,0.383,0.267,0.427c0.345,0.066,0.345,0.086-0.003,0.434c-0.382,0.382-0.413,0.707-0.202,2.134
		c0.085,0.576,0.296,1,0.627,1.261c0.42,0.331,0.497,0.562,0.488,1.475c-0.016,1.607,0.001,1.796,0.154,1.796
		c0.077,0,0.153,0.894,0.17,1.987c0.016,1.093,0.09,2.491,0.163,3.107c0.157,1.318,0.875,2.877,1.384,3.01
		c0.408,0.106,0.476,0.381,0.124,0.499c-0.263,0.087-0.073,1.178,0.205,1.178c0.09,0,0.662,0.462,1.27,1.027
		c0.607,0.565,1.354,1.081,1.66,1.146c0.306,0.064,0.661,0.244,0.789,0.399s0.415,0.281,0.638,0.281
		c0.464,0,2.273,1.372,2.974,2.256c0.26,0.328,0.604,0.597,0.763,0.597c0.405,0,1.515,1.591,1.515,2.17
		c0,0.264,0.089,0.479,0.199,0.479c0.301,0,0.754,1.009,0.916,2.038c0.317,2.021,0.717,3.006,1.441,3.559
		c0.575,0.438,0.694,0.655,0.653,1.188c-0.028,0.359-0.132,0.711-0.231,0.783c-0.285,0.208,0.052,1.193,0.408,1.193
		c0.176,0,0.59,0.192,0.918,0.426l0.597,0.425l-0.597,0.68c-0.329,0.374-0.661,0.968-0.738,1.32
		c-0.25,1.138,0.278,4.049,1.016,5.605c0.372,0.785,0.732,1.564,0.8,1.732c0.068,0.168,0.299,0.581,0.515,0.917
		c0.215,0.336,0.397,0.729,0.405,0.871c0.008,0.143,0.336,0.727,0.728,1.297s0.713,1.198,0.713,1.396s0.053,0.668,0.118,1.047
		c0.114,0.664,0.109,0.67-0.152,0.194c-0.149-0.271-0.589-0.67-0.978-0.886c-0.586-0.327-0.826-0.357-1.406-0.179
		c-0.874,0.268-1.131,0.133-2.233-1.174c-0.48-0.57-0.996-1.037-1.146-1.037c-0.381,0-0.542,0.53-0.325,1.071
		c0.297,0.745,1.85,2.486,2.323,2.604c0.263,0.066,0.626,0.491,0.911,1.07c0.261,0.528,0.559,0.96,0.662,0.96
		s0.189,0.169,0.189,0.376c0,0.52,0.594,1.007,1.324,1.086c0.825,0.089,1.175,1.093,0.781,2.238
		c-0.18,0.522-0.205,0.925-0.076,1.237c0.104,0.254,0.337,0.994,0.515,1.644c0.319,1.157,0.808,1.672,1.116,1.174
		c0.271-0.439,0.415,0.322,0.415,2.198c0,1.559-0.062,1.861-0.517,2.53c-0.284,0.418-0.61,0.761-0.725,0.761
		c-0.671,0-4.667,3.251-4.667,3.797c0,0.153-0.145,0.278-0.321,0.278c-0.55,0-0.229,0.673,0.401,0.842
		c0.764,0.204,1.752,1.154,1.76,1.693c0.01,0.665,0.491,1.133,1.163,1.133c0.338,0,0.732,0.141,0.875,0.313
		c0.143,0.172,0.406,0.29,0.585,0.26c0.179-0.029,0.44,0.019,0.582,0.107c0.157,0.099,0.303,0.038,0.378-0.157
		c0.067-0.174,0.198-0.271,0.29-0.213c0.093,0.058,0.226,0.01,0.297-0.104c0.071-0.115-0.019-0.265-0.198-0.334
		c-0.285-0.109-0.273-0.164,0.088-0.417c0.229-0.16,0.417-0.394,0.417-0.52c0-0.125,0.161-0.576,0.356-1.001
		c0.257-0.558,0.485-0.776,0.815-0.78c0.284-0.003,0.458-0.131,0.458-0.335c0-0.245,0.118-0.296,0.458-0.199
		c0.252,0.072,0.894,0.187,1.426,0.256c0.732,0.095,0.968,0.059,0.968-0.146c0-0.2,0.067-0.187,0.254,0.049
		c0.362,0.455,2.395,0.666,2.395,0.249c0-0.229,0.165-0.28,0.662-0.204c0.364,0.056,1.153,0.156,1.754,0.223
		c0.6,0.067,1.557,0.347,2.126,0.622c0.569,0.275,1.197,0.5,1.395,0.5c0.646,0,1.421,0.462,1.301,0.775
		c-0.133,0.346,0.265,0.901,0.528,0.739c0.1-0.062,0.184,0.054,0.187,0.257c0.01,0.552,0.492,1.082,0.984,1.082
		c0.252,0,0.436,0.129,0.436,0.306c0,0.168,0.09,0.305,0.2,0.305c0.11,0,0.258,0.229,0.328,0.51
		c0.079,0.316,0.272,0.509,0.509,0.509c0.237,0,0.43,0.193,0.51,0.509c0.07,0.28,0.255,0.51,0.412,0.51
		c0.155,0,0.283,0.131,0.283,0.292s0.275,0.488,0.611,0.727c0.336,0.24,0.611,0.569,0.611,0.733s0.137,0.351,0.306,0.416
		c0.217,0.083,0.306,0.423,0.306,1.178c0,0.743,0.11,1.18,0.37,1.458c0.547,0.587,0.554,4.159,0.01,5.128
		c-0.209,0.372-0.38,0.937-0.38,1.257c0,0.319-0.128,0.686-0.284,0.815c-0.156,0.13-0.403,0.531-0.549,0.891
		c-0.146,0.361-0.526,0.985-0.845,1.388c-0.419,0.529-0.641,1.12-0.798,2.13c-0.119,0.769-0.334,1.585-0.477,1.814
		c-0.142,0.229-0.319,0.677-0.393,0.995c-0.174,0.749-0.994,1.562-1.573,1.562c-0.301,0-0.988,0.551-2.033,1.63
		c-1.115,1.151-1.724,1.63-2.07,1.63c-0.491,0-1.166,0.555-1.166,0.959c0,0.117,0.138,0.328,0.306,0.467
		c0.431,0.357,0.399,0.45-0.458,1.308c-1.416,1.417-3.821,2.078-4.072,1.12c-0.096-0.366-0.212-0.406-0.84-0.289
		c-0.958,0.18-1.908,0.68-1.756,0.926c0.066,0.107,0.246,0.195,0.399,0.195c0.377,0,0.465,0.55,0.242,1.529
		c-0.103,0.448-0.198,1.199-0.212,1.669c-0.03,0.955-0.357,1.35-1.657,1.997c-0.448,0.223-0.965,0.526-1.149,0.673
		c-0.278,0.223-0.512,0.21-1.398-0.08c-0.99-0.324-1.103-0.325-1.633-0.012c-0.313,0.185-0.761,0.336-0.997,0.336
		c-0.283,0-0.427,0.13-0.427,0.384c0,0.297,0.201,0.415,0.886,0.517c0.61,0.091,1.071,0.326,1.478,0.751
		c0.59,0.617,1.183,0.948,2.527,1.413c0.708,0.245,1.63,1.347,1.63,1.947c0,0.426,0.563,0.583,1.086,0.303
		c0.555-0.297,7.21-0.157,7.526,0.159c0.278,0.278-0.188,1.401-0.694,1.672c-0.329,0.176-0.379,0.458-0.379,2.12
		c0,1.058-0.091,1.973-0.204,2.042c-0.112,0.069-0.204,0.287-0.204,0.483c0,0.197-0.257,0.604-0.571,0.905
		c-0.479,0.459-0.754,0.547-1.693,0.547c-0.671,0-1.28,0.121-1.517,0.299c-0.217,0.165-0.743,0.302-1.168,0.306
		c-1.007,0.008-2.23,0.645-2.884,1.501c-0.403,0.529-0.521,0.921-0.521,1.734c0,0.707-0.083,1.049-0.255,1.046
		c-0.14-0.003-1.029-0.267-1.976-0.586l-1.721-0.583l-0.724,0.706c-1.017,0.991-1.659,1.214-3.979,1.383
		c-2.467,0.18-2.596,0.226-3.876,1.401c-1.116,1.023-1.679,1.158-2.242,0.536c-0.203-0.224-0.573-0.408-0.822-0.408
		s-0.57-0.142-0.714-0.314c-0.376-0.454-2.352-1.315-3.014-1.315c-0.311,0-0.665,0.1-0.787,0.222
		c-0.326,0.326-0.988-0.088-1.313-0.82l-0.267-0.604l-4.868,0.041l-4.868,0.04l-0.574,0.688l-0.574,0.688l-1.061-1.044
		c-0.662-0.651-1.239-1.044-1.534-1.044c-0.259,0-0.682-0.086-0.94-0.192c-0.257-0.105-0.989-0.249-1.625-0.318
		c-0.964-0.106-1.311-0.261-2.069-0.929c-0.501-0.441-1.085-0.802-1.297-0.802c-0.501,0-0.875,0.383-0.875,0.896
		c0,0.414,0.94,1.55,1.283,1.55c0.103,0,0.613,0.196,1.133,0.436c1.515,0.7,2.016,2.212,0.733,2.212c-0.498,0-0.995,0.49-1.208,1.19
		c-0.112,0.366-0.248,0.45-0.585,0.359c-0.241-0.064-0.851-0.121-1.355-0.124c-0.844-0.006-1.031-0.113-2.332-1.327
		c-1.18-1.102-1.532-1.321-2.124-1.321h-0.709l0.463-0.494l0.463-0.494l-0.866-0.627c-0.476-0.345-1.076-0.627-1.333-0.627
		c-0.256,0-0.526-0.097-0.6-0.215c-0.088-0.143-0.3-0.105-0.629,0.111c-0.273,0.178-0.572,0.278-0.663,0.221
		c-0.092-0.057-0.747-0.121-1.455-0.142c-1.177-0.035-1.33,0.01-1.771,0.523c-0.382,0.444-0.433,0.622-0.243,0.851
		c0.188,0.226,0.161,0.376-0.125,0.692c-0.201,0.222-0.489,0.404-0.64,0.404c-0.15,0-0.273,0.138-0.273,0.306
		c0,0.368-1.223,0.429-1.573,0.078c-0.566-0.565-2.038-1.25-2.843-1.32c-0.355-0.032-1.026-0.251-1.491-0.488
		s-1.16-0.472-1.545-0.521c-0.582-0.075-0.7-0.024-0.7,0.295c0,0.211-0.129,0.434-0.286,0.494c-0.406,0.156-1.14-0.069-1.14-0.35
		c0-0.332-2.781-2.996-3.805-3.645c-0.467-0.296-1.087-0.598-1.377-0.671c-0.291-0.073-0.578-0.214-0.64-0.314
		c-0.146-0.234-1.049-0.234-1.194,0c-0.167,0.27-1.573,0.396-2.127,0.192c-0.302-0.112-0.579-0.099-0.739,0.034
		c-0.157,0.13-0.795,0.163-1.656,0.085c-1.372-0.124-1.413-0.113-2,0.505c-0.329,0.348-0.759,0.633-0.956,0.633
		c-0.196,0-0.417,0.097-0.49,0.215c-0.078,0.126-0.388,0.16-0.747,0.081c-0.547-0.12-0.718-0.022-1.596,0.913
		c-1.009,1.075-1.436,2.116-1.033,2.519c0.377,0.377,0.253,0.55-0.392,0.55c-0.476,0-0.663,0.121-0.817,0.526
		c-0.234,0.617-0.111,0.9,0.392,0.9c0.517,0,0.668,0.222,0.385,0.563c-0.135,0.163-0.341,0.487-0.458,0.722
		c-0.129,0.26-0.548,0.511-1.067,0.641c-1.038,0.259-2.098,1.223-2.098,1.906v0.495L50.845,257c-0.98-0.081-1.859-0.194-1.952-0.25
		c-0.093-0.057-0.113-0.326-0.045-0.598c0.238-0.949-0.915-1.904-2.305-1.908c-0.567-0.002-0.89-0.157-1.375-0.662
		c-0.349-0.363-0.608-0.826-0.577-1.03c0.088-0.564-0.439-0.636-1.232-0.168c-0.539,0.318-0.715,0.353-0.715,0.141
		c0-0.154-0.269-0.506-0.597-0.783c-0.654-0.551-2.698-0.939-3.133-0.596c-0.336,0.266-2.16,0.442-2.296,0.222
		c-0.061-0.098-0.373-0.179-0.693-0.179c-0.321,0-0.621-0.115-0.668-0.255c-0.067-0.199-0.16-0.193-0.424,0.025
		c-0.221,0.182-0.339,0.2-0.339,0.051c0-0.131-0.348-0.229-0.815-0.229c-0.605,0-0.815,0.083-0.815,0.32
		c0,0.176-0.141,0.461-0.313,0.633s-0.262,0.471-0.201,0.664c0.064,0.204-0.054,0.501-0.279,0.706
		c-0.334,0.302-0.453,0.314-0.822,0.085c-0.367-0.229-0.525-0.215-1.055,0.088c-0.343,0.196-0.848,0.356-1.123,0.356
		c-0.292,0-0.552,0.149-0.625,0.357c-0.271,0.762-0.689,1.042-1.387,0.929c-0.851-0.138-1.163,0.348-1.093,1.701
		c0.042,0.814-0.027,1.002-0.516,1.392c-0.348,0.278-0.746,0.415-1.04,0.359c-0.347-0.067-0.57,0.052-0.824,0.438
		C23.181,259.43,22.858,259.479,22.427,258.984L22.427,258.984z M32.904,140.097c-0.134-0.135-0.244-0.404-0.244-0.599
		c0-0.216-0.265-0.449-0.681-0.6c-0.423-0.153-0.905-0.583-1.273-1.136c-0.468-0.703-0.7-0.878-1.103-0.836
		c-0.396,0.041-0.532,0.194-0.611,0.685c-0.088,0.549-1.216,2.119-1.521,2.119c-0.236,0-0.089-0.702,0.217-1.041
		c0.378-0.418,0.225-0.793-0.326-0.793c-0.211,0-0.433-0.08-0.493-0.177c-0.113-0.184-2.326-0.128-2.517,0.063
		c-0.059,0.06-0.232-0.132-0.385-0.426c-0.203-0.39-0.217-0.605-0.054-0.802c0.123-0.147,0.163-0.458,0.089-0.689
		c-0.092-0.291,0.026-0.611,0.382-1.034c0.507-0.604,0.521-0.986,0.058-1.583c-0.127-0.164-0.402-0.219-0.708-0.142
		c-0.822,0.206-1.466-0.564-1.466-1.753c0-0.534-0.095-1.03-0.211-1.103c-0.117-0.072-0.153-0.318-0.081-0.547
		c0.073-0.23,0.018-0.958-0.122-1.618c-0.199-0.935-0.408-1.333-0.947-1.807c-0.38-0.334-0.829-0.607-0.996-0.607
		s-0.586,0.321-0.931,0.713s-0.78,0.713-0.967,0.713c-0.188,0-0.643,0.275-1.012,0.613c-0.646,0.589-0.66,0.635-0.376,1.204
		c0.34,0.681,0.228,1.647-0.191,1.647c-0.157,0-0.65,0.114-1.097,0.253c-0.641,0.2-0.812,0.353-0.812,0.727
		c0,0.659-0.359,1.262-0.752,1.262c-0.181,0-0.632-0.231-1.002-0.513c-0.771-0.588-1.914-0.897-1.914-0.518
		c0,0.155-0.157,0.193-0.433,0.105c-0.238-0.076-0.55-0.155-0.692-0.175c-0.476-0.07-0.885-0.551-1.024-1.206
		c-0.076-0.356-0.286-0.816-0.467-1.022c-0.398-0.451-1.54-0.951-2.172-0.951c-0.745,0-0.987-0.486-0.859-1.724l0.114-1.105
		l-0.748-0.389c-0.439-0.229-0.757-0.549-0.769-0.776c-0.012-0.213-0.035-0.602-0.051-0.864c-0.018-0.291-0.189-0.519-0.438-0.584
		c-0.267-0.069-0.408-0.278-0.408-0.602c0-0.579-0.446-1.512-0.906-1.893c-0.419-0.348-0.058-0.824,0.625-0.824
		c0.267,0,0.484-0.103,0.484-0.229c0-0.161,0.088-0.156,0.297,0.018c0.355,0.295,0.72,0.115,0.729-0.361
		c0.003-0.189,0.189-0.564,0.413-0.833l0.407-0.488l0.466,0.438c0.323,0.303,0.727,0.438,1.318,0.438
		c0.839,0,0.853-0.012,0.853-0.713c0-0.823,0.278-0.905,0.944-0.279c0.548,0.515,1.003,0.4,1.134-0.286
		c0.105-0.552-0.575-1.37-1.14-1.37c-0.188,0-0.328-0.167-0.328-0.394c0-0.217-0.184-0.452-0.408-0.523
		c-0.756-0.24-0.325-1.221,0.628-1.43c0.513-0.113,0.735-0.04,1.185,0.391c0.501,0.48,0.59,0.502,0.949,0.231
		c0.217-0.165,0.597-0.303,0.842-0.306s0.507-0.104,0.581-0.224c0.088-0.143,0.262-0.102,0.506,0.121
		c0.67,0.606,1.448,0.139,2.14-1.284c0.178-0.367,0.413-0.612,0.521-0.545c0.357,0.221,1.348-1.078,1.488-1.951
		c0.109-0.68,0.242-0.873,0.716-1.038c0.501-0.175,0.601-0.34,0.713-1.188c0.143-1.079,0.397-1.264,1.753-1.276
		c0.392-0.003,0.76-0.08,0.817-0.17c0.197-0.309,1.521,0.11,1.713,0.543c0.133,0.298,0.393,0.429,0.89,0.447
		c0.946,0.036,1.411-0.25,1.567-0.959c0.075-0.343,0.295-0.636,0.523-0.695c0.216-0.057,0.477-0.322,0.578-0.589
		c0.318-0.835,0.706-1.031,1.375-0.693c0.322,0.162,0.974,0.408,1.45,0.546c0.766,0.222,0.912,0.209,1.271-0.116
		c0.294-0.266,0.729-0.366,1.58-0.362c0.736,0.003,1.505-0.144,2.062-0.394l0.888-0.398l0.405,0.435
		c0.222,0.239,0.603,0.419,0.844,0.4c0.758-0.06,0.884-0.006,1.526,0.651c0.588,0.601,0.692,0.633,1.682,0.516
		c0.581-0.069,0.997-0.066,0.924,0.006c-0.073,0.072,0.069,0.345,0.314,0.606c0.537,0.571,1.061,1.97,0.774,2.068
		c-0.109,0.037-0.201,0.221-0.205,0.407c-0.003,0.187-0.141,0.518-0.306,0.735c-0.458,0.607-0.371,1.239,0.21,1.503
		c0.561,0.256,0.627,0.575,0.279,1.339c-0.242,0.532-0.208,0.667,0.422,1.652c0.215,0.336,0.397,0.867,0.405,1.178
		c0.008,0.312,0.142,0.616,0.297,0.675c0.156,0.06,0.337,0.38,0.404,0.711c0.066,0.332,0.283,0.661,0.481,0.73
		c0.867,0.306,1.278,0.927,1.278,1.927c0,0.772-0.107,1.082-0.519,1.493c-0.285,0.285-0.745,0.519-1.021,0.519
		c-0.277,0-0.662,0.077-0.857,0.171c-0.195,0.094-0.627,0.302-0.96,0.463c-0.773,0.373-1.324,1.287-0.982,1.628
		c0.184,0.185,0.405,0.162,0.949-0.096c0.986-0.468,1.886-0.623,2.053-0.353c0.076,0.124,0.585,0.224,1.13,0.224
		c0.833,0,1.061,0.087,1.422,0.547c0.309,0.394,0.395,0.708,0.305,1.119c-0.074,0.334-0.005,0.813,0.164,1.153
		c0.192,0.384,0.257,0.972,0.194,1.733c-0.06,0.728-0.006,1.261,0.148,1.446c0.268,0.323,0.068,0.867-0.487,1.329
		c-0.174,0.145-0.317,0.572-0.317,0.951c0,0.379-0.092,0.688-0.204,0.688c-0.112,0-0.204,0.128-0.204,0.285s-0.608,0.881-1.352,1.61
		c-1.446,1.418-2.383,1.833-2.813,1.246c-0.3-0.41-2.351-0.618-2.948-0.299c-0.261,0.139-0.427,0.429-0.427,0.744
		c0,0.973-0.807,2.395-1.752,3.087c-0.498,0.364-1.017,0.665-1.155,0.668c-0.138,0.004-0.429,0.141-0.646,0.306
		C33.516,140.405,33.227,140.42,32.904,140.097L32.904,140.097z M55.086,102.555c-0.656-0.676-0.682-0.767-0.754-2.598
		c-0.041-1.043-0.087-2.153-0.103-2.466c-0.056-1.14,1.938-2.943,2.663-2.408c0.177,0.13,0.462,0.286,0.634,0.345
		c0.73,0.253,1.143,2.594,0.577,3.276c-0.178,0.215-0.148,0.373,0.129,0.679c0.198,0.219,0.386,0.607,0.417,0.862
		s0.115,0.611,0.188,0.793c0.082,0.204,0.011,0.377-0.185,0.452c-0.175,0.067-0.317,0.346-0.317,0.621
		c0,1.004-0.173,1.144-1.409,1.144C55.871,103.256,55.703,103.192,55.086,102.555L55.086,102.555z M34.935,48.586
		c-0.139-0.167-0.561-0.362-0.938-0.433c-0.377-0.07-0.795-0.261-0.93-0.423c-0.372-0.447-0.169-3.766,0.268-4.39
		c0.189-0.269,0.343-0.567,0.343-0.662c0-0.095,0.137-0.311,0.306-0.479c0.198-0.198,0.306-0.702,0.306-1.431
		c0-0.948,0.063-1.142,0.4-1.23c0.345-0.09,0.384-0.226,0.281-0.979c-0.107-0.783-0.064-0.911,0.415-1.224
		c0.326-0.213,0.534-0.537,0.534-0.83c0-0.531-0.763-2.122-1.018-2.122c-0.458,0-0.341-0.686,0.218-1.271
		c0.533-0.557,0.673-0.613,1.012-0.401c0.478,0.298,1.01,0.32,1.01,0.042c0-0.112,0.355-0.204,0.791-0.204
		c0.454,0,0.897-0.13,1.043-0.306c0.139-0.168,0.38-0.305,0.534-0.305c0.155,0,0.281-0.092,0.281-0.204
		c0-0.112-0.112-0.204-0.249-0.204c-0.138,0-0.055-0.194,0.187-0.436c0.276-0.276,0.564-0.387,0.787-0.301
		c0.325,0.125,0.326,0.161,0.017,0.503c-0.396,0.438-0.452,1.661-0.077,1.661c0.141,0,0.376,0.192,0.523,0.427
		c0.225,0.36,0.217,0.482-0.053,0.78c-0.176,0.194-0.319,0.492-0.319,0.662s-0.179,0.47-0.396,0.667
		c-0.218,0.197-0.453,0.617-0.523,0.935c-0.069,0.317-0.481,0.979-0.914,1.471c-0.573,0.651-0.805,1.112-0.853,1.695
		c-0.061,0.738-0.11,0.796-0.641,0.759l-0.576-0.04l0.101,1.611c0.091,1.458,0.063,1.623-0.291,1.735
		c-0.215,0.069-0.392,0.291-0.392,0.494c0,0.203-0.137,0.482-0.305,0.622c-0.22,0.183-0.31,0.688-0.32,1.808
		c-0.008,0.855-0.081,1.724-0.162,1.93C35.206,48.843,35.156,48.852,34.935,48.586L34.935,48.586z M42.9,30.957
		c-0.447-0.535-0.465-0.538-0.764-0.152c-0.295,0.381-0.306,0.376-0.306-0.141c0-0.295,0.092-0.593,0.204-0.662
		c0.304-0.188,0.246-0.832-0.102-1.121c-0.337-0.28-0.414-0.814-0.116-0.814c0.104,0,0.327,0.138,0.495,0.306
		c0.359,0.36,1.286,0.107,1.482-0.405c0.065-0.17,0.289-0.309,0.498-0.309c0.249,0,0.34-0.103,0.266-0.297
		c-0.137-0.357,0.702-0.622,1.334-0.421c0.331,0.105,0.422,0.046,0.422-0.273c0-0.473-0.852-1.205-1.612-1.385
		c-0.628-0.148-1.241-0.643-1.241-1.001c0-0.141-0.108-0.293-0.24-0.336c-0.339-0.114-0.018-0.555,0.565-0.777
		c0.505-0.192,0.675-0.942,0.302-1.327c-0.406-0.419-0.228-2.741,0.211-2.741c0.099,0,0.18-0.184,0.18-0.407
		c0-0.225,0.135-0.408,0.301-0.408c0.165,0,0.443-0.275,0.617-0.611c0.331-0.64,0.594-0.764,0.827-0.388
		c0.076,0.123,0.363,0.179,0.639,0.127c0.311-0.06,0.542,0.011,0.609,0.185c0.134,0.35,0.633,0.371,0.621,0.025
		c-0.031-0.837,0.054-1.019,0.358-0.766c0.299,0.248,1.101,0.116,0.846-0.139c-0.195-0.195,0.491-0.877,0.881-0.877
		c0.186,0,0.717-0.184,1.181-0.408c0.464-0.224,1.251-0.407,1.749-0.407c0.603,0,0.942-0.099,1.018-0.296
		c0.063-0.163,0.508-0.486,0.99-0.717c0.482-0.231,1.014-0.503,1.182-0.604c0.168-0.101,0.616-0.299,0.995-0.439
		c0.379-0.142,0.95-0.476,1.268-0.744l0.579-0.487l0.412,0.676c0.564,0.925,0.53,1.912-0.096,2.732
		c-0.556,0.729-0.646,1.292-0.265,1.673c0.19,0.19,0.173,0.245-0.077,0.245c-0.399,0-3.021,2.419-3.021,2.787
		c0,0.148,0.092,0.269,0.204,0.269c0.442,0,0.166,0.379-0.509,0.7c-0.561,0.266-0.713,0.458-0.713,0.899
		c0,0.309-0.111,0.672-0.246,0.807c-0.136,0.135-0.26,0.776-0.277,1.424c-0.035,1.322-0.359,2-1.036,2.17
		c-0.251,0.063-0.614,0.382-0.807,0.708c-0.375,0.635-2.025,1.287-2.288,0.904c-0.074-0.106-0.432-0.214-0.796-0.239
		c-0.645-0.043-0.663-0.022-0.663,0.774c0,0.846-0.29,1.103-0.5,0.442c-0.066-0.207-0.36-0.486-0.654-0.62l-0.535-0.244l0.127,0.926
		c0.113,0.821,0.083,0.926-0.265,0.926c-0.215,0-0.451,0.095-0.522,0.212c-0.072,0.116-0.29,0.161-0.483,0.1
		c-0.221-0.069-0.519,0.08-0.797,0.4c-0.244,0.281-0.618,0.511-0.831,0.511s-0.44,0.138-0.504,0.306
		C43.823,31.675,43.417,31.576,42.9,30.957z M109.034,14.057c-0.176-0.42-0.374-0.924-0.44-1.121
		c-0.066-0.196-0.221-0.356-0.344-0.356c-0.337,0-1.084,0.435-1.338,0.778c-0.171,0.232-0.455,0.272-1.202,0.17
		c-1.194-0.164-1.529-0.418-1.529-1.166c0-0.316-0.091-0.631-0.204-0.7c-0.112-0.069-0.204-0.353-0.204-0.63
		c0-0.277-0.137-0.556-0.306-0.621c-0.76-0.292-0.001-1.5,0.943-1.5c0.277,0,0.616-0.112,0.753-0.25
		c0.197-0.198,0.155-0.322-0.201-0.59c-0.485-0.365-0.471-0.58,0.237-3.488c0.408-1.677,1.674-2.226,3.139-1.361
		c0.837,0.494,1.254,0.376,0.916-0.257c-0.184-0.344-0.145-0.499,0.215-0.854c0.415-0.408,0.455-0.413,0.706-0.077
		c0.146,0.196,0.493,0.356,0.771,0.356c0.688,0,1.234,0.635,1.078,1.256c-0.124,0.495-1.155,1.114-1.499,0.901
		c-0.102-0.063-0.301,0.024-0.443,0.195c-0.208,0.251-0.204,0.411,0.023,0.836c0.261,0.487,0.241,0.557-0.279,0.972l-0.56,0.446
		l0.529,0.46c0.401,0.349,0.674,0.428,1.125,0.33c0.509-0.112,0.595-0.069,0.595,0.293c0,0.358,0.125,0.424,0.815,0.424
		c0.664,0,0.815,0.071,0.815,0.386c0,0.4,0.511,0.719,0.833,0.52c0.273-0.168,0.213,0.569-0.077,0.95
		c-0.137,0.18-0.473,0.398-0.747,0.485c-0.721,0.229-2.251,1.731-2.251,2.21c0,0.225-0.062,0.347-0.136,0.272
		c-0.233-0.233-0.882,0.515-0.882,1.017C109.887,15.077,109.392,14.911,109.034,14.057L109.034,14.057z"/>
	<circle fill="#C60909" cx="143.416" cy="222.898" r="4.782"/>
</g>
</svg>
