<?xml version="1.0" encoding="utf-8"?>
<!-- Generator: Adobe Illustrator 16.0.0, SVG Export Plug-In . SVG Version: 6.00 Build 0)  -->
<!DOCTYPE svg PUBLIC "-//W3C//DTD SVG 1.1//EN" "http://www.w3.org/Graphics/SVG/1.1/DTD/svg11.dtd">
<svg version="1.1" id="Layer_1" xmlns="http://www.w3.org/2000/svg" xmlns:xlink="http://www.w3.org/1999/xlink" x="0px" y="0px"
	 width="93px" height="76px" viewBox="17 0 93 76" enable-background="new 17 0 93 76" xml:space="preserve">
<g>
	<g>
		<path fill="#FFFFFF" d="M48.753,10.62h9.783v1.312h-8.316v5.827h7.389v1.31h-7.389v7.682h-1.466L48.753,10.62L48.753,10.62z"/>
		<path fill="#FFFFFF" d="M59.268,10.62h1.469v14.821h8.64v1.309H59.268V10.62L59.268,10.62z"/>
		<path fill="#FFFFFF" d="M74.297,10.62h1.64l6.05,16.13h-1.577l-1.881-5.015H71.51l-1.857,5.015h-1.577L74.297,10.62z
			 M71.964,20.424h6.067l-2.979-8.269L71.964,20.424z"/>
		<path fill="#FFFFFF" d="M82.995,21.439c-0.064,3.321,2.201,4.338,5.031,4.338c1.62,0,4.082-0.927,4.082-3.275
			c0-1.83-1.728-2.553-3.176-2.915l-3.433-0.88c-1.814-0.475-3.478-1.356-3.478-3.885c0-1.582,0.971-4.542,5.313-4.542
			c3.066,0,5.699,1.694,5.699,5.015h-1.466c-0.108-2.439-2.01-3.704-4.213-3.704c-2.009,0-3.866,0.813-3.866,3.207
			c0,1.514,1.058,2.168,2.333,2.462l3.758,0.972c2.183,0.61,3.997,1.625,3.997,4.246c0,1.107-0.433,4.608-5.896,4.608
			c-3.651,0-6.329-1.717-6.156-5.647H82.995L82.995,21.439z"/>
		<path fill="#FFFFFF" d="M94.827,10.62h1.468v7.003h9.157V10.62h1.471v16.13h-1.471v-7.815h-9.157v7.815h-1.468V10.62L94.827,10.62
			z"/>
	</g>
	<g>
		<path fill="#FFFFFF" d="M22.032,13.864c0,4.347,0,8.672,0,13.018c-1.194,0-2.369,0-3.563,0c0-5.441,0-10.876,0-16.326
			c8.529,0,17.05,0,25.591,0c0,5.437,0,10.874,0,16.328c-1.157,0-2.311,0-3.498,0c0-4.341,0-8.672,0-13.02
			C34.377,13.864,28.225,13.864,22.032,13.864z"/>
		<path fill="#FFFFFF" d="M33.632,16.678c1.311,0,2.594,0,3.906,0c0,2.975,0,5.934,0,8.915c-1.306,0-2.594,0-3.906,0
			C33.632,22.63,33.632,19.67,33.632,16.678z"/>
		<path fill="#FFFFFF" d="M29.576,16.589c0,2.981,0,5.934,0,8.905c-1.279,0-2.542,0-3.839,0c0-2.957,0-5.918,0-8.905
			C27,16.589,28.271,16.589,29.576,16.589z"/>
	</g>
	<path fill="#FFFFFF" d="M46.175,51.239c0,9.667-4.453,14.48-14.587,14.48C21.458,65.72,17,60.907,17,51.239V31.667h8.725v20.086
		c0,4.298,1.547,6.492,5.863,6.492c4.316,0,5.863-2.194,5.863-6.492V31.667h8.724V51.239z"/>
	<path fill="#FFFFFF" d="M58.463,52.896c0.189,3.944,2.596,5.213,6.367,5.213c2.642,0,5.38-0.938,5.38-3.429
		c0-3.006-4.813-3.522-9.67-4.886c-4.765-1.361-9.858-3.474-9.858-9.675c0-7.326,7.406-10.191,13.725-10.191
		c6.651,0,13.487,3.289,13.487,10.803h-8.771c0.142-3.006-2.78-4.041-5.421-4.041c-1.888,0-4.25,0.658-4.25,2.867
		c0,2.629,4.86,3.053,9.766,4.414c4.856,1.362,9.762,3.618,9.762,9.677c0,8.501-7.264,11.225-14.668,11.225
		c-7.688,0-14.619-3.381-14.619-11.977H58.463L58.463,52.896z"/>
	<path fill="#FFFFFF" d="M80.714,30.632h15.753c5.799-0.142,12.166,1.456,12.166,8.408c0,3.006-1.792,5.447-4.434,6.763
		c3.586,1.079,5.801,4.133,5.801,7.939c0,7.98-5.895,10.425-13.109,10.425H80.714V30.632L80.714,30.632z M89.489,43.83h6.789
		c1.509,0,3.584-0.799,3.584-3.194c0-2.443-1.744-3.241-3.584-3.241h-6.789V43.83z M89.489,57.168h7.023
		c2.784,0,4.718-0.986,4.718-3.755c0-2.959-2.076-3.947-4.718-3.947h-7.023V57.168z"/>
</g>
</svg>
