<?xml version="1.0" encoding="utf-8"?>
<!-- Generator: Adobe Illustrator 16.0.0, SVG Export Plug-In . SVG Version: 6.00 Build 0)  -->
<!DOCTYPE svg PUBLIC "-//W3C//DTD SVG 1.1//EN" "http://www.w3.org/Graphics/SVG/1.1/DTD/svg11.dtd">
<svg version="1.1" id="Layer_1" xmlns="http://www.w3.org/2000/svg" xmlns:xlink="http://www.w3.org/1999/xlink" x="0px" y="0px"
	 width="50px" height="50px" viewBox="25 25 50 50" enable-background="new 25 25 50 50" xml:space="preserve">
<g>
	<path fill="#27A7CB" d="M40.106,44.017c0,1.017,0.001,1.969,0,2.922c-0.001,1.685-0.038,3.37,0.002,5.055
		c0.053,2.269-1.198,4.454-3.625,5.071c-0.09,0.023-0.172,0.068-0.289,0.116c0,2.085,0,4.168,0,6.255c0,2.067,0,4.135,0,6.204
		c-0.001,0.871-0.437,1.378-1.175,1.385c-0.716,0.009-1.185-0.513-1.186-1.379c-0.009-3.982-0.011-7.964,0.002-11.946
		c0.001-0.366-0.092-0.514-0.453-0.638c-2.054-0.704-3.386-2.585-3.386-4.755c-0.005-5.688-0.01-11.375,0.002-17.063
		c0.008-4.17,3.127-7.899,7.281-8.424c1.988-0.253,4.061-0.242,6.052,0.001c2.334,0.284,3.955,2.408,3.984,4.771
		c0.03,2.469,0.041,4.941,0.003,7.411c-0.043,2.829-2.301,5.005-5.124,5.015C41.526,44.017,40.856,44.017,40.106,44.017z
		 M41.107,28.882c-1.375,0.108-2.743,0.036-4.012,0.357c-2.521,0.64-4.115,2.349-4.599,4.928c-0.451,2.405,0.336,4.43,2.189,6.039
		c1.882,1.637,4.141,1.481,6.422,1.389C41.107,37.398,41.107,33.235,41.107,28.882z M32.447,41.402
		c-0.033,0.083-0.057,0.117-0.057,0.149c0.001,3.676-0.007,7.352,0.013,11.028c0.002,0.794,0.396,1.437,1.03,1.896
		c0.876,0.634,1.837,0.711,2.813,0.24c0.97-0.467,1.457-1.27,1.462-2.34c0.012-2.717,0.005-5.438,0.002-8.157
		c0-0.091-0.029-0.181-0.045-0.263C35.117,43.377,34.354,43.004,32.447,41.402z M43.5,29.342c0,4.021,0,7.954,0,11.902
		c0.817-0.299,1.423-1.146,1.428-2.048c0.014-2.586,0.032-5.17-0.01-7.755C44.902,30.516,44.43,29.792,43.5,29.342z"/>
	<path fill="#27A7CB" d="M63.547,57.156c-1.488-0.361-2.693-1.101-3.315-2.51c-0.308-0.698-0.543-1.487-0.563-2.242
		c-0.068-2.564-0.026-5.13-0.026-7.696c0-0.208,0-0.415,0-0.692c-0.702,0-1.366,0-2.029,0c-2.994-0.003-5.206-2.212-5.21-5.209
		c-0.003-2.317-0.001-4.632,0-6.95c0.001-2.623,1.606-4.607,4.161-5.15c0.072-0.016,0.15-0.035,0.227-0.034
		c1.91,0.035,3.838-0.076,5.728,0.138c3.668,0.417,6.826,3.849,7.124,7.532c0.054,0.665,0.087,1.335,0.087,2.004
		c0.006,5.15-0.031,10.302,0.019,15.45c0.026,2.619-1.331,4.645-3.581,5.32c-0.39,0.115-0.298,0.39-0.298,0.639
		c-0.004,3.963-0.007,7.926,0.001,11.889c0.001,0.462-0.06,0.888-0.472,1.161c-0.394,0.266-0.814,0.318-1.243,0.084
		c-0.426-0.234-0.611-0.602-0.609-1.085c0.004-2.432,0.001-4.862,0.001-7.293C63.547,60.731,63.547,58.951,63.547,57.156z
		 M58.629,41.617c0.941,0,1.822,0.022,2.701-0.002c4.284-0.127,7.245-4.668,5.569-8.615c-1.595-3.754-4.848-4.33-8.271-3.936
		C58.629,33.229,58.629,37.393,58.629,41.617z M61.986,43.985c0,0.206,0,0.432,0,0.657c0,2.257-0.002,4.514,0.002,6.771
		c0,0.401-0.006,0.807,0.04,1.203c0.171,1.447,1.324,2.448,2.722,2.384c1.521-0.072,2.592-1.188,2.594-2.709
		c0.003-3.462,0.001-6.925,0-10.386c0-0.161-0.021-0.321-0.036-0.513C64.983,43.298,64.211,43.464,61.986,43.985z M56.194,41.292
		c0-4.006,0-7.941,0-11.962c-0.85,0.464-1.354,1.112-1.368,1.979c-0.043,2.676-0.047,5.353,0.002,8.029
		C54.844,40.197,55.336,40.858,56.194,41.292z"/>
</g>
</svg>
