<?xml version="1.0" encoding="utf-8"?>
<!-- Generator: Adobe Illustrator 16.0.0, SVG Export Plug-In . SVG Version: 6.00 Build 0)  -->
<!DOCTYPE svg PUBLIC "-//W3C//DTD SVG 1.1//EN" "http://www.w3.org/Graphics/SVG/1.1/DTD/svg11.dtd">
<svg version="1.1" id="Layer_1" xmlns="http://www.w3.org/2000/svg" xmlns:xlink="http://www.w3.org/1999/xlink" x="0px" y="0px"
	 width="127px" height="76px" viewBox="182.25 112 127 76" enable-background="new 182.25 112 127 76" xml:space="preserve">
<g>
	<g>
		<path fill="#FFFFFF" d="M225.998,112.709h13.269v1.786h-11.278v7.937h10.021v1.783h-10.021v10.462h-1.99V112.709z"/>
		<path fill="#FFFFFF" d="M240.26,112.709h1.992v20.185h11.718v1.783h-13.71V112.709L240.26,112.709z"/>
		<path fill="#FFFFFF" d="M260.644,112.709h2.224l8.205,21.968h-2.14l-2.549-6.829h-9.52l-2.52,6.829h-2.138L260.644,112.709z
			 M257.479,126.063h8.23l-4.041-11.262L257.479,126.063z"/>
		<path fill="#FFFFFF" d="M272.441,127.446c-0.087,4.523,2.987,5.908,6.825,5.908c2.197,0,5.537-1.263,5.537-4.462
			c0-2.492-2.344-3.477-4.308-3.969l-4.656-1.199c-2.461-0.646-4.717-1.846-4.717-5.291c0-2.154,1.318-6.186,7.207-6.186
			c4.159,0,7.732,2.308,7.732,6.83h-1.99c-0.148-3.322-2.726-5.045-5.713-5.045c-2.725,0-5.244,1.107-5.244,4.368
			c0,2.063,1.435,2.953,3.164,3.354l5.096,1.324c2.961,0.831,5.422,2.214,5.422,5.783c0,1.507-0.587,6.275-7.997,6.275
			c-4.952,0-8.584-2.337-8.35-7.691H272.441L272.441,127.446z"/>
		<path fill="#FFFFFF" d="M288.489,112.709h1.992v9.538h12.421v-9.538h1.993v21.968h-1.993v-10.644h-12.421v10.644h-1.992V112.709
			L288.489,112.709z"/>
	</g>
	<g>
		<path fill="#FFFFFF" d="M189.754,117.128c0,5.92,0,11.811,0,17.729c-1.62,0-3.213,0-4.832,0c0-7.409,0-14.813,0-22.235
			c11.568,0,23.125,0,34.71,0c0,7.406,0,14.809,0,22.237c-1.57,0-3.134,0-4.744,0c0-5.911,0-11.81,0-17.732
			C206.498,117.128,198.155,117.128,189.754,117.128z"/>
		<path fill="#FFFFFF" d="M205.488,120.96c1.777,0,3.519,0,5.298,0c0,4.051,0,8.082,0,12.142c-1.772,0-3.518,0-5.298,0
			C205.488,129.067,205.488,125.036,205.488,120.96z"/>
		<path fill="#FFFFFF" d="M199.987,120.839c0,4.06,0,8.082,0,12.128c-1.735,0-3.449,0-5.207,0c0-4.028,0-8.06,0-12.128
			C196.493,120.839,198.217,120.839,199.987,120.839z"/>
	</g>
	<path fill="#FFFFFF" d="M222.501,168.031c0,13.167-6.04,19.721-19.785,19.721c-13.74,0-19.786-6.554-19.786-19.721v-26.657h11.833
		v27.356c0,5.854,2.101,8.842,7.953,8.842c5.854,0,7.952-2.988,7.952-8.842v-27.356h11.833V168.031z"/>
	<path fill="#FFFFFF" d="M239.168,170.286c0.257,5.372,3.521,7.101,8.635,7.101c3.583,0,7.296-1.28,7.296-4.671
		c0-4.094-6.527-4.797-13.114-6.653c-6.464-1.854-13.371-4.732-13.371-13.176c0-9.979,10.044-13.881,18.615-13.881
		c9.021,0,18.293,4.479,18.293,14.712h-11.898c0.193-4.093-3.771-5.503-7.353-5.503c-2.56,0-5.762,0.896-5.762,3.904
		c0,3.581,6.591,4.159,13.245,6.013c6.588,1.855,13.24,4.927,13.24,13.178c0,11.578-9.852,15.288-19.895,15.288
		c-10.427,0-19.828-4.605-19.828-16.312H239.168L239.168,170.286z"/>
	<path fill="#FFFFFF" d="M269.348,139.965h21.366c7.864-0.194,16.501,1.983,16.501,11.451c0,4.094-2.43,7.419-6.013,9.211
		c4.865,1.469,7.868,5.628,7.868,10.813c0,10.869-7.997,14.197-17.781,14.197h-21.941V139.965L269.348,139.965z M281.25,157.939
		h9.209c2.046,0,4.859-1.088,4.859-4.35c0-3.328-2.365-4.414-4.859-4.414h-9.209V157.939z M281.25,176.106h9.525
		c3.777,0,6.4-1.344,6.4-5.115c0-4.03-2.816-5.375-6.4-5.375h-9.525V176.106z"/>
</g>
</svg>
