<?xml version="1.0" encoding="utf-8"?>
<!-- Generator: Adobe Illustrator 16.0.0, SVG Export Plug-In . SVG Version: 6.00 Build 0)  -->
<!DOCTYPE svg PUBLIC "-//W3C//DTD SVG 1.1//EN" "http://www.w3.org/Graphics/SVG/1.1/DTD/svg11.dtd">
<svg version="1.1" id="Layer_1" xmlns="http://www.w3.org/2000/svg" xmlns:xlink="http://www.w3.org/1999/xlink" x="0px" y="0px"
	 width="500px" height="300px" viewBox="0 0 500 300" enable-background="new 0 0 500 300" xml:space="preserve">
<g>
	<g>
		<path fill="#0D5B99" d="M189.801,50.822h35.631v4.795h-30.284v21.31h26.906v4.79h-26.906v28.092h-5.347V50.822z"/>
		<path fill="#0D5B99" d="M228.097,50.822h5.35v54.199h31.464v4.788h-36.813V50.822z"/>
		<path fill="#0D5B99" d="M282.83,50.822h5.975l22.032,58.987h-5.747l-6.842-18.338h-25.567l-6.764,18.338h-5.741L282.83,50.822z
			 M274.334,86.677h22.101l-10.85-30.238L274.334,86.677z"/>
		<path fill="#0D5B99" d="M314.511,90.394c-0.234,12.144,8.023,15.864,18.329,15.864c5.898,0,14.866-3.39,14.866-11.981
			c0-6.692-6.293-9.335-11.564-10.655L323.636,80.4c-6.609-1.735-12.663-4.957-12.663-14.209c0-5.782,3.538-16.607,19.35-16.607
			c11.171,0,20.765,6.195,20.765,18.339h-5.345c-0.397-8.919-7.318-13.547-15.342-13.547c-7.314,0-14.079,2.974-14.079,11.731
			c0,5.536,3.854,7.93,8.493,9.005l13.687,3.553c7.948,2.234,14.557,5.947,14.557,15.532c0,4.047-1.577,16.85-21.475,16.85
			c-13.295,0-23.049-6.276-22.42-20.652H314.511z"/>
		<path fill="#0D5B99" d="M357.603,50.822h5.348v25.61h33.355v-25.61h5.349v58.987h-5.349V81.227H362.95v28.582h-5.348V50.822z"/>
	</g>
	<g>
		<path fill-rule="evenodd" clip-rule="evenodd" fill="#0D5B99" d="M92.479,62.687c0,15.897,0,31.713,0,47.606
			c-4.348,0-8.625,0-12.974,0c0-19.896,0-39.773,0-59.704c31.064,0,62.094,0,93.203,0c0,19.886,0,39.763,0,59.709
			c-4.214,0-8.415,0-12.738,0c0-15.871,0-31.71,0-47.612C137.442,62.687,115.042,62.687,92.479,62.687z"/>
		<path fill-rule="evenodd" clip-rule="evenodd" fill="#3B8DCC" d="M134.728,72.977c4.774,0,9.45,0,14.229,0
			c0,10.877,0,21.701,0,32.604c-4.759,0-9.446,0-14.229,0C134.728,94.746,134.728,83.923,134.728,72.977z"/>
		<path fill-rule="evenodd" clip-rule="evenodd" fill="#3B8DCC" d="M119.961,72.652c0,10.899,0,21.699,0,32.565
			c-4.662,0-9.265,0-13.983,0c0-10.817,0-21.642,0-32.565C110.578,72.652,115.205,72.652,119.961,72.652z"/>
	</g>
	<path fill="#0D5B99" d="M180.413,199.37c0,35.357-16.219,52.955-53.128,52.955c-36.895,0-53.128-17.598-53.128-52.955v-71.579
		h31.775v73.455c0,15.721,5.639,23.744,21.353,23.744c15.724,0,21.355-8.023,21.355-23.744v-73.455h31.773V199.37z"/>
	<path fill="#0D5B99" d="M225.165,205.423c0.692,14.428,9.458,19.069,23.188,19.069c9.621,0,19.592-3.437,19.592-12.545
		c0-10.992-17.529-12.879-35.217-17.861c-17.354-4.978-35.902-12.707-35.902-35.382c0-26.795,26.969-37.273,49.985-37.273
		c24.221,0,49.12,12.027,49.12,39.506h-31.946c0.517-10.991-10.13-14.775-19.748-14.775c-6.873,0-15.468,2.406-15.468,10.485
		c0,9.613,17.697,11.162,35.564,16.143c17.689,4.979,35.554,13.228,35.554,35.384c0,31.088-26.456,41.051-53.421,41.051
		c-27.998,0-53.244-12.365-53.244-43.801H225.165z"/>
	<path fill="#0D5B99" d="M306.204,124.008h57.371c21.122-0.521,44.313,5.327,44.313,30.748c0,10.994-6.526,19.922-16.147,24.736
		c13.061,3.943,21.127,15.111,21.127,29.029c0,29.19-21.472,38.124-47.746,38.124h-58.917V124.008z M338.161,172.273h24.73
		c5.493,0,13.05-2.921,13.05-11.682c0-8.933-6.353-11.849-13.05-11.849h-24.73V172.273z M338.161,221.056h25.581
		c10.141,0,17.185-3.607,17.185-13.74c0-10.822-7.56-14.43-17.185-14.43h-25.581V221.056z"/>
</g>
</svg>
