<?xml version="1.0" encoding="utf-8"?>
<!-- Generator: Adobe Illustrator 16.0.0, SVG Export Plug-In . SVG Version: 6.00 Build 0)  -->
<!DOCTYPE svg PUBLIC "-//W3C//DTD SVG 1.1//EN" "http://www.w3.org/Graphics/SVG/1.1/DTD/svg11.dtd">
<svg version="1.1" id="Layer_1" xmlns="http://www.w3.org/2000/svg" xmlns:xlink="http://www.w3.org/1999/xlink" x="0px" y="0px"
	 width="50px" height="50px" viewBox="25 25 50 50" enable-background="new 25 25 50 50" xml:space="preserve">
<g>
	<g>
		<path fill="#27A7CB" d="M73.188,71.533c-15.384,0-30.731,0-46.093,0c-0.007-0.079-0.013-0.142-0.013-0.205
			c0-0.797,0.001-1.594-0.004-2.389c0-0.134,0.038-0.232,0.138-0.325c1.075-1.01,2.306-1.777,3.652-2.368
			c1.418-0.622,2.899-1.026,4.417-1.289c1.413-0.242,2.835-0.356,4.265-0.378c1.342-0.018,2.678,0.052,4.014,0.212
			c0.04,0.006,0.083,0.006,0.125,0.01c0.047-0.166,0.063-1.405,0.023-1.813c-5.241-2.04-9.027-5.604-11.135-10.84
			c-1.614-4.01-1.778-8.13-0.569-12.277c2.335-8.008,9.738-13.684,18.355-13.573c9.099,0.117,16.321,6.512,18.167,14.583
			c1.066,4.651,0.491,9.113-1.787,13.311c-2.276,4.198-5.715,7.09-10.179,8.786c0,0.602,0,1.206,0,1.831
			c0.253-0.026,0.488-0.051,0.729-0.076c0.849-0.097,1.702-0.133,2.556-0.149c1.062-0.023,2.122,0.017,3.176,0.118
			c1.958,0.184,3.873,0.56,5.718,1.271c1.508,0.584,2.897,1.372,4.109,2.457c0.336,0.299,0.336,0.299,0.336,0.746
			c0,0.699,0,1.397,0,2.099C73.188,71.353,73.188,71.432,73.188,71.533z M35.752,45.181c0.021,8.019,6.458,14.279,14.173,14.391
			c8.002,0.114,14.572-6.325,14.594-14.338c0.024-7.935-6.373-14.373-14.288-14.425C42.31,30.756,35.78,37.129,35.752,45.181z"/>
		<path fill="#27A7CB" d="M50.119,52.637c-3.976,0.023-7.434-3.219-7.435-7.459c-0.002-4.116,3.347-7.459,7.481-7.442
			c4.209,0.019,7.43,3.447,7.426,7.457C57.589,49.354,54.174,52.676,50.119,52.637z M50.119,48.359
			c1.755,0.011,3.178-1.4,3.191-3.158c0.009-1.74-1.405-3.172-3.146-3.185c-1.755-0.01-3.187,1.398-3.201,3.152
			C46.948,46.918,48.364,48.347,50.119,48.359z"/>
	</g>
</g>
</svg>
