<?xml version="1.0" encoding="utf-8"?>
<!-- Generator: Adobe Illustrator 16.0.0, SVG Export Plug-In . SVG Version: 6.00 Build 0)  -->
<!DOCTYPE svg PUBLIC "-//W3C//DTD SVG 1.1//EN" "http://www.w3.org/Graphics/SVG/1.1/DTD/svg11.dtd">
<svg version="1.1" id="Layer_1" xmlns="http://www.w3.org/2000/svg" xmlns:xlink="http://www.w3.org/1999/xlink" x="0px" y="0px"
	 width="50px" height="50px" viewBox="25 25 50 50" enable-background="new 25 25 50 50" xml:space="preserve">
<g>
	<path fill="#27A7CB" d="M26.398,38.647c0.649-1.686,2.123-2.629,3.424-3.694c4.072-3.327,8.72-5.479,13.873-6.509
		c2.849-0.57,5.726-0.729,8.625-0.528c5.023,0.345,9.701,1.792,14.044,4.326c2.366,1.379,4.519,3.039,6.438,4.986
		c0.38,0.388,0.59,0.941,0.88,1.419c0,0.37,0,0.739,0,1.108c-0.294,0.492-0.505,1.072-0.902,1.459
		c-1.066,1.042-2.607,0.961-3.779-0.087c-0.88-0.79-1.747-1.604-2.682-2.326c-3.532-2.729-7.509-4.458-11.92-5.149
		c-6.844-1.074-13.194,0.252-19.029,3.991c-1.546,0.991-2.938,2.175-4.264,3.445c-1.158,1.111-2.72,1.182-3.808,0.126
		c-0.397-0.388-0.607-0.968-0.903-1.46C26.398,39.386,26.398,39.017,26.398,38.647z"/>
	<path fill="#27A7CB" d="M49.709,36.787c6.677,0.12,12.141,2.315,16.692,6.727c0.867,0.839,1.164,1.846,0.757,2.986
		c-0.396,1.102-1.233,1.697-2.403,1.788c-0.664,0.049-1.283-0.13-1.802-0.561c-0.687-0.568-1.335-1.187-2.034-1.736
		c-2.283-1.782-4.856-2.949-7.712-3.416c-5.622-0.916-10.629,0.442-14.963,4.176c-0.372,0.322-0.726,0.668-1.111,0.974
		c-1.047,0.84-2.61,0.739-3.576-0.215c-0.96-0.951-1.142-2.581-0.223-3.559c0.931-0.993,1.975-1.902,3.067-2.713
		c3.119-2.319,6.644-3.689,10.491-4.21C47.94,36.884,49.003,36.846,49.709,36.787z"/>
	<path fill="#27A7CB" d="M58.16,54.632c-0.705,0.018-1.313-0.381-1.927-0.856c-0.792-0.619-1.59-1.303-2.499-1.696
		c-3.419-1.482-6.62-1.016-9.521,1.349c-0.333,0.272-0.635,0.592-0.999,0.814c-1.202,0.742-2.722,0.428-3.578-0.704
		c-0.835-1.106-0.686-2.644,0.349-3.641c2.369-2.286,5.179-3.682,8.454-4.018c4.508-0.461,8.427,0.913,11.705,4.057
		c0.828,0.795,1.069,1.994,0.647,3.01C60.365,53.977,59.376,54.635,58.16,54.632z"/>
	<path fill="#27A7CB" d="M54.69,60.192c-0.076,2.676-2.169,4.671-4.815,4.589c-2.521-0.078-4.563-2.214-4.48-4.694
		c0.091-2.725,2.137-4.591,4.675-4.597C52.674,55.484,54.763,57.667,54.69,60.192z"/>
</g>
</svg>
